<svg xmlns="http://www.w3.org/2000/svg" viewBox="0 0 40.7 50"><defs><style>.cls-1{fill:#a01d21;}.cls-2{fill:#e16156;}.cls-3{fill:#5d5e5e;}.cls-4{font-size:6.34px;font-family:MyriadPro-Bold, Myriad Pro;font-weight:700;}.cls-4,.cls-6{fill:#f4f4f5;}.cls-5{fill:#d8d8d8;}</style></defs><title>Asset 10</title><g id="Layer_2" data-name="Layer 2"><g id="ActionKit"><path class="cls-1" d="M15.19,8h0A15.19,15.19,0,0,0,0,23.17V34.81A15.19,15.19,0,0,0,15.19,50h0A15.19,15.19,0,0,0,30.37,34.81V23.17A15.19,15.19,0,0,0,15.19,8Zm0,28.78A7.78,7.78,0,1,1,23,29,7.78,7.78,0,0,1,15.19,36.77Z"/><path class="cls-2" d="M15.19,4.61h0A15.19,15.19,0,0,0,0,19.8V31.44A15.19,15.19,0,0,0,15.19,46.63h0A15.19,15.19,0,0,0,30.37,31.44V19.8A15.19,15.19,0,0,0,15.19,4.61Zm0,28.78A7.78,7.78,0,1,1,23,25.62,7.78,7.78,0,0,1,15.19,33.4Z"/><circle class="cls-3" cx="15.22" cy="25.62" r="8.07"/><text class="cls-4" transform="translate(10.42 13.85)">ON</text><text class="cls-4" transform="translate(10.26 41.17)">OFF</text><rect class="cls-5" x="23.91" y="-3.46" width="6.57" height="35.49" rx="3.28" ry="3.28" transform="translate(18.07 -15.04) rotate(45)"/><rect class="cls-6" x="23.13" y="-4.24" width="6.57" height="35.49" rx="3.28" ry="3.28" transform="translate(17.29 -14.72) rotate(45)"/></g></g></svg>