<svg xmlns="http://www.w3.org/2000/svg" viewBox="0 0 44.41 50"><defs><style>.cls-1{fill:#a01d21;}.cls-2{fill:#e16156;}.cls-3{fill:#5d5e5e;}.cls-4{font-size:6.92px;font-family:MyriadPro-Bold, Myriad Pro;font-weight:700;}.cls-4,.cls-6{fill:#f4f4f5;}.cls-5{fill:#d8d8d8;}</style></defs><title>Asset 11</title><g id="Layer_2" data-name="Layer 2"><g id="ActionKit"><path class="cls-1" d="M16.57,3.68h0A16.57,16.57,0,0,0,0,20.25V33A16.57,16.57,0,0,0,16.57,49.52h0A16.57,16.57,0,0,0,33.14,33V20.25A16.57,16.57,0,0,0,16.57,3.68Zm0,31.41a8.49,8.49,0,1,1,8.49-8.49A8.49,8.49,0,0,1,16.57,35.09Z"/><path class="cls-2" d="M16.57,0h0A16.57,16.57,0,0,0,0,16.57v12.7A16.57,16.57,0,0,0,16.57,45.84h0A16.57,16.57,0,0,0,33.14,29.27V16.57A16.57,16.57,0,0,0,16.57,0Zm0,31.41a8.49,8.49,0,1,1,8.49-8.49A8.49,8.49,0,0,1,16.57,31.41Z"/><circle class="cls-3" cx="16.61" cy="22.92" r="8.8"/><text class="cls-4" transform="translate(11.37 10.08)">ON</text><text class="cls-4" transform="translate(11.19 39.89)">OFF</text><rect class="cls-5" x="25.24" y="15.9" width="7.17" height="38.72" rx="3.58" ry="3.58" transform="translate(74.13 39.82) rotate(135)"/><rect class="cls-6" x="26.08" y="15.05" width="7.17" height="38.72" rx="3.58" ry="3.58" transform="translate(74.98 37.77) rotate(135)"/></g></g></svg>