<svg xmlns="http://www.w3.org/2000/svg" viewBox="0 0 50 50"><defs><style>.cls-1{fill:#f4f4f5;}.cls-2{fill:#e16156;}.cls-3{fill:#497ea2;}.cls-4{fill:#f8b0ae;}.cls-5{fill:#bdd9be;}.cls-6{fill:#ffd839;}.cls-7{fill:#97cfe3;}.cls-8{fill:#fff;}</style></defs><title>Asset 21</title><g id="Layer_2" data-name="Layer 2"><g id="ActionKit"><circle class="cls-1" cx="25" cy="25" r="25"/><path class="cls-2" d="M25.56,20.08A10.55,10.55,0,0,1,36.27,19c0-.28,0-.56,0-.85a10.62,10.62,0,0,0-21.24,0c0,.25,0,.49,0,.73a10.58,10.58,0,0,1,10.46,1.19Z"/><path class="cls-3" d="M21.2,28.65c0-.29,0-.57,0-.85a10.61,10.61,0,0,1-6.14-8.91A10.62,10.62,0,1,0,25.56,37.22,10.6,10.6,0,0,1,21.2,28.65Z"/><path class="cls-4" d="M21.24,27.8a10.6,10.6,0,0,1,4.32-7.72,10.58,10.58,0,0,0-10.46-1.19A10.61,10.61,0,0,0,21.24,27.8Z"/><path class="cls-5" d="M36.27,19a10.62,10.62,0,0,1-6.38,8.91c0,.24,0,.48,0,.73a10.6,10.6,0,0,1-4.36,8.57A10.61,10.61,0,1,0,36.27,19Z"/><path class="cls-6" d="M25.56,20.08a10.59,10.59,0,0,1,4.33,7.84A10.62,10.62,0,0,0,36.27,19a10.55,10.55,0,0,0-10.71,1.07Z"/><path class="cls-7" d="M29.93,28.65c0-.25,0-.49,0-.73a10.57,10.57,0,0,1-8.65-.12c0,.28,0,.56,0,.85a10.6,10.6,0,0,0,4.36,8.57A10.6,10.6,0,0,0,29.93,28.65Z"/><path class="cls-8" d="M25.56,20.08a10.6,10.6,0,0,0-4.32,7.72,10.57,10.57,0,0,0,8.65.12A10.59,10.59,0,0,0,25.56,20.08Z"/></g></g></svg>