<svg xmlns="http://www.w3.org/2000/svg" viewBox="0 0 50 19.24"><defs><style>.cls-1{fill:#b0b0b0;}.cls-2{fill:#a01d21;}.cls-3{fill:#d8d8d8;}.cls-4{fill:#e16156;}.cls-5{fill:#878787;}.cls-6{fill:#d18b29;}.cls-7{fill:#ffd839;}</style></defs><title>Asset 17</title><g id="Layer_2" data-name="Layer 2"><g id="Icon_Kit" data-name="Icon Kit"><rect class="cls-1" x="9.82" width="30.52" height="19.24" rx="5.9" ry="5.9"/><path class="cls-2" d="M34.4,0h0a5.93,5.93,0,0,1,5.93,5.93v7.39a5.93,5.93,0,0,1-5.93,5.93h0a0,0,0,0,1,0,0V0A0,0,0,0,1,34.4,0Z"/><path class="cls-3" d="M14.94,4.08H36.37a3.18,3.18,0,0,1,3.18,3.18V12a3.18,3.18,0,0,1-3.18,3.18H14.94a4.34,4.34,0,0,1-4.34-4.34V8.43a4.34,4.34,0,0,1,4.34-4.34Z"/><path class="cls-4" d="M34.35,4.08h2.17a3,3,0,0,1,3,3v5a3,3,0,0,1-3,3H34.35a0,0,0,0,1,0,0V4.08A0,0,0,0,1,34.35,4.08Z"/><rect class="cls-5" x="34.35" y="4.08" width="2.53" height="11.13"/><rect class="cls-1" x="33.72" y="4.08" width="2.53" height="11.13"/><path class="cls-6" d="M35.81,1.41h-1a.51.51,0,0,0-.51.51V4.07h2V1.92A.51.51,0,0,0,35.81,1.41Zm0,1.47a.41.41,0,0,1-.41.41h-.23a.41.41,0,0,1-.41-.41V2.21a.41.41,0,0,1,.41-.41h.23a.41.41,0,0,1,.41.41Z"/><path class="cls-7" d="M35.61,1.41h-1a.51.51,0,0,0-.51.51V4.07h2V1.92A.51.51,0,0,0,35.61,1.41Zm0,1.47a.41.41,0,0,1-.41.41H35a.41.41,0,0,1-.41-.41V2.21A.41.41,0,0,1,35,1.8h.23a.41.41,0,0,1,.41.41Z"/><path class="cls-6" d="M34.79,17.84h1a.51.51,0,0,0,.51-.51V15.18h-2v2.15A.51.51,0,0,0,34.79,17.84Zm0-1.47a.41.41,0,0,1,.41-.41h.23a.41.41,0,0,1,.41.41V17a.41.41,0,0,1-.41.41h-.23a.41.41,0,0,1-.41-.41Z"/><path class="cls-7" d="M34.59,17.84h1a.51.51,0,0,0,.51-.51V15.18h-2v2.15A.51.51,0,0,0,34.59,17.84Zm0-1.47A.41.41,0,0,1,35,16h.23a.41.41,0,0,1,.41.41V17a.41.41,0,0,1-.41.41H35a.41.41,0,0,1-.41-.41Z"/><path class="cls-5" d="M15.35,18.27a1.17,1.17,0,0,1,0-2.33Z"/><path class="cls-5" d="M15.35,3.21a1.17,1.17,0,0,1,0-2.33Z"/><rect class="cls-1" y="9.43" width="9.72" height="1.02"/><rect class="cls-3" y="9.04" width="9.72" height="1.02"/><rect class="cls-6" y="8.79" width="5.83" height="0.78"/><rect class="cls-7" y="8.36" width="5.83" height="0.78"/><rect class="cls-6" y="7.7" width="5.83" height="0.47"/><rect class="cls-7" y="7.43" width="5.83" height="0.47"/><rect class="cls-6" y="11.27" width="5.83" height="0.47" transform="translate(5.83 23.01) rotate(180)"/><rect class="cls-7" y="11.54" width="5.83" height="0.47" transform="translate(5.83 23.54) rotate(180)"/><rect class="cls-6" y="9.82" width="5.83" height="0.78" transform="translate(5.83 20.41) rotate(180)"/><rect class="cls-7" y="10.25" width="5.83" height="0.78" transform="translate(5.83 21.28) rotate(180)"/><rect class="cls-1" x="40.28" y="8.99" width="9.72" height="1.02" transform="translate(90.28 19) rotate(180)"/><rect class="cls-3" x="40.28" y="9.38" width="9.72" height="1.02" transform="translate(90.28 19.78) rotate(180)"/><rect class="cls-6" x="44.17" y="9.86" width="5.83" height="0.78" transform="translate(94.17 20.51) rotate(180)"/><rect class="cls-7" x="44.17" y="10.3" width="5.83" height="0.78" transform="translate(94.17 21.38) rotate(180)"/><rect class="cls-6" x="44.17" y="11.27" width="5.83" height="0.47" transform="translate(94.17 23.01) rotate(180)"/><rect class="cls-7" x="44.17" y="11.54" width="5.83" height="0.47" transform="translate(94.17 23.54) rotate(180)"/><rect class="cls-6" x="44.17" y="7.7" width="5.83" height="0.47"/><rect class="cls-7" x="44.17" y="7.43" width="5.83" height="0.47"/><rect class="cls-6" x="44.17" y="8.84" width="5.83" height="0.78"/><rect class="cls-7" x="44.17" y="8.41" width="5.83" height="0.78"/><rect class="cls-1" x="30.56" y="6.77" width="1.68" height="1.68"/><rect class="cls-1" x="30.56" y="10.99" width="1.68" height="1.68"/></g></g></svg>