<svg xmlns="http://www.w3.org/2000/svg" viewBox="0 0 44.9 50"><defs><style>.cls-1{fill:#d8d8d8;}.cls-2,.cls-9{fill:#f4f4f5;}.cls-3{fill:#353535;}.cls-4{fill:#375869;}.cls-5{fill:#4a7ea2;}.cls-6{fill:#a01d21;}.cls-7{fill:#e16156;}.cls-8{fill:#ffd839;}.cls-9{font-size:3px;font-family:MyriadPro-Regular, Myriad Pro;}.cls-10{fill:none;stroke:#ffd839;stroke-linecap:round;stroke-miterlimit:10;}</style></defs><title>Asset 20</title><g id="Layer_2" data-name="Layer 2"><g id="ActionKit"><circle class="cls-1" cx="22.45" cy="27.55" r="22.45"/><circle class="cls-2" cx="22.45" cy="24.76" r="22.45"/><path class="cls-3" d="M22.45,45.71a21,21,0,1,1,21-21A21,21,0,0,1,22.45,45.71Z"/><path class="cls-4" d="M22.45,5.31A19.45,19.45,0,1,1,3,24.76,19.47,19.47,0,0,1,22.45,5.31m0-3A22.45,22.45,0,1,0,44.9,24.76,22.45,22.45,0,0,0,22.45,2.31Z"/><path class="cls-5" d="M22.45,3A19.45,19.45,0,1,1,3,22.45,19.47,19.47,0,0,1,22.45,3m0-3A22.45,22.45,0,1,0,44.9,22.45,22.45,22.45,0,0,0,22.45,0Z"/><circle class="cls-6" cx="22.13" cy="23.8" r="2.63"/><rect class="cls-6" x="19.51" y="23.15" width="5.25" height="0.65"/><circle class="cls-7" cx="22.13" cy="23.15" r="2.63"/><rect class="cls-8" x="20.13" y="7.13" width="4" height="5" rx="2" ry="2"/><text class="cls-9" transform="translate(21.15 10.64)">N</text><rect class="cls-8" x="20.13" y="35.24" width="4" height="5" rx="2" ry="2"/><text class="cls-9" transform="translate(21.39 38.73)">S</text><rect class="cls-8" x="5.68" y="21.3" width="4" height="5" rx="2" ry="2" transform="translate(31.48 16.12) rotate(90)"/><text class="cls-9" transform="translate(6.41 24.89)">W</text><rect class="cls-8" x="35.33" y="21.3" width="4" height="5" rx="2" ry="2" transform="translate(61.13 -13.54) rotate(90)"/><text class="cls-9" transform="translate(36.6 24.76)">E</text><line class="cls-10" x1="9.76" y1="11.1" x2="11.41" y2="12.75"/><line class="cls-10" x1="32.85" y1="34.19" x2="34.5" y2="35.84"/><line class="cls-10" x1="9.76" y1="35.84" x2="11.41" y2="34.19"/><line class="cls-10" x1="32.85" y1="12.75" x2="34.5" y2="11.1"/></g></g></svg>