<svg xmlns="http://www.w3.org/2000/svg" viewBox="0 0 44.9 50"><defs><style>.cls-1{fill:#d8d8d8;}.cls-2{fill:#f4f4f5;}.cls-3{fill:#d18b29;}.cls-4{fill:#ffd839;}.cls-5{fill:#a01d21;}.cls-6{fill:#e16156;}.cls-7{fill:#365769;}</style></defs><title>Asset 12</title><g id="Layer_2" data-name="Layer 2"><g id="ActionKit"><circle class="cls-1" cx="22.45" cy="27.55" r="22.45"/><circle class="cls-2" cx="22.45" cy="24.76" r="22.45"/><path class="cls-3" d="M22.45,7.31A17.45,17.45,0,1,1,5,24.76,17.47,17.47,0,0,1,22.45,7.31m0-5A22.45,22.45,0,1,0,44.9,24.76,22.45,22.45,0,0,0,22.45,2.31Z"/><path class="cls-4" d="M22.45,5A17.45,17.45,0,1,1,5,22.45,17.47,17.47,0,0,1,22.45,5m0-5A22.45,22.45,0,1,0,44.9,22.45,22.45,22.45,0,0,0,22.45,0Z"/><rect class="cls-5" x="22.46" y="8.47" width="2.25" height="17.41" rx="1.12" ry="1.12" transform="translate(3.73 -4.2) rotate(11.05)"/><rect class="cls-6" x="22.57" y="7.92" width="2.25" height="17.41" rx="1.12" ry="1.12" transform="translate(3.63 -4.23) rotate(11.05)"/><rect class="cls-7" x="21.01" y="35" width="2.25" height="5.48" rx="1.12" ry="1.12"/><rect class="cls-7" x="21.01" y="6.88" width="2.25" height="5.48" rx="1.12" ry="1.12"/><rect class="cls-7" x="6.56" y="21.06" width="2.25" height="5.48" rx="1.12" ry="1.12" transform="translate(31.48 16.12) rotate(90)"/><rect class="cls-7" x="36.21" y="21.06" width="2.25" height="5.48" rx="1.12" ry="1.12" transform="translate(61.13 -13.54) rotate(90)"/></g></g></svg>