<svg xmlns="http://www.w3.org/2000/svg" viewBox="0 0 33.94 50"><defs><style>.cls-1{fill:#d18b29;}.cls-2{fill:#ffd839;}.cls-3{fill:none;stroke:#fff;stroke-miterlimit:10;stroke-width:0.5px;}</style></defs><title>Asset 7</title><g id="Layer_2" data-name="Layer 2"><g id="ActionKit"><path class="cls-1" d="M0,14.72v7.75l15.93-9.2H1.45A1.45,1.45,0,0,0,0,14.72Z"/><path class="cls-1" d="M1.45,40.34H15.93L0,31.15v7.75A1.45,1.45,0,0,0,1.45,40.34Z"/><path class="cls-1" d="M33.94,4.63a1,1,0,0,0-1.52-.88L15.93,13.27h.51V40.34h-.51l16.48,9.52A1,1,0,0,0,33.94,49Z"/><polygon class="cls-1" points="16.44 13.27 15.93 13.27 0 22.46 0 31.15 15.93 40.34 16.44 40.34 16.44 13.27"/><path class="cls-2" d="M0,11.11v7.75l15.93-9.2H1.45A1.45,1.45,0,0,0,0,11.11Z"/><path class="cls-2" d="M1.45,36.73H15.93L0,27.54v7.75A1.45,1.45,0,0,0,1.45,36.73Z"/><path class="cls-2" d="M33.94,1A1,1,0,0,0,32.41.14L15.93,9.66h.51V36.73h-.51l16.48,9.52a1,1,0,0,0,1.52-.88Z"/><polygon class="cls-2" points="16.44 9.65 15.93 9.65 0 18.85 0 27.54 15.93 36.73 16.44 36.73 16.44 9.65"/><rect class="cls-1" x="15.47" y="32.67" width="0.64" height="2.19"/><rect class="cls-1" x="15.47" y="13.04" width="0.64" height="17.68"/><polyline class="cls-3" points="2.03 11.2 16.34 11.2 32.35 1.82"/></g></g></svg>