<svg xmlns="http://www.w3.org/2000/svg" viewBox="0 0 43.88 50.75"><defs><style>.cls-1{fill:#97cfe3;stroke:#f4f4f5;stroke-linejoin:bevel;}.cls-2{fill:#f4f4f5;}</style></defs><title>Asset 16</title><g id="Layer_2" data-name="Layer 2"><g id="ActionKit"><g id="SensorHumid"><path class="cls-1" d="M42.71,28.72H43l-.65-1.13a16.81,16.81,0,0,0-2.88-5L26.54.25,13.64,22.6a16.81,16.81,0,0,0-2.88,5l-.65,1.13h.27a16.84,16.84,0,1,0,32.33,0Z"/><path class="cls-1" d="M21.88,35.14h.18l-.42-.73a10.89,10.89,0,0,0-1.87-3.23L11.41,16.69,3,31.18a10.89,10.89,0,0,0-1.87,3.23l-.42.73H.94a10.91,10.91,0,1,0,20.95,0Z"/><path class="cls-2" d="M35.42,29.57A8,8,0,0,1,24.07,40.93c-3.14-3.14,4.81-.27,7.95-3.41S32.29,26.44,35.42,29.57Z"/><path class="cls-2" d="M17,34.85A6.5,6.5,0,0,1,7.81,44c-2.54-2.54,3.9-.22,6.44-2.76S14.46,32.31,17,34.85Z"/></g></g></g></svg>