<svg xmlns="http://www.w3.org/2000/svg" viewBox="0 0 39.92 49.96"><defs><style>.cls-1{fill:#d8d8d8;}.cls-2{fill:#375869;}.cls-3{fill:#ffd839;}</style></defs><title>Asset 22</title><g id="Layer_2" data-name="Layer 2"><g id="ActionKit"><path class="cls-1" d="M39.92,36.44V18.84a4.72,4.72,0,0,0-2.36-4.09L22.32,6A4.72,4.72,0,0,0,17.6,6L2.36,14.76A4.72,4.72,0,0,0,0,18.84v17.6a4.72,4.72,0,0,0,2.36,4.09l15.24,8.8a4.72,4.72,0,0,0,4.72,0l15.24-8.8A4.72,4.72,0,0,0,39.92,36.44Z"/><path class="cls-2" d="M39.92,34.51V16.9a4.72,4.72,0,0,0-2.36-4.09L22.32,4A4.72,4.72,0,0,0,17.6,4L2.36,12.82A4.72,4.72,0,0,0,0,16.9v17.6a4.72,4.72,0,0,0,2.36,4.09l15.24,8.8a4.72,4.72,0,0,0,4.72,0l15.24-8.8A4.72,4.72,0,0,0,39.92,34.51Z"/><path class="cls-3" d="M39.92,31.2V13.48a4.61,4.61,0,0,0-2.31-4L22.27.62a4.61,4.61,0,0,0-4.61,0L2.31,9.48a4.61,4.61,0,0,0-2.31,4V31.2a4.61,4.61,0,0,0,2.31,4l15.35,8.86a4.61,4.61,0,0,0,4.61,0l15.35-8.86A4.61,4.61,0,0,0,39.92,31.2Z"/><polygon class="cls-2" points="34.94 30.97 32.11 26.08 31.03 27.96 21.25 22.32 31.01 16.68 32.1 18.58 34.93 13.68 29.28 13.68 30.36 15.57 20.61 21.2 20.61 9.95 22.8 9.95 19.97 5.05 17.14 9.95 19.32 9.95 19.32 21.2 9.56 15.57 10.64 13.7 4.98 13.7 7.81 18.59 8.91 16.68 18.67 22.32 8.9 27.96 7.82 26.09 4.99 30.99 10.65 30.99 9.54 29.08 19.32 23.43 19.32 34.73 17.14 34.73 19.97 39.62 22.8 34.73 20.61 34.73 20.61 23.43 30.38 29.08 29.29 30.97 34.94 30.97"/></g></g></svg>