<svg xmlns="http://www.w3.org/2000/svg" viewBox="0 0 44.9 50"><defs><style>.cls-1{fill:#d8d8d8;}.cls-2{fill:#375869;}.cls-3{fill:#a11e22;}.cls-4{fill:#e16056;}.cls-5{fill:#fff;}.cls-6{fill:#a01d21;}.cls-7{fill:#e16156;}.cls-8{fill:#d18b29;}.cls-9{fill:#ffd839;}</style></defs><title>Pressure</title><g id="Layer_2" data-name="Layer 2"><g id="ActionKit"><circle class="cls-1" cx="22.45" cy="27.55" r="22.45"/><circle class="cls-2" cx="22.45" cy="24.76" r="22.45"/><path class="cls-3" d="M22.45,7.31A17.45,17.45,0,1,1,5,24.76,17.47,17.47,0,0,1,22.45,7.31m0-5A22.45,22.45,0,1,0,44.9,24.76,22.45,22.45,0,0,0,22.45,2.31Z"/><path class="cls-4" d="M22.45,5A17.45,17.45,0,1,1,5,22.45,17.47,17.47,0,0,1,22.45,5m0-5A22.45,22.45,0,1,0,44.9,22.45,22.45,22.45,0,0,0,22.45,0Z"/><path class="cls-5" d="M38.33,24.76a15.88,15.88,0,0,0-31.75,0Z"/><rect class="cls-6" x="22.26" y="13.42" width="2.25" height="12.41" rx="1.12" ry="1.12" transform="translate(4.2 -4.12) rotate(11.05)"/><rect class="cls-7" x="22.06" y="13.03" width="2.25" height="12.41" rx="1.12" ry="1.12" transform="translate(4.12 -4.09) rotate(11.05)"/><circle class="cls-8" cx="22.45" cy="24.66" r="1.84"/><circle class="cls-9" cx="22.45" cy="24.13" r="1.84"/><rect class="cls-2" x="22.26" y="9.3" width="0.39" height="1.7"/><rect class="cls-2" x="16.56" y="10.44" width="0.39" height="1.7" transform="translate(-3.04 7.27) rotate(-22.5)"/><rect class="cls-2" x="11.99" y="13.42" width="0.39" height="1.7" transform="translate(-6.52 12.79) rotate(-45)"/><rect class="cls-2" x="9.18" y="17.59" width="0.39" height="1.7" transform="translate(-11.24 20.05) rotate(-67.5)"/><rect class="cls-2" x="7.72" y="22.59" width="0.39" height="1.7" transform="translate(-15.53 31.35) rotate(-90)"/><rect class="cls-2" x="27.96" y="10.44" width="0.39" height="1.7" transform="translate(49.84 32.49) rotate(-157.5)"/><rect class="cls-2" x="32.53" y="13.42" width="0.39" height="1.7" transform="translate(45.78 47.5) rotate(-135)"/><rect class="cls-2" x="35.33" y="17.59" width="0.39" height="1.7" transform="translate(32.09 58.32) rotate(-112.5)"/><rect class="cls-2" x="36.8" y="22.59" width="0.39" height="1.7" transform="translate(13.56 60.43) rotate(-90)"/></g></g></svg>