<svg xmlns="http://www.w3.org/2000/svg" xmlns:xlink="http://www.w3.org/1999/xlink" viewBox="0 0 200.2 194.36"><defs><style>.cls-1{fill:none;}.cls-2{fill:#98cfe2;}.cls-3{clip-path:url(#clip-path);}.cls-4{fill:#365769;}.cls-5{fill:#2b444f;}.cls-13,.cls-6{fill:#497ea2;}.cls-7{fill:#e16156;}.cls-8{fill:#e58883;}.cls-9{fill:#edeef3;}.cls-10{fill:#e3e9db;}.cls-11{fill:#bdd9be;}.cls-12,.cls-21{fill:#85b1bc;}.cls-12,.cls-13{opacity:0.3;}.cls-14{fill:#f9b6b6;}.cls-15{fill:#3a1a11;}.cls-16{fill:#5b2b16;}.cls-17{fill:#773a19;}.cls-18{fill:#454a62;}.cls-19{fill:#313544;}.cls-20{fill:#575d77;}.cls-22{fill:#ba2741;}.cls-23{fill:#a01d21;}.cls-24{fill:#d18b29;}.cls-25{fill:#ffd839;}.cls-26{fill:#d6b837;}</style><clipPath id="clip-path"><rect class="cls-1" x="0.1" y="0.1" width="200" height="150" rx="2.78" ry="2.78"/></clipPath></defs><title>creator-charater</title><g id="Layer_2" data-name="Layer 2"><g id="all_projects" data-name="all projects"><rect class="cls-2" x="0.05" y="0.05" width="200.1" height="150.1" rx="2.83" ry="2.83"/><path d="M197.32.1a2.78,2.78,0,0,1,2.78,2.78V147.32a2.78,2.78,0,0,1-2.78,2.78H2.88A2.78,2.78,0,0,1,.1,147.32V2.88A2.78,2.78,0,0,1,2.88.1H197.32m0-.1H2.88A2.88,2.88,0,0,0,0,2.88V147.32a2.88,2.88,0,0,0,2.88,2.88H197.32a2.88,2.88,0,0,0,2.88-2.88V2.88A2.88,2.88,0,0,0,197.32,0Z"/><g class="cls-3"><polygon class="cls-4" points="89.21 124.86 77.81 131.41 77.81 183.47 89.21 176.91 89.21 124.86"/><polygon class="cls-5" points="77.81 131.41 73.36 129.1 73.36 181.15 77.81 183.47 77.81 131.41"/><polygon class="cls-6" points="89.21 124.86 84.76 122.54 73.36 129.1 77.81 131.41 89.21 124.86"/><polygon class="cls-4" points="110.91 135.75 99.51 142.3 99.51 194.36 110.91 187.8 110.91 135.75"/><polygon class="cls-5" points="99.51 142.3 95.06 139.99 95.06 192.04 99.51 194.36 99.51 142.3"/><polygon class="cls-6" points="110.91 135.75 106.45 133.43 95.06 139.99 99.51 142.3 110.91 135.75"/><polygon class="cls-7" points="79.15 95.8 67.75 102.36 67.75 138.61 79.15 132.05 79.15 95.8"/><polygon class="cls-8" points="67.75 102.36 63.3 100.04 63.3 136.29 67.75 138.61 67.75 102.36"/><polygon class="cls-9" points="79.15 95.8 74.7 93.49 63.3 100.04 67.75 102.36 79.15 95.8"/><polygon class="cls-10" points="79.15 78.58 67.75 85.13 67.75 102.94 79.15 96.39 79.15 78.58"/><polygon class="cls-11" points="67.75 85.13 63.3 82.82 63.3 100.63 67.75 102.94 67.75 85.13"/><polygon class="cls-9" points="79.15 78.58 74.7 76.26 63.3 82.82 67.75 85.13 79.15 78.58"/><polygon class="cls-10" points="124.5 135.49 124.5 79.01 96.12 62.62 67.73 79.01 67.73 135.49 96.12 152.41 124.5 135.49"/><polygon class="cls-9" points="67.73 79.01 67.73 135.49 96.12 152.41 96.12 96.2 67.73 79.01"/><polygon class="cls-11" points="67.73 79.01 96.12 96.2 124.5 79.01 96.12 62.62 67.73 79.01"/><polygon class="cls-12" points="71.16 81.11 71.16 137.6 74.57 139.57 74.57 83.1 71.16 81.11"/><polygon class="cls-12" points="77.28 84.8 77.28 141.29 80.7 143.26 80.7 86.79 77.28 84.8"/><polygon class="cls-12" points="83.28 88.36 83.28 144.84 86.69 146.81 86.69 90.34 83.28 88.36"/><polygon class="cls-12" points="89.6 92.18 89.6 148.66 93.01 150.63 93.01 94.16 89.6 92.18"/><polygon class="cls-13" points="121.53 80.85 121.53 137.34 118.12 139.31 118.12 82.83 121.53 80.85"/><polygon class="cls-13" points="115.4 84.54 115.4 141.02 111.99 142.99 111.99 86.52 115.4 84.54"/><polygon class="cls-13" points="109.41 88.09 109.41 144.58 106 146.55 106 90.08 109.41 88.09"/><polygon class="cls-13" points="103.09 91.91 103.09 148.4 99.68 150.37 99.68 93.9 103.09 91.91"/><polygon class="cls-12" points="67.73 82.69 67.73 86.49 96.12 103.41 96.12 99.89 67.73 82.69"/><polygon class="cls-12" points="67.73 89.94 67.73 93.74 96.12 110.65 96.12 107.13 67.73 89.94"/><polygon class="cls-12" points="67.73 97.18 67.73 100.98 96.12 117.9 96.12 114.38 67.73 97.18"/><polygon class="cls-12" points="67.73 104.43 67.73 108.23 96.12 125.14 96.12 121.62 67.73 104.43"/><polygon class="cls-13" points="124.5 82.69 124.5 86.49 96.12 103.41 96.12 99.89 124.5 82.69"/><polygon class="cls-13" points="124.5 89.94 124.5 93.74 96.12 110.65 96.12 107.13 124.5 89.94"/><polygon class="cls-13" points="124.5 97.18 124.5 100.98 96.12 117.9 96.12 114.38 124.5 97.18"/><polygon class="cls-13" points="124.5 104.43 124.5 108.23 96.12 125.14 96.12 121.62 124.5 104.43"/><polygon class="cls-12" points="67.73 111.34 67.73 115.14 96.12 132.06 96.12 128.53 67.73 111.34"/><polygon class="cls-13" points="124.5 111.34 124.5 115.14 96.12 132.06 96.12 128.53 124.5 111.34"/><polygon class="cls-12" points="67.73 118.26 67.73 122.06 96.12 138.97 96.12 135.45 67.73 118.26"/><polygon class="cls-13" points="124.5 118.26 124.5 122.06 96.12 138.97 96.12 135.45 124.5 118.26"/><polygon class="cls-12" points="67.73 125.17 67.73 128.97 96.12 145.89 96.12 142.37 67.73 125.17"/><polygon class="cls-13" points="124.5 125.17 124.5 128.97 96.12 145.89 96.12 142.37 124.5 125.17"/><polygon class="cls-12" points="67.73 131.82 67.73 135.62 96.12 152.54 96.12 149.02 67.73 131.82"/><polygon class="cls-13" points="124.5 131.82 124.5 135.62 96.12 152.54 96.12 149.02 124.5 131.82"/><polygon class="cls-7" points="124.5 76.56 124.5 43.78 96.12 27.4 67.73 43.78 67.73 76.56 96.12 92.95 124.5 76.56"/><polygon class="cls-8" points="67.73 43.78 67.73 76.56 96.12 92.95 96.12 60.98 67.73 43.78"/><polygon class="cls-14" points="67.73 43.78 96.12 60.98 124.5 43.78 96.12 27.4 67.73 43.78"/><polygon class="cls-15" points="124.5 43.78 124.5 36.72 96.12 20.34 67.73 36.72 67.73 43.78 96.12 61.12 124.5 43.78"/><polygon class="cls-16" points="67.73 36.72 67.73 43.78 96.12 61.12 96.12 53.92 67.73 36.72"/><polygon class="cls-17" points="67.73 36.72 96.12 53.92 124.5 36.72 96.12 20.34 67.73 36.72"/><polygon class="cls-18" points="78.96 68.51 78.96 56.94 68.94 51.16 66.53 52.45 66.53 64.01 76.55 69.8 78.96 68.51"/><polygon class="cls-19" points="66.53 52.45 66.53 64.01 76.55 69.8 76.55 58.52 66.53 52.45"/><polygon class="cls-20" points="66.53 52.45 76.55 58.52 78.96 56.94 68.94 51.16 66.53 52.45"/><polygon class="cls-18" points="67.42 55.75 67.42 63.7 74.31 67.68 75.97 66.79 75.97 58.84 69.08 54.86 67.42 55.75"/><polygon class="cls-9" points="75.97 66.79 75.97 58.84 69.08 54.86 69.08 62.62 75.97 66.79"/><polygon class="cls-20" points="75.97 66.79 69.08 62.62 67.42 63.7 74.31 67.68 75.97 66.79"/><polygon class="cls-18" points="84.96 67.78 84.96 65.11 79 61.53 76.69 62.87 76.69 65.53 82.64 69.11 84.96 67.78"/><polygon class="cls-19" points="76.69 62.87 76.69 65.53 82.64 69.11 82.64 66.51 76.69 62.87"/><polygon class="cls-20" points="76.69 62.87 82.64 66.51 84.96 65.11 79 61.53 76.69 62.87"/><polygon class="cls-18" points="94.62 77.82 94.62 66.26 84.61 60.48 82.2 61.77 82.2 73.33 92.21 79.11 94.62 77.82"/><polygon class="cls-19" points="82.2 61.77 82.2 73.33 92.21 79.11 92.21 67.83 82.2 61.77"/><polygon class="cls-20" points="82.2 61.77 92.21 67.83 94.62 66.26 84.61 60.48 82.2 61.77"/><polygon class="cls-18" points="83.08 65.06 83.08 73.02 89.97 77 91.63 76.11 91.63 68.15 84.74 64.18 83.08 65.06"/><polygon class="cls-9" points="91.63 76.11 91.63 68.15 84.74 64.18 84.74 71.94 91.63 76.11"/><polygon class="cls-20" points="91.63 76.11 84.74 71.94 83.08 73.02 89.97 77 91.63 76.11"/><polygon class="cls-5" points="73.33 61.86 73.33 59.79 71.54 58.76 69.75 59.79 69.75 61.86 71.54 62.89 73.33 61.86"/><polygon class="cls-6" points="69.75 59.79 69.75 61.86 71.54 62.89 71.54 60.88 69.75 59.79"/><polygon class="cls-21" points="69.75 59.79 71.54 60.88 73.33 59.79 71.54 58.76 69.75 59.79"/><polygon class="cls-5" points="89.15 70.83 89.15 68.76 87.36 67.73 85.57 68.76 85.57 70.83 87.36 71.86 89.15 70.83"/><polygon class="cls-6" points="85.57 68.76 85.57 70.83 87.36 71.86 87.36 69.85 85.57 68.76"/><polygon class="cls-21" points="85.57 68.76 87.36 69.85 89.15 68.76 87.36 67.73 85.57 68.76"/><polygon class="cls-18" points="126.57 58.07 126.57 55.4 124.5 54.17 96.66 71.7 96.66 74.36 98.75 75.59 126.57 58.07"/><polygon class="cls-19" points="96.66 71.7 96.66 74.36 98.75 75.59 98.75 72.99 96.66 71.7"/><polygon class="cls-20" points="96.66 71.7 98.75 72.99 126.57 55.4 124.5 54.17 96.66 71.7"/><polygon class="cls-18" points="98.75 75.59 98.75 72.92 94.62 70.47 92.31 71.8 92.31 74.47 96.44 76.93 98.75 75.59"/><polygon class="cls-19" points="92.31 71.8 92.31 74.47 96.44 76.93 96.44 74.33 92.31 71.8"/><polygon class="cls-20" points="92.31 71.8 96.44 74.33 98.75 72.92 94.62 70.47 92.31 71.8"/><polygon class="cls-7" points="76.74 76.14 76.74 74.61 78.06 73.85 78.06 75.38 76.74 76.14"/><polygon class="cls-7" points="85.53 83.63 85.53 79.33 86.85 78.57 86.85 82.86 85.53 83.63"/><polygon class="cls-7" points="81.94 83.45 81.94 81.55 83.27 80.79 83.27 82.69 81.94 83.45"/><polygon class="cls-22" points="73.01 72.46 74.34 71.7 78.06 73.85 76.74 74.61 73.01 72.46"/><polygon class="cls-22" points="76.75 76.16 78.07 75.39 83.13 78.31 81.81 79.08 76.75 76.16"/><polygon class="cls-22" points="81.8 77.18 83.13 76.42 86.85 78.56 85.53 79.33 81.8 77.18"/><polygon class="cls-23" points="85.53 79.33 81.81 77.18 81.81 79.08 76.73 76.13 76.73 74.61 73.01 72.46 73.01 76.76 76.21 78.61 76.21 80.12 81.94 83.45 81.94 81.55 85.53 83.63 85.53 79.33"/><polygon class="cls-9" points="100.65 37.72 100.65 35.71 96.66 33.41 92.68 35.71 92.68 37.72 96.66 40.02 100.65 37.72"/><polygon class="cls-11" points="92.68 35.71 96.66 38.01 96.66 40.02 92.68 37.72 92.68 35.71"/><polygon class="cls-10" points="96.66 40.02 96.66 38.01 100.65 35.71 100.65 37.72 96.66 40.02"/><polygon class="cls-9" points="100.65 34.95 100.65 32.94 96.66 30.64 92.68 32.94 92.68 34.95 96.66 37.25 100.65 34.95"/><polygon class="cls-11" points="92.68 32.94 96.66 35.24 96.66 37.25 92.68 34.95 92.68 32.94"/><polygon class="cls-10" points="96.66 37.25 96.66 35.24 100.65 32.94 100.65 34.95 96.66 37.25"/><polygon class="cls-24" points="105.58 28.72 105.58 18.42 96.66 13.27 87.74 18.42 87.74 28.72 96.66 33.87 105.58 28.72"/><polygon class="cls-25" points="87.74 18.42 96.66 13.27 105.58 18.42 96.66 23.57 87.74 18.42"/><polygon class="cls-26" points="96.66 23.57 96.66 33.87 105.58 28.72 105.58 18.42 96.66 23.57"/><polygon class="cls-7" points="119.58 110.59 108.18 117.14 108.18 153.39 119.58 146.84 119.58 110.59"/><polygon class="cls-8" points="108.18 117.14 103.73 114.83 103.73 151.08 108.18 153.39 108.18 117.14"/><polygon class="cls-9" points="119.58 110.59 115.13 108.28 103.73 114.83 108.18 117.14 119.58 110.59"/><polygon class="cls-10" points="119.58 93.37 108.18 99.92 108.18 117.73 119.58 111.17 119.58 93.37"/><polygon class="cls-11" points="108.18 99.92 103.73 97.61 103.73 115.41 108.18 117.73 108.18 99.92"/><polygon class="cls-9" points="119.58 93.37 115.13 91.05 103.73 97.61 108.18 99.92 119.58 93.37"/></g></g></g></svg>