<svg xmlns="http://www.w3.org/2000/svg" viewBox="0 0 29.46 50"><defs><style>.cls-1{fill:#d8d8d8;}.cls-2{fill:#5d5e5e;}.cls-3{fill:#e16156;}.cls-4{fill:#838484;}.cls-5{fill:#fff;}</style></defs><title>5x7_dot-matrix</title><g id="Layer_2" data-name="Layer 2"><g id="ActionKit"><rect class="cls-1" y="7.51" width="29.46" height="42.49" rx="4" ry="4"/><rect class="cls-2" width="29.46" height="42.49" rx="4" ry="4"/><circle class="cls-3" cx="4.07" cy="37.41" r="1.95"/><circle class="cls-3" cx="4.07" cy="31.82" r="1.95"/><circle class="cls-3" cx="4.07" cy="26.24" r="1.95"/><circle class="cls-3" cx="4.07" cy="20.66" r="1.95"/><circle class="cls-3" cx="4.07" cy="15.08" r="1.95"/><circle class="cls-3" cx="4.07" cy="9.49" r="1.95"/><circle class="cls-3" cx="9.43" cy="20.66" r="1.95"/><circle class="cls-3" cx="9.43" cy="3.91" r="1.95"/><circle class="cls-3" cx="14.78" cy="20.66" r="1.95"/><circle class="cls-3" cx="14.78" cy="3.91" r="1.95"/><circle class="cls-3" cx="20.14" cy="20.66" r="1.95"/><circle class="cls-3" cx="20.14" cy="3.91" r="1.95"/><circle class="cls-3" cx="25.5" cy="37.41" r="1.95"/><circle class="cls-3" cx="25.5" cy="31.82" r="1.95"/><circle class="cls-3" cx="25.5" cy="26.24" r="1.95"/><circle class="cls-3" cx="25.5" cy="20.66" r="1.95"/><circle class="cls-3" cx="25.5" cy="15.08" r="1.95"/><circle class="cls-3" cx="25.5" cy="9.49" r="1.95"/><circle class="cls-4" cx="4.07" cy="3.91" r="1.95"/><circle class="cls-4" cx="9.43" cy="37.41" r="1.95"/><circle class="cls-4" cx="9.43" cy="31.82" r="1.95"/><circle class="cls-4" cx="9.43" cy="26.24" r="1.95"/><circle class="cls-4" cx="9.43" cy="15.08" r="1.95"/><circle class="cls-4" cx="9.43" cy="9.49" r="1.95"/><circle class="cls-4" cx="14.78" cy="37.41" r="1.95"/><circle class="cls-4" cx="14.78" cy="31.82" r="1.95"/><circle class="cls-4" cx="14.78" cy="26.24" r="1.95"/><circle class="cls-4" cx="14.78" cy="15.08" r="1.95"/><circle class="cls-4" cx="14.78" cy="9.49" r="1.95"/><circle class="cls-4" cx="20.14" cy="37.41" r="1.95"/><circle class="cls-4" cx="20.14" cy="31.82" r="1.95"/><circle class="cls-4" cx="20.14" cy="26.24" r="1.95"/><circle class="cls-4" cx="20.14" cy="15.08" r="1.95"/><circle class="cls-4" cx="20.14" cy="9.49" r="1.95"/><circle class="cls-4" cx="25.5" cy="3.91" r="1.95"/><rect class="cls-5" x="27.86" y="42.31" width="0.61" height="6.28"/></g></g></svg>