<svg xmlns="http://www.w3.org/2000/svg" viewBox="0 0 46.2 50"><defs><style>.cls-1{fill:#d8d8d8;}.cls-2{fill:#d18b29;}.cls-3{fill:#ffd839;}.cls-4{fill:#365769;}.cls-5{fill:#497ea2;}</style></defs><title>Gesture</title><g id="Layer_2" data-name="Layer 2"><g id="ActionKit"><path class="cls-1" d="M36,28a3.73,3.73,0,0,0-4.87.83l-3.33,3.33a.66.66,0,0,1-1.13-.47V10.66a2.86,2.86,0,0,0-2.61-2.91,2.74,2.74,0,0,0-2.86,2.73V25.19a.76.76,0,0,1-.76.76h0a.76.76,0,0,1-.76-.76V7.28A2.86,2.86,0,0,0,17.1,4.36,2.74,2.74,0,0,0,14.24,7.1V25.19a.76.76,0,0,1-.76.76h0a.76.76,0,0,1-.76-.76V10.66a2.86,2.86,0,0,0-2.61-2.91,2.74,2.74,0,0,0-2.86,2.73V25.06a.89.89,0,0,1-.89.89h0a.89.89,0,0,1-.89-.89V16.84a2.86,2.86,0,0,0-2.61-2.91A2.74,2.74,0,0,0,0,16.66V29H0v8.58A12.33,12.33,0,0,0,12.3,49.83H18a8.72,8.72,0,0,0,8.47-6.73,8,8,0,0,1,2.16-3.82l5.31-6.63C35.15,31.44,37.49,29.06,36,28Z"/><path class="cls-1" d="M45.93,33.84A3.73,3.73,0,0,0,41,33.25L36.89,35.5a.66.66,0,0,1-.95-.77l.86-2.9.78-2.63L41.9,14.54A2.86,2.86,0,0,0,40.22,11a2.74,2.74,0,0,0-3.52,1.81L32.54,26.92a.76.76,0,0,1-.94.51h0a.76.76,0,0,1-.51-.94L36.15,9.32a2.86,2.86,0,0,0-1.68-3.53A2.74,2.74,0,0,0,31,7.6L25.83,24.95a.76.76,0,0,1-.94.51h0a.76.76,0,0,1-.51-.94l4.11-13.94A2.86,2.86,0,0,0,26.81,7a2.74,2.74,0,0,0-3.52,1.81l-4.12,14a.89.89,0,0,1-1.11.6h0a.89.89,0,0,1-.6-1.11l2.33-7.88a2.86,2.86,0,0,0-1.68-3.53,2.74,2.74,0,0,0-3.52,1.81L11.11,24.53h0L8.69,32.76A12.33,12.33,0,0,0,17,48l5.48,1.62a8.72,8.72,0,0,0,10-4.06,8,8,0,0,1,3.15-3.06l7-4.85C44.12,36.86,47,35.24,45.93,33.84Z"/><path class="cls-2" d="M36,26a3.73,3.73,0,0,0-4.87.83l-3.33,3.33a.66.66,0,0,1-1.13-.47V8.6a2.86,2.86,0,0,0-2.61-2.91,2.74,2.74,0,0,0-2.86,2.73V23.13a.76.76,0,0,1-.76.76h0a.76.76,0,0,1-.76-.76V5.22A2.86,2.86,0,0,0,17.1,2.31,2.74,2.74,0,0,0,14.24,5V23.13a.76.76,0,0,1-.76.76h0a.76.76,0,0,1-.76-.76V8.6a2.86,2.86,0,0,0-2.61-2.91A2.74,2.74,0,0,0,7.25,8.43V23a.89.89,0,0,1-.89.89h0A.89.89,0,0,1,5.47,23V14.78a2.86,2.86,0,0,0-2.61-2.91A2.74,2.74,0,0,0,0,14.61V26.9H0v8.58A12.33,12.33,0,0,0,12.3,47.77H18A8.72,8.72,0,0,0,26.48,41a8,8,0,0,1,2.16-3.82l5.31-6.63C35.15,29.39,37.49,27,36,26Z"/><polygon class="cls-2" points="36.5 26.7 36.5 24.29 32.89 25.49 36.5 26.7"/><path class="cls-3" d="M36,23.67a3.73,3.73,0,0,0-4.87.83l-3.33,3.33a.66.66,0,0,1-1.13-.47V6.3a2.86,2.86,0,0,0-2.61-2.91,2.74,2.74,0,0,0-2.86,2.73V20.83a.76.76,0,0,1-.76.76h0a.76.76,0,0,1-.76-.76V2.92A2.86,2.86,0,0,0,17.1,0a2.74,2.74,0,0,0-2.86,2.73V20.83a.76.76,0,0,1-.76.76h0a.76.76,0,0,1-.76-.76V6.3a2.86,2.86,0,0,0-2.61-2.91A2.74,2.74,0,0,0,7.25,6.12V20.69a.89.89,0,0,1-.89.89h0a.89.89,0,0,1-.89-.89V12.48A2.86,2.86,0,0,0,2.86,9.56,2.74,2.74,0,0,0,0,12.3v12.3H0v8.58A12.33,12.33,0,0,0,12.3,45.47H18a8.72,8.72,0,0,0,8.47-6.73,8,8,0,0,1,2.16-3.82l5.31-6.63C35.15,27.08,37.49,24.7,36,23.67Z"/><path class="cls-4" d="M45.24,34.24a3.73,3.73,0,0,0-4.89-.71l-4.19,2.14a.66.66,0,0,1-.93-.79L36.16,32,37,29.39l4.7-14.55a2.86,2.86,0,0,0-1.59-3.57A2.74,2.74,0,0,0,36.54,13L32,27a.76.76,0,0,1-1,.49h0a.76.76,0,0,1-.49-1l5.5-17A2.86,2.86,0,0,0,34.49,5.9a2.74,2.74,0,0,0-3.56,1.72L25.38,24.84a.76.76,0,0,1-1,.49h0a.76.76,0,0,1-.49-1L28.4,10.55A2.86,2.86,0,0,0,26.8,7,2.74,2.74,0,0,0,23.24,8.7L18.76,22.57a.89.89,0,0,1-1.12.57h0A.89.89,0,0,1,17.07,22l2.52-7.82A2.86,2.86,0,0,0,18,10.63a2.74,2.74,0,0,0-3.56,1.72l-3.78,11.7h0L8,32.22A12.33,12.33,0,0,0,16,47.69l5.44,1.75a8.72,8.72,0,0,0,10.12-3.81,8,8,0,0,1,3.23-3L41.84,38C43.35,37.22,46.31,35.67,45.24,34.24Z"/><polygon class="cls-4" points="45.46 35.07 46.2 32.77 42.4 32.81 45.46 35.07"/><path class="cls-5" d="M45.95,32a3.73,3.73,0,0,0-4.89-.71l-4.19,2.14a.66.66,0,0,1-.93-.79l.93-2.88.84-2.61,4.7-14.55a2.86,2.86,0,0,0-1.59-3.57,2.74,2.74,0,0,0-3.56,1.72l-4.52,14a.76.76,0,0,1-1,.49h0a.76.76,0,0,1-.49-1l5.5-17A2.86,2.86,0,0,0,35.2,3.71a2.74,2.74,0,0,0-3.56,1.72L26.08,22.65a.76.76,0,0,1-1,.49h0a.76.76,0,0,1-.49-1L29.1,8.35a2.86,2.86,0,0,0-1.59-3.57A2.74,2.74,0,0,0,24,6.5L19.47,20.37a.89.89,0,0,1-1.12.57h0a.89.89,0,0,1-.57-1.12L20.3,12a2.86,2.86,0,0,0-1.59-3.57,2.74,2.74,0,0,0-3.56,1.72l-3.78,11.7h0L8.75,30A12.33,12.33,0,0,0,16.67,45.5l5.44,1.75a8.72,8.72,0,0,0,10.12-3.81,8,8,0,0,1,3.23-3l7.09-4.67C44.06,35,47,33.47,45.95,32Z"/></g></g></svg>