<svg xmlns="http://www.w3.org/2000/svg" viewBox="0 0 50 50"><defs><style>.cls-1{fill:#f4f4f5;}.cls-2{fill:#375869;}.cls-3{fill:#4a7ea2;}.cls-4{fill:#a01d21;}.cls-5{fill:#e16156;}.cls-6{fill:#d18b29;}.cls-7{fill:#ffd839;}</style></defs><title>Gyroscope</title><g id="Layer_2" data-name="Layer 2"><g id="ActionKit"><path class="cls-1" d="M25,43.42A17.85,17.85,0,1,1,42.85,25.57,17.87,17.87,0,0,1,25,43.42Z"/><path class="cls-2" d="M25,9.22A16.35,16.35,0,1,1,8.65,25.57,16.37,16.37,0,0,1,25,9.22m0-3A19.35,19.35,0,1,0,44.35,25.57,19.35,19.35,0,0,0,25,6.22Z"/><path class="cls-3" d="M25,7.87A16.35,16.35,0,1,1,8.65,24.22,16.37,16.37,0,0,1,25,7.87m0-3A19.35,19.35,0,1,0,44.35,24.22,19.35,19.35,0,0,0,25,4.87Z"/><ellipse class="cls-4" cx="25" cy="25.36" rx="6.88" ry="2.84"/><rect class="cls-4" x="18.12" y="24.4" width="13.76" height="0.97"/><ellipse class="cls-5" cx="25" cy="24.4" rx="6.88" ry="2.84"/><path class="cls-6" d="M25,20.52c7.07,0,11.59,3,11.59,5.12S32.07,30.77,25,30.77s-11.59-3-11.59-5.12S17.93,20.52,25,20.52m0-3c-8.06,0-14.59,3.64-14.59,8.12S16.94,33.77,25,33.77s14.59-3.64,14.59-8.12S33.06,17.52,25,17.52Z"/><path class="cls-7" d="M25,19.24c7.07,0,11.59,3,11.59,5.12S32.07,29.49,25,29.49s-11.59-3-11.59-5.12S17.93,19.24,25,19.24m0-3c-8.06,0-14.59,3.64-14.59,8.12S16.94,32.49,25,32.49s14.59-3.64,14.59-8.12S33.06,16.24,25,16.24Z"/><path class="cls-6" d="M25,14.24c2.09,0,5.12,4.51,5.12,11.59s-3,11.59-5.12,11.59-5.12-4.51-5.12-11.59,3-11.59,5.12-11.59m0-3c-4.49,0-8.12,6.53-8.12,14.59S20.51,40.41,25,40.41s8.12-6.53,8.12-14.59S29.49,11.24,25,11.24Z"/><path class="cls-7" d="M25,12.6c2.09,0,5.12,4.51,5.12,11.59s-3,11.59-5.12,11.59-5.12-4.51-5.12-11.59S22.91,12.6,25,12.6m0-3c-4.49,0-8.12,6.53-8.12,14.59S20.51,38.77,25,38.77s8.12-6.53,8.12-14.59S29.49,9.6,25,9.6Z"/><circle class="cls-1" cx="25" cy="24.37" r="1.35"/><circle class="cls-3" cx="25" cy="2.03" r="2.03"/><circle class="cls-3" cx="25" cy="47.97" r="2.03"/><circle class="cls-3" cx="2.03" cy="25" r="2.03"/><circle class="cls-3" cx="47.97" cy="25" r="2.03"/></g></g></svg>