<svg xmlns="http://www.w3.org/2000/svg" xmlns:xlink="http://www.w3.org/1999/xlink" viewBox="0 0 385.33 513.55"><defs><style>.cls-1{isolation:isolate;}.cls-2{fill:#bdd9be;}.cls-11,.cls-13,.cls-16,.cls-17,.cls-18,.cls-19,.cls-20,.cls-21,.cls-22,.cls-23,.cls-24,.cls-25,.cls-26,.cls-27,.cls-29,.cls-3,.cls-33,.cls-37,.cls-38,.cls-39,.cls-4,.cls-40,.cls-42,.cls-43,.cls-44,.cls-45,.cls-46,.cls-47,.cls-48,.cls-49,.cls-50,.cls-51,.cls-54,.cls-55,.cls-60,.cls-61,.cls-62,.cls-63,.cls-64,.cls-65,.cls-66,.cls-67,.cls-68,.cls-69,.cls-7,.cls-74,.cls-75,.cls-76,.cls-78,.cls-79,.cls-8,.cls-80,.cls-84,.cls-85,.cls-9{mix-blend-mode:multiply;}.cls-3{fill:url(#linear-gradient);}.cls-4{fill:url(#linear-gradient-2);}.cls-5{fill:#edeef3;}.cls-6{fill:url(#linear-gradient-3);}.cls-7{fill:url(#linear-gradient-4);}.cls-8{fill:url(#linear-gradient-5);}.cls-9{fill:url(#linear-gradient-6);}.cls-10{fill:#e16156;}.cls-11{fill:url(#linear-gradient-7);}.cls-12{fill:#a01d21;}.cls-13{fill:url(#linear-gradient-8);}.cls-14,.cls-72{fill:#d18b29;}.cls-15{fill:#ffd839;}.cls-16{fill:url(#linear-gradient-9);}.cls-17{fill:url(#linear-gradient-10);}.cls-18{fill:url(#linear-gradient-11);}.cls-19{fill:url(#linear-gradient-12);}.cls-20{fill:url(#linear-gradient-13);}.cls-21{fill:url(#linear-gradient-14);}.cls-22{fill:url(#linear-gradient-15);}.cls-23{fill:url(#linear-gradient-16);}.cls-24{fill:url(#linear-gradient-17);}.cls-25{fill:url(#linear-gradient-18);}.cls-26{fill:url(#linear-gradient-19);}.cls-27{fill:url(#linear-gradient-20);}.cls-28{fill:#365769;}.cls-30{fill:url(#linear-gradient-21);}.cls-31{fill:#497ea2;}.cls-32{fill:url(#linear-gradient-22);}.cls-33{fill:url(#linear-gradient-23);}.cls-34,.cls-35,.cls-56{fill:none;}.cls-34{stroke:#a01d21;}.cls-34,.cls-35,.cls-56,.cls-72{stroke-miterlimit:10;}.cls-34,.cls-35{stroke-width:3px;}.cls-35{stroke:#e16156;}.cls-36{fill:#454a62;}.cls-37{fill:url(#linear-gradient-24);}.cls-38{fill:url(#linear-gradient-25);}.cls-39{fill:url(#linear-gradient-26);}.cls-40{fill:url(#linear-gradient-27);}.cls-41{fill:#f4f4f5;}.cls-42{fill:url(#linear-gradient-28);}.cls-43{fill:url(#linear-gradient-29);}.cls-44{fill:url(#linear-gradient-30);}.cls-45{fill:url(#linear-gradient-31);}.cls-46{fill:url(#linear-gradient-32);}.cls-47{fill:url(#linear-gradient-33);}.cls-48{fill:url(#linear-gradient-34);}.cls-49{fill:url(#linear-gradient-35);}.cls-50{fill:url(#linear-gradient-36);}.cls-51{fill:url(#linear-gradient-37);}.cls-52{fill:#773a19;}.cls-53{fill:#4b2413;}.cls-54{fill:url(#linear-gradient-38);}.cls-55,.cls-58,.cls-80,.cls-85{opacity:0.5;}.cls-55{fill:url(#linear-gradient-39);}.cls-56{stroke:#454a62;}.cls-57{fill:url(#linear-gradient-40);}.cls-58{fill:url(#linear-gradient-41);}.cls-59{fill:url(#linear-gradient-42);}.cls-60{fill:url(#linear-gradient-43);}.cls-61{fill:url(#linear-gradient-44);}.cls-62{fill:url(#linear-gradient-45);}.cls-63{fill:url(#linear-gradient-46);}.cls-64{fill:url(#linear-gradient-47);}.cls-65{fill:url(#linear-gradient-48);}.cls-66{fill:url(#linear-gradient-49);}.cls-67{fill:url(#linear-gradient-50);}.cls-68{fill:url(#linear-gradient-51);}.cls-69{fill:url(#linear-gradient-52);}.cls-70{fill:#85858f;}.cls-71{fill:#292c38;}.cls-72{stroke:#ffd839;}.cls-73{fill:#fff;}.cls-74{fill:url(#linear-gradient-53);}.cls-75{fill:url(#linear-gradient-54);}.cls-76{fill:url(#linear-gradient-55);}.cls-77{fill:url(#linear-gradient-56);}.cls-78{fill:url(#linear-gradient-57);}.cls-79{fill:url(#linear-gradient-58);}.cls-80{fill:url(#linear-gradient-59);}.cls-81{fill:url(#linear-gradient-60);}.cls-82{fill:url(#linear-gradient-61);}.cls-83{fill:url(#linear-gradient-62);}.cls-84{fill:url(#linear-gradient-63);}.cls-85{fill:url(#linear-gradient-64);}</style><linearGradient id="linear-gradient" x1="272.39" y1="429.17" x2="385.33" y2="429.17" gradientUnits="userSpaceOnUse"><stop offset="0" stop-color="#fff" stop-opacity="0"/><stop offset="1" stop-opacity="0.6"/></linearGradient><linearGradient id="linear-gradient-2" x1="53.88" y1="438.17" x2="274.85" y2="438.17" xlink:href="#linear-gradient"/><linearGradient id="linear-gradient-3" x1="53.88" y1="417.3" x2="385.33" y2="417.3" gradientUnits="userSpaceOnUse"><stop offset="0" stop-color="#fff" stop-opacity="0"/><stop offset="1" stop-opacity="0.3"/></linearGradient><linearGradient id="linear-gradient-4" x1="225.33" y1="405.43" x2="385.33" y2="405.43" xlink:href="#linear-gradient"/><linearGradient id="linear-gradient-5" x1="37.93" y1="410.55" x2="225.33" y2="410.55" xlink:href="#linear-gradient"/><linearGradient id="linear-gradient-6" x1="274.27" y1="450.61" x2="237.65" y2="413.99" xlink:href="#linear-gradient"/><linearGradient id="linear-gradient-7" x1="161.35" y1="122.64" x2="161.35" y2="162.39" xlink:href="#linear-gradient"/><linearGradient id="linear-gradient-8" x1="151.41" y1="142.51" x2="191.16" y2="142.51" xlink:href="#linear-gradient"/><linearGradient id="linear-gradient-9" x1="87.11" y1="249.05" x2="183.81" y2="249.05" gradientTransform="translate(-69.86 444.42) rotate(-105.02)" xlink:href="#linear-gradient-3"/><linearGradient id="linear-gradient-10" x1="157.51" y1="285.47" x2="108.3" y2="236.26" xlink:href="#linear-gradient-3"/><linearGradient id="linear-gradient-11" x1="60.88" y1="206.31" x2="114.22" y2="206.31" gradientTransform="translate(100.45 429.97) rotate(-160.27)" xlink:href="#linear-gradient-3"/><linearGradient id="linear-gradient-12" x1="92.36" y1="153.7" x2="74.75" y2="136.1" gradientTransform="translate(205.38 256.73) rotate(163.04)" xlink:href="#linear-gradient-3"/><linearGradient id="linear-gradient-13" x1="76.54" y1="127.86" x2="92.83" y2="127.86" gradientTransform="translate(179.2 248.63) rotate(175.47)" xlink:href="#linear-gradient-3"/><linearGradient id="linear-gradient-14" x1="71.23" y1="134.94" x2="88.83" y2="152.55" gradientTransform="translate(198.15 255.49) rotate(163.04)" xlink:href="#linear-gradient-3"/><linearGradient id="linear-gradient-15" x1="42.72" y1="150.11" x2="70.77" y2="150.11" gradientTransform="translate(0.54 298.39) rotate(-139.22)" xlink:href="#linear-gradient-3"/><linearGradient id="linear-gradient-16" x1="40.02" y1="149.6" x2="54.13" y2="125.17" gradientTransform="translate(80.69 278.67) rotate(-174.47)" xlink:href="#linear-gradient-3"/><linearGradient id="linear-gradient-17" x1="39.86" y1="152.47" x2="67.91" y2="152.47" gradientTransform="translate(-6.03 300.67) rotate(-139.22)" xlink:href="#linear-gradient-3"/><linearGradient id="linear-gradient-18" x1="63.74" y1="162.54" x2="98.53" y2="162.54" gradientTransform="translate(109.3 342.02) rotate(-162.39)" xlink:href="#linear-gradient-3"/><linearGradient id="linear-gradient-19" x1="112.26" y1="233.33" x2="61.08" y2="182.14" xlink:href="#linear-gradient-3"/><linearGradient id="linear-gradient-20" x1="51.34" y1="166.48" x2="86.14" y2="166.48" gradientTransform="matrix(-0.95, -0.3, 0.3, -0.95, 83.9, 345.95)" xlink:href="#linear-gradient-3"/><linearGradient id="linear-gradient-21" x1="192.52" y1="301.5" x2="315.87" y2="301.5" xlink:href="#linear-gradient"/><linearGradient id="linear-gradient-22" x1="275.58" y1="220.58" x2="315.87" y2="220.58" xlink:href="#linear-gradient"/><linearGradient id="linear-gradient-23" x1="240.72" y1="347.51" x2="186.72" y2="293.5" xlink:href="#linear-gradient"/><linearGradient id="linear-gradient-24" x1="158.45" y1="121.75" x2="197.73" y2="121.75" xlink:href="#linear-gradient"/><linearGradient id="linear-gradient-25" x1="243.64" y1="145.8" x2="273.01" y2="94.93" xlink:href="#linear-gradient"/><linearGradient id="linear-gradient-26" x1="226.47" y1="170.57" x2="176.91" y2="121.01" xlink:href="#linear-gradient"/><linearGradient id="linear-gradient-27" x1="176.43" y1="100.46" x2="176.43" y2="143.05" xlink:href="#linear-gradient"/><linearGradient id="linear-gradient-28" x1="295.74" y1="169.44" x2="244.64" y2="118.34" xlink:href="#linear-gradient"/><linearGradient id="linear-gradient-29" x1="244.58" y1="100.46" x2="244.58" y2="143.05" xlink:href="#linear-gradient"/><linearGradient id="linear-gradient-30" x1="193.33" y1="160.24" x2="239.52" y2="186.91" xlink:href="#linear-gradient"/><linearGradient id="linear-gradient-31" x1="230.59" y1="184.13" x2="199.89" y2="153.43" xlink:href="#linear-gradient"/><linearGradient id="linear-gradient-32" x1="254.72" y1="215.06" x2="209.98" y2="170.32" xlink:href="#linear-gradient"/><linearGradient id="linear-gradient-33" x1="211.78" y1="205.4" x2="267.77" y2="205.4" xlink:href="#linear-gradient"/><linearGradient id="linear-gradient-34" x1="244.61" y1="219.55" x2="210.66" y2="185.6" xlink:href="#linear-gradient-3"/><linearGradient id="linear-gradient-35" x1="312.51" y1="169.34" x2="292.41" y2="149.24" xlink:href="#linear-gradient"/><linearGradient id="linear-gradient-36" x1="303.32" y1="122.64" x2="303.32" y2="162.39" xlink:href="#linear-gradient"/><linearGradient id="linear-gradient-37" x1="293.38" y1="142.51" x2="333.14" y2="142.51" xlink:href="#linear-gradient"/><linearGradient id="linear-gradient-38" x1="290.71" y1="311.65" x2="242.06" y2="263.01" xlink:href="#linear-gradient"/><linearGradient id="linear-gradient-39" x1="246.12" y1="273.9" x2="224.17" y2="251.95" xlink:href="#linear-gradient"/><linearGradient id="linear-gradient-40" x1="282.39" y1="290.69" x2="347.83" y2="290.69" gradientTransform="translate(187.44 -118.51) rotate(29.98)" xlink:href="#linear-gradient-3"/><linearGradient id="linear-gradient-41" x1="355.33" y1="317.15" x2="288.08" y2="249.91" xlink:href="#linear-gradient"/><linearGradient id="linear-gradient-42" x1="299.89" y1="336.02" x2="337.61" y2="373.73" gradientTransform="translate(-120.98 169.95) rotate(-25.27)" xlink:href="#linear-gradient-3"/><linearGradient id="linear-gradient-43" x1="285.7" y1="409.55" x2="270.6" y2="394.45" gradientTransform="translate(-207.88 457.75) rotate(-61.96)" xlink:href="#linear-gradient-3"/><linearGradient id="linear-gradient-44" x1="273.66" y1="425.7" x2="259.09" y2="411.13" xlink:href="#linear-gradient-3"/><linearGradient id="linear-gradient-45" x1="272.27" y1="397.76" x2="287.37" y2="412.86" gradientTransform="translate(-209.91 460.98) rotate(-61.96)" xlink:href="#linear-gradient-3"/><linearGradient id="linear-gradient-46" x1="310.71" y1="426.32" x2="290.87" y2="406.49" gradientTransform="translate(-29.9 23.24) rotate(-4.22)" xlink:href="#linear-gradient"/><linearGradient id="linear-gradient-47" x1="288.47" y1="422.59" x2="302.71" y2="436.83" gradientTransform="translate(-222.63 488.59) rotate(-61.96)" xlink:href="#linear-gradient-3"/><linearGradient id="linear-gradient-48" x1="301.58" y1="436.8" x2="293.13" y2="428.35" xlink:href="#linear-gradient-3"/><linearGradient id="linear-gradient-49" x1="294.57" y1="406.84" x2="314.4" y2="426.67" gradientTransform="translate(-29.92 23.51) rotate(-4.22)" xlink:href="#linear-gradient-3"/><linearGradient id="linear-gradient-50" x1="299.92" y1="403.71" x2="313.8" y2="417.6" xlink:href="#linear-gradient-3"/><linearGradient id="linear-gradient-51" x1="291.58" y1="384.04" x2="316.19" y2="408.65" gradientTransform="translate(-148.28 184.25) rotate(-27.39)" xlink:href="#linear-gradient-3"/><linearGradient id="linear-gradient-52" x1="292.84" y1="406.07" x2="281.55" y2="394.77" xlink:href="#linear-gradient-3"/><linearGradient id="linear-gradient-53" x1="88.44" y1="146.82" x2="74.91" y2="133.29" xlink:href="#linear-gradient-3"/><linearGradient id="linear-gradient-54" x1="98.27" y1="139.19" x2="83.06" y2="123.97" xlink:href="#linear-gradient-3"/><linearGradient id="linear-gradient-55" x1="97.6" y1="305.14" x2="182.82" y2="390.36" gradientTransform="translate(-126 611.8) rotate(-112.81)" xlink:href="#linear-gradient-3"/><linearGradient id="linear-gradient-56" x1="170.91" y1="392.78" x2="107.38" y2="329.25" xlink:href="#linear-gradient-3"/><linearGradient id="linear-gradient-57" x1="58.9" y1="338.45" x2="123.62" y2="403.17" gradientTransform="translate(-36.51 10.95) rotate(-5.72)" xlink:href="#linear-gradient-3"/><linearGradient id="linear-gradient-58" x1="9.62" y1="439.34" x2="113.25" y2="439.34" xlink:href="#linear-gradient"/><linearGradient id="linear-gradient-59" x1="77.02" y1="444.84" x2="100.87" y2="444.84" xlink:href="#linear-gradient"/><linearGradient id="linear-gradient-60" x1="173.68" y1="355.9" x2="255.15" y2="355.9" gradientTransform="translate(-30.54 691.51) rotate(-112.81)" xlink:href="#linear-gradient-3"/><linearGradient id="linear-gradient-61" x1="246.63" y1="403.14" x2="187.25" y2="343.75" xlink:href="#linear-gradient"/><linearGradient id="linear-gradient-62" x1="160.87" y1="386.35" x2="212.39" y2="386.35" gradientTransform="translate(69.46 -26.41) rotate(9.94)" xlink:href="#linear-gradient-3"/><linearGradient id="linear-gradient-63" x1="145.05" y1="467.2" x2="244.06" y2="467.2" xlink:href="#linear-gradient"/><linearGradient id="linear-gradient-64" x1="202.88" y1="457.87" x2="226.73" y2="457.87" gradientTransform="translate(258.59 -45.98) rotate(30.1)" xlink:href="#linear-gradient"/></defs><title>login-robot</title><g class="cls-1"><g id="Layer_2" data-name="Layer 2"><g id="login"><rect class="cls-2" x="53.88" y="426.3" width="220.96" height="23.73"/><polygon class="cls-2" points="385.33 432.03 272.39 450.03 272.39 426.3 385.33 408.3 385.33 432.03"/><polygon class="cls-3" points="385.33 432.03 272.39 450.03 272.39 426.3 385.33 408.3 385.33 432.03"/><rect class="cls-4" x="53.88" y="426.3" width="220.96" height="23.73"/><polygon class="cls-5" points="53.88 426.3 274.85 426.3 385.33 408.3 172.55 408.3 53.88 426.3"/><polygon class="cls-6" points="53.88 426.3 274.85 426.3 385.33 408.3 172.55 408.3 53.88 426.3"/><polygon class="cls-2" points="225.33 426.3 37.93 418.53 37.93 394.79 225.33 402.57 225.33 426.3"/><polygon class="cls-2" points="385.33 408.3 225.33 426.3 225.33 402.57 385.33 384.56 385.33 408.3"/><polygon class="cls-7" points="385.33 408.3 225.33 426.3 225.33 402.57 385.33 384.56 385.33 408.3"/><polygon class="cls-5" points="37.93 394.79 225.33 402.57 385.33 384.56 194.24 378.02 37.93 394.79"/><polygon class="cls-8" points="225.33 426.3 37.93 418.53 37.93 394.79 225.33 402.57 225.33 426.3"/><polygon class="cls-9" points="225.33 426.3 249.22 450.19 274.69 450.19 274.69 426.4 225.33 426.3"/><circle class="cls-10" cx="161.35" cy="142.51" r="19.88"/><rect class="cls-10" x="161.35" y="122.64" width="9.94" height="39.75"/><circle class="cls-11" cx="161.35" cy="142.51" r="19.88"/><circle class="cls-12" cx="171.29" cy="142.51" r="19.88"/><circle class="cls-13" cx="171.29" cy="142.51" r="19.88"/><polygon class="cls-14" points="235.64 43.39 244.1 0 239.41 0 212.87 43.94 217.57 43.94 224.65 43.94 216.19 87.33 220.89 87.33 247.42 43.39 235.64 43.39"/><polygon class="cls-15" points="242.72 43.39 230.95 43.39 239.41 0 212.87 43.94 224.65 43.94 216.19 87.33 242.72 43.39"/><path class="cls-2" d="M132.37,196.14h9.09a8.83,8.83,0,0,1,8.83,8.83v79.39a8.83,8.83,0,0,1-8.83,8.83h-9.09a9.3,9.3,0,0,1-9.3-9.3V205.44a9.3,9.3,0,0,1,9.3-9.3Z" transform="translate(408.4 176.06) rotate(105.02)"/><rect class="cls-2" x="133.75" y="198.65" width="4.5" height="97.04" transform="matrix(0.26, -0.97, 0.97, 0.26, -137.97, 314.46)"/><path class="cls-5" d="M131.2,200.48h9.09a8.83,8.83,0,0,1,8.83,8.83V288.7a8.83,8.83,0,0,1-8.83,8.83H131.2a9.3,9.3,0,0,1-9.3-9.3V209.78a9.3,9.3,0,0,1,9.3-9.3Z" transform="translate(411.13 182.66) rotate(105.02)"/><path class="cls-16" d="M131.2,200.48h9.09a8.83,8.83,0,0,1,8.83,8.83V288.7a8.83,8.83,0,0,1-8.83,8.83H131.2a9.3,9.3,0,0,1-9.3-9.3V209.78a9.3,9.3,0,0,1,9.3-9.3Z" transform="translate(411.13 182.66) rotate(105.02)"/><polygon class="cls-17" points="99.04 253.5 115 229.56 132.8 234.27 170.75 272.22 99.04 253.5"/><path class="cls-2" d="M87.54,156.21h9.09a8.83,8.83,0,0,1,8.83,8.83v79.39a8.83,8.83,0,0,1-8.83,8.83H87.54a9.3,9.3,0,0,1-9.3-9.3V165.51a9.3,9.3,0,0,1,9.3-9.3Z" transform="translate(247.44 366.42) rotate(160.27)"/><rect class="cls-2" x="87.15" y="157.09" width="4.5" height="97.04" transform="translate(-64.18 42.26) rotate(-19.73)"/><path class="cls-5" d="M83.31,157.73H92.4a8.83,8.83,0,0,1,8.83,8.83v79.39a8.83,8.83,0,0,1-8.83,8.83H83.31a9.3,9.3,0,0,1-9.3-9.3V167a9.3,9.3,0,0,1,9.3-9.3Z" transform="translate(239.73 370.8) rotate(160.27)"/><path class="cls-18" d="M83.31,157.73H92.4a8.83,8.83,0,0,1,8.83,8.83v79.39a8.83,8.83,0,0,1-8.83,8.83H83.31a9.3,9.3,0,0,1-9.3-9.3V167a9.3,9.3,0,0,1,9.3-9.3Z" transform="translate(239.73 370.8) rotate(160.27)"/><path class="cls-12" d="M77.94,129.78h14.8a0,0,0,0,1,0,0v23.95a4.93,4.93,0,0,1-4.93,4.93H82.87a4.93,4.93,0,0,1-4.93-4.93V129.78A0,0,0,0,1,77.94,129.78Z" transform="translate(124.9 307.05) rotate(-163.04)"/><path class="cls-10" d="M76.15,129.23H91a0,0,0,0,1,0,0v23.95A4.93,4.93,0,0,1,86,158.11H81.08a4.93,4.93,0,0,1-4.93-4.93V129.23A0,0,0,0,1,76.15,129.23Z" transform="translate(121.57 305.47) rotate(-163.04)"/><path class="cls-19" d="M76.15,129.23H91a0,0,0,0,1,0,0v23.95A4.93,4.93,0,0,1,86,158.11H81.08a4.93,4.93,0,0,1-4.93-4.93V129.23A0,0,0,0,1,76.15,129.23Z" transform="translate(121.57 305.47) rotate(-163.04)"/><rect class="cls-12" x="79.14" y="113.57" width="14.8" height="28.88" rx="4.93" ry="4.93" transform="translate(162.71 262.44) rotate(-175.47)"/><rect class="cls-10" x="77.28" y="113.42" width="14.8" height="28.88" rx="4.93" ry="4.93" transform="matrix(-1, -0.08, 0.08, -1, 159.01, 262)"/><rect class="cls-20" x="77.28" y="113.42" width="14.8" height="28.88" rx="4.93" ry="4.93" transform="matrix(-1, -0.08, 0.08, -1, 159.01, 262)"/><path class="cls-12" d="M74.41,128.62h14.8a0,0,0,0,1,0,0v23.95a4.93,4.93,0,0,1-4.93,4.93H79.34a4.93,4.93,0,0,1-4.93-4.93V128.62a0,0,0,0,1,0,0Z" transform="translate(118.34 303.76) rotate(-163.04)"/><path class="cls-10" d="M72.63,128.08h14.8a0,0,0,0,1,0,0V152A4.93,4.93,0,0,1,82.5,157H77.56A4.93,4.93,0,0,1,72.63,152V128.08A0,0,0,0,1,72.63,128.08Z" transform="translate(115.01 302.18) rotate(-163.04)"/><path class="cls-21" d="M72.63,128.08h14.8a0,0,0,0,1,0,0V152A4.93,4.93,0,0,1,82.5,157H77.56A4.93,4.93,0,0,1,72.63,152V128.08A0,0,0,0,1,72.63,128.08Z" transform="translate(115.01 302.18) rotate(-163.04)"/><path class="cls-12" d="M49.74,133.44h14.8a0,0,0,0,1,0,0v23.95a4.93,4.93,0,0,1-4.93,4.93H54.67a4.93,4.93,0,0,1-4.93-4.93V133.44a0,0,0,0,1,0,0Z" transform="translate(197.01 222.51) rotate(139.22)"/><path class="cls-10" d="M48.33,134.66h14.8a0,0,0,0,1,0,0V158.6a4.93,4.93,0,0,1-4.93,4.93H53.26a4.93,4.93,0,0,1-4.93-4.93V134.66A0,0,0,0,1,48.33,134.66Z" transform="translate(195.32 225.58) rotate(139.22)"/><path class="cls-22" d="M48.33,134.66h14.8a0,0,0,0,1,0,0V158.6a4.93,4.93,0,0,1-4.93,4.93H53.26a4.93,4.93,0,0,1-4.93-4.93V134.66A0,0,0,0,1,48.33,134.66Z" transform="translate(195.32 225.58) rotate(139.22)"/><rect class="cls-12" x="41.53" y="122.77" width="14.8" height="28.88" rx="4.93" ry="4.93" transform="translate(110.85 269.06) rotate(174.47)"/><rect class="cls-10" x="39.67" y="122.95" width="14.8" height="28.88" rx="4.93" ry="4.93" transform="translate(107.17 269.59) rotate(174.47)"/><rect class="cls-23" x="39.67" y="122.95" width="14.8" height="28.88" rx="4.93" ry="4.93" transform="translate(107.17 269.59) rotate(174.47)"/><path class="cls-12" d="M46.89,135.8h14.8a0,0,0,0,1,0,0v23.95a4.93,4.93,0,0,1-4.93,4.93H51.81a4.93,4.93,0,0,1-4.93-4.93V135.8a0,0,0,0,1,0,0Z" transform="translate(193.53 228.53) rotate(139.22)"/><path class="cls-10" d="M45.47,137h14.8a0,0,0,0,1,0,0V161a4.93,4.93,0,0,1-4.93,4.93H50.4A4.93,4.93,0,0,1,45.47,161V137A0,0,0,0,1,45.47,137Z" transform="translate(191.84 231.6) rotate(139.22)"/><path class="cls-24" d="M45.47,137h14.8a0,0,0,0,1,0,0V161a4.93,4.93,0,0,1-4.93,4.93H50.4A4.93,4.93,0,0,1,45.47,161V137A0,0,0,0,1,45.47,137Z" transform="translate(191.84 231.6) rotate(139.22)"/><rect class="cls-12" x="66.36" y="151.6" width="29.56" height="21.89" transform="matrix(-0.95, 0.3, -0.3, -0.95, 207.64, 292.93)"/><rect class="cls-25" x="66.36" y="151.6" width="29.56" height="21.89" transform="matrix(-0.95, 0.3, -0.3, -0.95, 207.64, 292.93)"/><rect class="cls-10" x="53.96" y="155.53" width="29.56" height="21.89" transform="translate(184.62 304.36) rotate(162.39)"/><path class="cls-26" d="M63.61,179.6l26.23-8.35,3.07,10.23v71.2a9.56,9.56,0,0,1-5.22-5.63Z"/><rect class="cls-27" x="53.96" y="155.53" width="29.56" height="21.89" transform="translate(184.62 304.36) rotate(162.39)"/><rect class="cls-28" x="192.52" y="211.5" width="123.35" height="180" rx="17.07" ry="17.07"/><g class="cls-29"><rect class="cls-30" x="192.52" y="211.5" width="123.35" height="180" rx="17.07" ry="17.07"/></g><rect class="cls-31" x="152.06" y="211.5" width="123.35" height="180" rx="17.07" ry="17.07"/><path class="cls-10" d="M315.57,229.65H152.06v-6.06a12.09,12.09,0,0,1,12.09-12.09H303.48a12.09,12.09,0,0,1,12.09,12.09Z"/><path class="cls-15" d="M275.41,229.65H152.06v-6.06a12.09,12.09,0,0,1,12.09-12.09h99.18a12.09,12.09,0,0,1,12.09,12.09Z"/><path class="cls-14" d="M315.87,229.65H275.58v-6.06a12.09,12.09,0,0,1,12.09-12.09h16.12a12.09,12.09,0,0,1,12.09,12.09Z"/><g class="cls-29"><path class="cls-32" d="M287.67,211.5h16.12a12.09,12.09,0,0,1,12.09,12.09v6.06a0,0,0,0,1,0,0H275.58a0,0,0,0,1,0,0v-6.06A12.09,12.09,0,0,1,287.67,211.5Z"/></g><rect class="cls-2" x="172.29" y="304.85" width="82.86" height="31.3" rx="5.25" ry="5.25"/><rect class="cls-33" x="172.29" y="304.85" width="82.86" height="31.3" rx="5.25" ry="5.25"/><rect class="cls-34" x="172.29" y="304.85" width="82.86" height="31.3" rx="5.25" ry="5.25"/><rect class="cls-35" x="170.45" y="303.01" width="82.86" height="31.3" rx="5.25" ry="5.25"/><rect class="cls-36" x="177.66" y="318.78" width="69.66" height="1.38"/><rect class="cls-36" x="179.35" y="321.62" width="0.92" height="3.53" transform="translate(359.61 646.77) rotate(180)"/><rect class="cls-36" x="182.9" y="313.62" width="0.92" height="3.53" transform="translate(366.72 630.78) rotate(180)"/><rect class="cls-36" x="186.46" y="321.62" width="0.92" height="3.53" transform="translate(373.83 646.77) rotate(180)"/><rect class="cls-36" x="190.01" y="313.62" width="0.92" height="3.53" transform="translate(380.94 630.78) rotate(180)"/><rect class="cls-36" x="193.57" y="321.62" width="0.92" height="3.53" transform="translate(388.05 646.77) rotate(180)"/><rect class="cls-36" x="197.12" y="313.62" width="0.92" height="3.53" transform="translate(395.16 630.78) rotate(180)"/><rect class="cls-36" x="200.68" y="321.62" width="0.92" height="3.53" transform="translate(402.27 646.77) rotate(180)"/><rect class="cls-36" x="204.23" y="313.62" width="0.92" height="3.53" transform="translate(409.38 630.78) rotate(180)"/><rect class="cls-36" x="207.79" y="321.62" width="0.92" height="3.53" transform="translate(416.49 646.77) rotate(180)"/><rect class="cls-36" x="211.34" y="313.62" width="0.92" height="3.53" transform="translate(423.6 630.78) rotate(180)"/><rect class="cls-36" x="214.9" y="321.62" width="0.92" height="3.53" transform="translate(430.71 646.77) rotate(180)"/><rect class="cls-36" x="218.45" y="313.62" width="0.92" height="3.53" transform="translate(437.82 630.78) rotate(180)"/><rect class="cls-36" x="222" y="321.62" width="0.92" height="3.53" transform="translate(444.93 646.77) rotate(180)"/><rect class="cls-36" x="225.56" y="313.62" width="0.92" height="3.53" transform="translate(452.04 630.78) rotate(180)"/><rect class="cls-36" x="229.11" y="321.62" width="0.92" height="3.53" transform="translate(459.15 646.77) rotate(180)"/><rect class="cls-36" x="232.67" y="313.62" width="0.92" height="3.53" transform="translate(466.26 630.78) rotate(180)"/><rect class="cls-36" x="236.22" y="321.62" width="0.92" height="3.53" transform="translate(473.37 646.77) rotate(180)"/><rect class="cls-36" x="239.78" y="313.62" width="0.92" height="3.53" transform="translate(480.48 630.78) rotate(180)"/><rect class="cls-36" x="243.33" y="321.62" width="0.92" height="3.53" transform="translate(487.59 646.77) rotate(180)"/><rect class="cls-28" x="184" y="76.27" width="123.35" height="123.35" rx="17.07" ry="17.07"/><rect class="cls-31" x="159.15" y="76.27" width="123.35" height="123.35" rx="17.07" ry="17.07"/><path class="cls-37" d="M176.43,100.46H158.87l-.09,9.39-.23,23.45-.09,9.75h18a21.3,21.3,0,0,0,0-42.59Z"/><path class="cls-38" d="M282.59,100.46h-38a21.3,21.3,0,1,0,0,42.59h38.18Z"/><path class="cls-39" d="M189.51,161.8,170.76,143,191,106.91l49.56,49.56h-51.4S189.51,161.15,189.51,161.8Z"/><circle class="cls-2" cx="176.43" cy="121.75" r="21.3"/><rect class="cls-2" x="170.76" y="100.46" width="5.68" height="42.59"/><circle class="cls-40" cx="176.43" cy="121.75" r="21.3"/><circle class="cls-5" cx="170.76" cy="121.75" r="21.3"/><circle class="cls-36" cx="170.76" cy="121.75" r="14.91"/><circle class="cls-41" cx="175.72" cy="118.2" r="5.68"/><path class="cls-14" d="M170.76,103.46a18.3,18.3,0,1,1-18.3,18.3,18.32,18.32,0,0,1,18.3-18.3m0-3a21.3,21.3,0,1,0,21.3,21.3,21.3,21.3,0,0,0-21.3-21.3Z"/><path class="cls-15" d="M168.56,103.46a18.3,18.3,0,1,1-18.3,18.3,18.32,18.32,0,0,1,18.3-18.3m0-3a21.3,21.3,0,1,0,21.3,21.3,21.3,21.3,0,0,0-21.3-21.3Z"/><polygon class="cls-42" points="282.77 129.93 257.91 105.07 242.57 142.82 282.46 182.71 282.77 129.93"/><circle class="cls-2" cx="244.58" cy="121.75" r="21.3"/><rect class="cls-2" x="238.9" y="100.46" width="5.68" height="42.59"/><circle class="cls-43" cx="244.58" cy="121.75" r="21.3"/><circle class="cls-5" cx="238.9" cy="121.75" r="21.3"/><circle class="cls-36" cx="238.9" cy="121.75" r="14.91"/><circle class="cls-41" cx="243.87" cy="118.2" r="5.68"/><path class="cls-12" d="M238.9,103.46a18.3,18.3,0,1,1-18.3,18.3,18.32,18.32,0,0,1,18.3-18.3m0-3a21.3,21.3,0,1,0,21.3,21.3,21.3,21.3,0,0,0-21.3-21.3Z"/><path class="cls-10" d="M236.45,103.46a18.3,18.3,0,1,1-18.3,18.3,18.32,18.32,0,0,1,18.3-18.3m0-3a21.3,21.3,0,1,0,21.3,21.3,21.3,21.3,0,0,0-21.3-21.3Z"/><rect class="cls-12" x="195.6" y="156.3" width="41.65" height="34.55"/><rect class="cls-44" x="195.6" y="156.3" width="41.65" height="34.55"/><rect class="cls-12" x="189.45" y="156.3" width="41.65" height="34.55"/><rect class="cls-10" x="189.45" y="156.3" width="41.65" height="7.57"/><rect class="cls-10" x="189.45" y="183.51" width="41.65" height="7.57"/><path class="cls-45" d="M189.45,163.87l19.76,19.76h21.89V163.75S189.45,163.51,189.45,163.87Z"/><path class="cls-46" d="M189.45,190.84l8.73,8.73h66a19.94,19.94,0,0,0,11.21-5.16L237.25,156.3v34.78h-47.8"/><rect class="cls-2" x="211.78" y="199.6" width="55.99" height="11.59"/><rect class="cls-47" x="211.78" y="199.6" width="55.99" height="11.59"/><rect class="cls-5" x="196.67" y="199.6" width="55.99" height="11.59"/><polygon class="cls-48" points="196.67 199.6 208.56 211.5 252.66 211.5 252.66 199.6 196.67 199.6"/><polygon class="cls-49" points="307.37 174.48 287.27 154.38 307.42 153.97 307.37 174.48"/><circle class="cls-10" cx="303.32" cy="142.51" r="19.88"/><rect class="cls-10" x="303.32" y="122.64" width="9.94" height="39.75"/><circle class="cls-50" cx="303.32" cy="142.51" r="19.88"/><circle class="cls-12" cx="313.26" cy="142.51" r="19.88"/><circle class="cls-51" cx="313.26" cy="142.51" r="19.88"/><path class="cls-52" d="M313.26,128.71c-.45,0-.89,0-1.33.07a13.8,13.8,0,0,1,0,27.47c.44,0,.88.07,1.33.07a13.8,13.8,0,1,0,0-27.61Z"/><path class="cls-53" d="M324.4,142.51a12.53,12.53,0,1,0-12.47,13.74A13.8,13.8,0,0,0,324.4,142.51Z"/><polygon class="cls-54" points="275.25 266.34 256.99 248.08 234.22 285.02 275.78 326.57 275.25 266.34"/><circle class="cls-12" cx="240.8" cy="262.92" r="22.09"/><rect class="cls-12" x="234.22" y="240.83" width="6.58" height="44.19"/><circle class="cls-10" cx="234.22" cy="262.92" r="22.09"/><circle class="cls-12" cx="234.22" cy="262.92" r="17.62"/><circle class="cls-5" cx="235.14" cy="262.92" r="15.52"/><circle class="cls-55" cx="235.14" cy="262.92" r="15.52"/><path class="cls-56" d="M224.23,262.92a11,11,0,0,1,22.09,0"/><path class="cls-56" d="M230.63,262.92a4.65,4.65,0,0,1,9.29,0"/><line class="cls-56" x1="230.63" y1="262.92" x2="224.23" y2="262.92"/><line class="cls-56" x1="239.92" y1="262.92" x2="246.32" y2="262.92"/><polygon class="cls-12" points="235.5 256.29 234.1 263.19 236.9 263.19 235.5 256.29"/><polygon class="cls-12" points="235.5 256.29 235.19 256.29 233.79 263.19 234.1 263.19 235.5 256.29"/><polygon class="cls-10" points="235.19 256.29 233.79 263.19 236.59 263.19 235.19 256.29"/><line class="cls-56" x1="235.28" y1="251.88" x2="235.28" y2="254.7"/><rect class="cls-36" x="224.36" y="267.4" width="22.42" height="0.85"/><rect class="cls-36" x="234.95" y="268.58" width="0.72" height="2.37"/><rect class="cls-12" x="241.79" y="265.88" width="1.51" height="3.42"/><rect class="cls-10" x="241.29" y="265.88" width="1.51" height="3.42"/><rect class="cls-10" x="241.52" y="265.88" width="1.51" height="3.42"/><rect class="cls-28" x="164.72" y="246.69" width="3.37" height="34.61"/><rect class="cls-28" x="164.72" y="246.69" width="3.37" height="34.61"/><rect class="cls-36" x="166.05" y="246.69" width="2.04" height="34.61"/><rect class="cls-28" x="170.31" y="246.69" width="3.37" height="34.61"/><rect class="cls-36" x="171.64" y="246.69" width="2.04" height="34.61"/><rect class="cls-28" x="175.9" y="246.69" width="3.37" height="34.61"/><rect class="cls-36" x="177.23" y="246.69" width="2.04" height="34.61"/><rect class="cls-28" x="181.49" y="246.69" width="3.37" height="34.61"/><rect class="cls-36" x="182.82" y="246.69" width="2.04" height="34.61"/><rect class="cls-28" x="187.08" y="246.69" width="3.37" height="34.61"/><rect class="cls-36" x="188.41" y="246.69" width="2.04" height="34.61"/><rect class="cls-28" x="192.67" y="246.69" width="3.37" height="34.61"/><rect class="cls-36" x="194" y="246.69" width="2.04" height="34.61"/><rect class="cls-28" x="198.26" y="246.69" width="3.37" height="34.61"/><rect class="cls-36" x="199.59" y="246.69" width="2.04" height="34.61"/><rect class="cls-31" x="285.28" y="245.74" width="24.14" height="44.01" rx="8.04" ry="8.04"/><rect class="cls-36" x="285.28" y="245.74" width="21.77" height="44.01" rx="7.25" ry="7.25"/><path class="cls-2" d="M306.82,244.5h9.09a8.83,8.83,0,0,1,8.83,8.83v79.39a8.83,8.83,0,0,1-8.83,8.83h-9.09a9.3,9.3,0,0,1-9.3-9.3V253.8a9.3,9.3,0,0,1,9.3-9.3Z" transform="translate(-104.79 194.66) rotate(-29.98)"/><rect class="cls-2" x="311.13" y="243.2" width="4.5" height="97.04" transform="translate(-103.84 195.62) rotate(-29.98)"/><path class="cls-5" d="M310.71,242.25h9.09a8.83,8.83,0,0,1,8.83,8.83v79.39a8.83,8.83,0,0,1-8.83,8.83h-9.09a9.3,9.3,0,0,1-9.3-9.3V251.56A9.3,9.3,0,0,1,310.71,242.25Z" transform="translate(-103.15 196.31) rotate(-29.98)"/><path class="cls-57" d="M310.71,242.25h9.09a8.83,8.83,0,0,1,8.83,8.83v79.39a8.83,8.83,0,0,1-8.83,8.83h-9.09a9.3,9.3,0,0,1-9.3-9.3V251.56A9.3,9.3,0,0,1,310.71,242.25Z" transform="translate(-103.15 196.31) rotate(-29.98)"/><path class="cls-58" d="M308,251.33c-6.26-9.31-14.8-4-14.8-4l-6,3.45c-7.49,7.16-2.5,14.62-2.5,14.62l61.17,61.17a10.33,10.33,0,0,0-.23-10C342.61,311.3,308,251.33,308,251.33Z"/><path class="cls-2" d="M310.28,304.43h9.09a8.83,8.83,0,0,1,8.83,8.83v79.39a8.83,8.83,0,0,1-8.83,8.83h-9.09a9.3,9.3,0,0,1-9.3-9.3V313.73A9.3,9.3,0,0,1,310.28,304.43Z" transform="translate(180.74 -100.51) rotate(25.27)"/><rect class="cls-2" x="268.42" y="351.82" width="97.04" height="4.5" transform="translate(-138.53 489.57) rotate(-64.73)"/><path class="cls-5" d="M314.35,306.35h9.09a8.83,8.83,0,0,1,8.83,8.83v79.39a8.83,8.83,0,0,1-8.83,8.83h-9.09a9.3,9.3,0,0,1-9.3-9.3V315.65a9.3,9.3,0,0,1,9.3-9.3Z" transform="translate(181.95 -102.06) rotate(25.27)"/><path class="cls-59" d="M314.35,306.35h9.09a8.83,8.83,0,0,1,8.83,8.83v79.39a8.83,8.83,0,0,1-8.83,8.83h-9.09a9.3,9.3,0,0,1-9.3-9.3V315.65a9.3,9.3,0,0,1,9.3-9.3Z" transform="translate(181.95 -102.06) rotate(25.27)"/><path class="cls-12" d="M269,385.91h14.8a0,0,0,0,1,0,0v23.95a4.93,4.93,0,0,1-4.93,4.93h-4.94a4.93,4.93,0,0,1-4.93-4.93V385.91a0,0,0,0,1,0,0Z" transform="translate(499.82 -31.82) rotate(61.96)"/><path class="cls-10" d="M269.88,387.56h14.8a0,0,0,0,1,0,0v23.95a4.93,4.93,0,0,1-4.93,4.93h-4.94a4.93,4.93,0,0,1-4.93-4.93V387.56A0,0,0,0,1,269.88,387.56Z" transform="translate(501.74 -31.72) rotate(61.96)"/><path class="cls-60" d="M269.88,387.56h14.8a0,0,0,0,1,0,0v23.95a4.93,4.93,0,0,1-4.93,4.93h-4.94a4.93,4.93,0,0,1-4.93-4.93V387.56A0,0,0,0,1,269.88,387.56Z" transform="translate(501.74 -31.72) rotate(61.96)"/><rect class="cls-12" x="259.16" y="400.22" width="14.8" height="28.88" rx="4.93" ry="4.93" transform="translate(132.54 -59.72) rotate(16.96)"/><rect class="cls-10" x="260.95" y="400.77" width="14.8" height="28.88" rx="4.93" ry="4.93" transform="translate(132.78 -60.22) rotate(16.96)"/><path class="cls-61" d="M264,406.24l-.07,22.67,1.52.49a6.09,6.09,0,0,0,7.55-4l3.11-10.23Z"/><path class="cls-12" d="M270.68,389.22h14.8a0,0,0,0,1,0,0v23.95a4.93,4.93,0,0,1-4.93,4.93h-4.94a4.93,4.93,0,0,1-4.93-4.93V389.22A0,0,0,0,1,270.68,389.22Z" transform="translate(503.63 -31.54) rotate(61.96)"/><path class="cls-10" d="M271.56,390.87h14.8a0,0,0,0,1,0,0v23.95a4.93,4.93,0,0,1-4.93,4.93h-4.94a4.93,4.93,0,0,1-4.93-4.93V390.87A0,0,0,0,1,271.56,390.87Z" transform="translate(505.54 -31.44) rotate(61.96)"/><path class="cls-62" d="M271.56,390.87h14.8a0,0,0,0,1,0,0v23.95a4.93,4.93,0,0,1-4.93,4.93h-4.94a4.93,4.93,0,0,1-4.93-4.93V390.87A0,0,0,0,1,271.56,390.87Z" transform="translate(505.54 -31.44) rotate(61.96)"/><path class="cls-12" d="M291.53,403.26h14.8a0,0,0,0,1,0,0v23.95a4.93,4.93,0,0,1-4.93,4.93h-4.94a4.93,4.93,0,0,1-4.93-4.93V403.26a0,0,0,0,1,0,0Z" transform="translate(31.51 -20.84) rotate(4.22)"/><path class="cls-10" d="M293.39,403.4h14.8a0,0,0,0,1,0,0v23.95a4.93,4.93,0,0,1-4.93,4.93h-4.94a4.93,4.93,0,0,1-4.93-4.93V403.4A0,0,0,0,1,293.39,403.4Z" transform="translate(31.53 -20.98) rotate(4.22)"/><path class="cls-63" d="M293.39,403.4h14.8a0,0,0,0,1,0,0v23.95a4.93,4.93,0,0,1-4.93,4.93h-4.94a4.93,4.93,0,0,1-4.93-4.93V403.4A0,0,0,0,1,293.39,403.4Z" transform="translate(31.53 -20.98) rotate(4.22)"/><rect class="cls-12" x="287.31" y="413.62" width="14.8" height="28.88" rx="4.93" ry="4.93" transform="matrix(0.47, 0.88, -0.88, 0.47, 533.98, -33.29)"/><rect class="cls-10" x="288.19" y="415.27" width="14.8" height="28.88" rx="4.93" ry="4.93" transform="translate(535.89 -33.19) rotate(61.96)"/><rect class="cls-64" x="288.19" y="415.27" width="14.8" height="28.88" rx="4.93" ry="4.93" transform="translate(535.89 -33.19) rotate(61.96)"/><polygon class="cls-65" points="294.71 426.77 294.71 438.5 305.86 432.52 294.71 426.77"/><path class="cls-12" d="M295.22,403.61H310a0,0,0,0,1,0,0v23.95a4.93,4.93,0,0,1-4.93,4.93h-4.94a4.93,4.93,0,0,1-4.93-4.93V403.61A0,0,0,0,1,295.22,403.61Z" transform="translate(31.55 -21.11) rotate(4.22)"/><path class="cls-10" d="M297.08,403.75h14.8a0,0,0,0,1,0,0V427.7a4.93,4.93,0,0,1-4.93,4.93H302a4.93,4.93,0,0,1-4.93-4.93V403.75a0,0,0,0,1,0,0Z" transform="translate(31.56 -21.25) rotate(4.22)"/><path class="cls-66" d="M297.08,403.75h14.8a0,0,0,0,1,0,0V427.7a4.93,4.93,0,0,1-4.93,4.93H302a4.93,4.93,0,0,1-4.93-4.93V403.75a0,0,0,0,1,0,0Z" transform="translate(31.56 -21.25) rotate(4.22)"/><polygon class="cls-67" points="297.96 405.67 311.85 419.56 312.38 412.27 297.96 405.67"/><rect class="cls-12" x="277.56" y="379.42" width="29.56" height="21.89" transform="translate(212.37 -90.73) rotate(27.39)"/><rect class="cls-10" x="289.1" y="385.4" width="29.56" height="21.89" transform="translate(216.42 -95.37) rotate(27.39)"/><rect class="cls-68" x="289.1" y="385.4" width="29.56" height="21.89" transform="translate(216.42 -95.37) rotate(27.39)"/><polygon class="cls-69" points="292.32 406.59 292.61 402.75 280.01 396.31 290.98 407.28 292.32 406.59"/><polygon class="cls-28" points="104.22 101.4 101.52 98.96 112.72 86.54 47.71 27.96 0 80.9 65.01 139.48 66.63 137.68 69.33 140.12 104.22 101.4"/><polygon class="cls-28" points="104.22 101.4 104.41 98.3 102.78 100.1 104.22 101.4"/><polygon class="cls-28" points="112.72 86.54 112.9 83.44 111.28 85.24 112.72 86.54"/><path class="cls-28" d="M0,80.9"/><polygon class="cls-28" points="0 80.9 0.18 77.8 1.62 79.1 0 80.9"/><polygon class="cls-31" points="104.41 98.3 101.7 95.86 112.9 83.44 47.89 24.86 0.18 77.8 65.19 136.38 66.81 134.58 69.52 137.02 104.41 98.3"/><rect class="cls-70" x="38.24" y="93.23" width="48.32" height="2.46" transform="translate(79.28 -17.48) rotate(42.02)"/><rect class="cls-71" x="36.69" y="94.94" width="48.32" height="2.46" transform="translate(80.03 -16.01) rotate(42.02)"/><rect class="cls-71" x="38.64" y="92.98" width="48.32" height="2.06" transform="translate(79.08 -17.87) rotate(42.02)"/><rect class="cls-70" x="33.73" y="94.77" width="48.32" height="9.37" transform="translate(81.47 -13.18) rotate(42.02)"/><rect class="cls-70" x="28.53" y="104" width="48.32" height="2.46" transform="translate(83.99 -8.21) rotate(42.02)"/><rect class="cls-71" x="26.99" y="105.71" width="48.32" height="2.46" transform="translate(84.74 -6.74) rotate(42.02)"/><rect class="cls-36" x="28.93" y="103.76" width="48.32" height="2.06" transform="translate(83.8 -8.6) rotate(42.02)"/><rect class="cls-70" x="31.06" y="61.07" width="15.03" height="6.67" rx="2.22" ry="2.22" transform="translate(53.03 -9.26) rotate(42.02)"/><rect class="cls-5" x="31.82" y="61.26" width="14.06" height="5.7" rx="1.9" ry="1.9" transform="translate(52.9 -9.52) rotate(42.02)"/><rect class="cls-36" x="57.51" y="53.52" width="29.57" height="7.76" transform="translate(57.01 -33.64) rotate(42.02)"/><rect class="cls-71" x="53.4" y="59.62" width="29.57" height="4.69" transform="translate(59.01 -29.71) rotate(42.02)"/><rect class="cls-71" x="76.21" y="80.17" width="29.57" height="4.69" transform="translate(78.64 -39.7) rotate(42.02)"/><rect class="cls-71" x="61.69" y="47.57" width="5.49" height="5.49" transform="translate(50.25 -30.2) rotate(42.02)"/><rect class="cls-71" x="66.97" y="52.33" width="5.49" height="5.49" transform="translate(54.79 -32.51) rotate(42.02)"/><rect class="cls-71" x="72.25" y="57.09" width="5.49" height="5.49" transform="translate(59.34 -34.82) rotate(42.02)"/><rect class="cls-71" x="77.53" y="61.85" width="5.49" height="5.49" transform="translate(63.88 -37.13) rotate(42.02)"/><rect class="cls-36" x="80.32" y="74.08" width="29.57" height="7.76" transform="translate(76.64 -43.62) rotate(42.02)"/><rect class="cls-71" x="84.5" y="68.12" width="5.49" height="5.49" transform="translate(69.87 -40.18) rotate(42.02)"/><rect class="cls-71" x="89.78" y="72.88" width="5.49" height="5.49" transform="translate(74.42 -42.49) rotate(42.02)"/><rect class="cls-71" x="95.06" y="77.64" width="5.49" height="5.49" transform="translate(78.96 -44.81) rotate(42.02)"/><rect class="cls-71" x="100.34" y="82.4" width="5.49" height="5.49" transform="matrix(0.74, 0.67, -0.67, 0.74, 83.51, -47.12)"/><circle class="cls-72" cx="56.2" cy="64.76" r="2.18" transform="translate(-29.53 63.16) rotate(-47.98)"/><circle class="cls-72" cx="60.71" cy="68.82" r="2.18" transform="translate(-31.06 67.85) rotate(-47.98)"/><circle class="cls-72" cx="52.15" cy="69.26" r="2.18" transform="translate(-34.22 61.64) rotate(-47.98)"/><circle class="cls-72" cx="56.65" cy="73.32" r="2.18" transform="translate(-35.74 66.32) rotate(-47.98)"/><circle class="cls-70" cx="29.08" cy="81.1" r="4.61" transform="translate(-50.64 48.41) rotate(-47.98)"/><circle class="cls-5" cx="34.11" cy="75.52" r="4.61" transform="translate(-44.83 50.3) rotate(-47.98)"/><rect class="cls-70" x="27.83" y="73.71" width="7.51" height="9.21" transform="translate(-47.73 49.36) rotate(-47.98)"/><path class="cls-5" d="M34.11,71.92h0a3.61,3.61,0,1,1-2.68,1.19,3.6,3.6,0,0,1,2.68-1.19m0-1a4.61,4.61,0,1,0,3.08,1.18,4.6,4.6,0,0,0-3.08-1.18Z"/><circle class="cls-70" cx="20.61" cy="73.48" r="4.61" transform="translate(-47.77 39.6) rotate(-47.98)"/><circle class="cls-5" cx="25.64" cy="67.89" r="4.61" transform="translate(-41.96 41.49) rotate(-47.98)"/><rect class="cls-70" x="19.37" y="66.08" width="7.51" height="9.21" transform="translate(-44.87 40.55) rotate(-47.98)"/><path class="cls-5" d="M25.64,64.29h0A3.61,3.61,0,1,1,23,65.48a3.6,3.6,0,0,1,2.68-1.19m0-1a4.61,4.61,0,1,0,3.08,1.18,4.59,4.59,0,0,0-3.08-1.18Z"/><rect class="cls-71" x="29.7" y="102.7" width="48.32" height="2.46" transform="translate(83.42 -9.34) rotate(42.02)"/><rect class="cls-36" x="35.19" y="93.79" width="47.35" height="9.19" transform="translate(80.99 -14.11) rotate(42.02)"/><polygon class="cls-70" points="43.08 79.8 44.35 79.12 38.2 85.94 73.38 117.64 79.53 110.81 78.98 112.15 72.7 119.11 36.81 86.77 43.08 79.8"/><rect class="cls-70" x="26" y="31.45" width="23.03" height="17.94" transform="translate(36.7 -14.72) rotate(42.02)"/><rect class="cls-5" x="27.93" y="25.68" width="23.03" height="17.94" transform="translate(33.34 -17.5) rotate(42.02)"/><polygon class="cls-70" points="22.96 39.37 24.89 33.6 42 49.02 54.01 35.7 52.07 41.46 40.06 54.79 22.96 39.37"/><rect class="cls-71" x="82.38" y="93.07" width="7.76" height="7.76" transform="translate(87.08 -32.81) rotate(42.02)"/><rect class="cls-36" x="83.03" y="92.35" width="7.76" height="7.76" transform="translate(86.77 -33.43) rotate(42.02)"/><rect class="cls-70" x="90.99" y="97.41" width="2.67" height="1.21" transform="translate(89.35 -36.6) rotate(42.02)"/><rect class="cls-5" x="91.23" y="97.13" width="2.67" height="1.21" transform="translate(89.23 -36.83) rotate(42.02)"/><rect class="cls-70" x="89.66" y="98.88" width="2.67" height="1.21" transform="translate(89.99 -35.33) rotate(42.02)"/><rect class="cls-5" x="89.9" y="98.61" width="2.67" height="1.21" transform="translate(89.87 -35.57) rotate(42.02)"/><rect class="cls-70" x="88.33" y="100.35" width="2.67" height="1.21" transform="translate(90.63 -34.07) rotate(42.02)"/><rect class="cls-5" x="88.58" y="100.08" width="2.67" height="1.21" transform="matrix(0.74, 0.67, -0.67, 0.74, 90.52, -34.3)"/><rect class="cls-70" x="87.01" y="101.82" width="2.67" height="1.21" transform="translate(91.28 -32.8) rotate(42.02)"/><rect class="cls-5" x="87.25" y="101.55" width="2.67" height="1.21" transform="translate(91.16 -33.04) rotate(42.02)"/><rect class="cls-70" x="83.23" y="90.41" width="2.67" height="1.21" transform="matrix(0.74, 0.67, -0.67, 0.74, 82.67, -33.2)"/><rect class="cls-5" x="83.47" y="90.14" width="2.67" height="1.21" transform="translate(82.55 -33.44) rotate(42.02)"/><rect class="cls-70" x="81.9" y="91.88" width="2.67" height="1.21" transform="translate(83.32 -31.94) rotate(42.02)"/><rect class="cls-5" x="82.14" y="91.61" width="2.67" height="1.21" transform="translate(83.2 -32.17) rotate(42.02)"/><rect class="cls-70" x="80.58" y="93.36" width="2.67" height="1.21" transform="translate(83.96 -30.67) rotate(42.02)"/><rect class="cls-5" x="80.82" y="93.08" width="2.67" height="1.21" transform="translate(83.84 -30.91) rotate(42.02)"/><rect class="cls-70" x="79.25" y="94.83" width="2.67" height="1.21" transform="translate(84.6 -29.41) rotate(42.02)"/><rect class="cls-5" x="79.49" y="94.56" width="2.67" height="1.21" transform="translate(84.49 -29.64) rotate(42.02)"/><path class="cls-70" d="M71.36,88.54A4.69,4.69,0,0,1,70,84.11l-.07,0,0-.08a4.69,4.69,0,0,1-4.55-.92A4,4,0,0,1,65,77.59h0l0,0a4,4,0,0,1,5.61-.28,4.69,4.69,0,0,1,1.39,4.43l.07,0,0,.08a4.69,4.69,0,0,1,4.55.92,4,4,0,0,1,.3,5.6l0,0A4,4,0,0,1,71.36,88.54Zm.11-5.25a3.72,3.72,0,0,0,.7,4.35,2.77,2.77,0,0,0,3.9-.2l0,0a2.77,2.77,0,0,0-.22-3.88A3.72,3.72,0,0,0,71.47,83.29ZM66,78.39a2.77,2.77,0,0,0,.24,3.86,3.72,3.72,0,0,0,4.4.25,3.72,3.72,0,0,0-.7-4.35,2.77,2.77,0,0,0-3.9.2Z"/><rect class="cls-70" x="66.76" y="79.83" width="2.79" height="0.97" transform="translate(71.29 -24.97) rotate(42.02)"/><polygon class="cls-70" points="75.34 86.14 74.66 85.53 75.27 84.85 74.55 84.2 73.94 84.88 73.27 84.27 72.62 84.99 73.29 85.6 72.68 86.27 73.4 86.92 74.01 86.25 74.69 86.86 75.34 86.14"/><path class="cls-73" d="M71.63,88.24a4.69,4.69,0,0,1-1.39-4.43l-.07,0,0-.08a4.69,4.69,0,0,1-4.55-.92,4,4,0,0,1-.34-5.56h0l0,0A4,4,0,0,1,71,77a4.69,4.69,0,0,1,1.39,4.43l.07,0,0,.08a4.69,4.69,0,0,1,4.55.92,4,4,0,0,1,.3,5.6l0,0A4,4,0,0,1,71.63,88.24ZM71.74,83a3.72,3.72,0,0,0,.7,4.35,2.77,2.77,0,0,0,3.9-.2l0,0a2.77,2.77,0,0,0-.22-3.88A3.72,3.72,0,0,0,71.74,83Zm-5.51-4.9A2.77,2.77,0,0,0,66.47,82a3.72,3.72,0,0,0,4.4.25,3.72,3.72,0,0,0-.7-4.35,2.77,2.77,0,0,0-3.9.2Z"/><rect class="cls-73" x="67.03" y="79.53" width="2.79" height="0.97" transform="translate(71.16 -25.23) rotate(42.02)"/><polygon class="cls-73" points="75.6 85.84 74.93 85.23 75.54 84.56 74.82 83.91 74.21 84.58 73.53 83.97 72.88 84.69 73.56 85.3 72.95 85.98 73.67 86.63 74.28 85.95 74.95 86.56 75.6 85.84"/><polygon class="cls-74" points="89.48 137.24 80.22 127.98 74.85 134.02 72.55 141.54 81.83 150.82 85.59 149.67 89.48 137.24"/><path class="cls-75" d="M94.88,138.25a6,6,0,0,0-1.27-5.68s.88-10.78,1-12.93a6,6,0,0,0-1.53-3.91l-1.7-.08L74.85,134l11.9,11.9,2-.3,1.53,1.53,2.38-8h1.92Z"/><path class="cls-28" d="M193.3,340.68a15.33,15.33,0,0,0-1.88-.13h0a15.24,15.24,0,0,0-15.24,15.24v35.7h3.76V355.8A15.24,15.24,0,0,1,193.3,340.68Z"/><path class="cls-36" d="M193.3,340.68a15.24,15.24,0,0,0-13.36,15.11v35.7h26.73V355.8A15.24,15.24,0,0,0,193.3,340.68Z"/><path class="cls-28" d="M243.47,340.68a15.33,15.33,0,0,0-1.88-.13h0a15.24,15.24,0,0,0-15.24,15.24v35.7h3.76V355.8A15.24,15.24,0,0,1,243.47,340.68Z"/><path class="cls-36" d="M243.47,340.68a15.24,15.24,0,0,0-13.36,15.11v35.7h26.73V355.8A15.24,15.24,0,0,0,243.47,340.68Z"/><rect class="cls-2" x="120.01" y="291.56" width="35.77" height="123.37" rx="11.91" ry="11.91" transform="translate(516.98 363.07) rotate(112.81)"/><rect class="cls-2" x="136.07" y="288.82" width="5.96" height="123.37" transform="translate(-237.94 342.81) rotate(-67.19)"/><rect class="cls-5" x="122.32" y="286.07" width="35.77" height="123.37" rx="11.91" ry="11.91" transform="translate(515.12 353.31) rotate(112.81)"/><rect class="cls-76" x="122.32" y="286.07" width="35.77" height="123.37" rx="11.91" ry="11.91" transform="translate(515.12 353.31) rotate(112.81)"/><path class="cls-77" d="M116.59,357.18l2.73-27.24s.19-6.22-2.58-10.05l63.53,63.53s-.32.27-3.61-.94S116.59,357.18,116.59,357.18Z"/><rect class="cls-2" x="79.31" y="313.32" width="35.77" height="116.16" rx="11.91" ry="11.91" transform="translate(37.51 -7.84) rotate(5.72)"/><rect class="cls-2" x="36.15" y="368.12" width="116.16" height="5.96" transform="translate(-284.42 427.86) rotate(-84.28)"/><rect class="cls-5" x="73.38" y="312.73" width="35.77" height="116.16" rx="11.91" ry="11.91" transform="translate(37.42 -7.25) rotate(5.72)"/><rect class="cls-78" x="73.38" y="312.73" width="35.77" height="116.16" rx="11.91" ry="11.91" transform="translate(37.42 -7.25) rotate(5.72)"/><path class="cls-53" d="M21.54,465.93h90.79a6.42,6.42,0,0,0,6.42-6.42V420.79a8,8,0,0,0-8-8H67.49a8,8,0,0,0-3.65.88L21.75,435a12.14,12.14,0,0,0-6.63,10.82v13.65A6.42,6.42,0,0,0,21.54,465.93Z"/><path class="cls-10" d="M16,465.93h90.79a6.42,6.42,0,0,0,6.42-6.42V420.79a8,8,0,0,0-8-8H62a8,8,0,0,0-3.65.88L16.25,435a12.14,12.14,0,0,0-6.63,10.82v13.65A6.42,6.42,0,0,0,16,465.93Z"/><path class="cls-79" d="M16,465.93h90.79a6.42,6.42,0,0,0,6.42-6.42V420.79a8,8,0,0,0-8-8H62a8,8,0,0,0-3.65.88L16.25,435a12.14,12.14,0,0,0-6.63,10.82v13.65A6.42,6.42,0,0,0,16,465.93Z"/><circle class="cls-2" cx="93.07" cy="444.84" r="11.92"/><rect class="cls-2" x="88.95" y="432.92" width="4.13" height="23.84"/><circle class="cls-5" cx="88.95" cy="444.84" r="11.92"/><circle class="cls-80" cx="88.95" cy="444.84" r="11.92"/><rect class="cls-2" x="194.22" y="320.73" width="35.77" height="81.33" rx="11.91" ry="11.91" transform="translate(627.46 305.97) rotate(112.81)"/><rect class="cls-2" x="210.28" y="317.98" width="5.96" height="81.33" transform="translate(-200.01 416.2) rotate(-67.19)"/><rect class="cls-5" x="196.53" y="315.24" width="35.77" height="81.33" rx="11.91" ry="11.91" transform="translate(625.6 296.22) rotate(112.81)"/><rect class="cls-81" x="196.53" y="315.24" width="35.77" height="81.33" rx="11.91" ry="11.91" transform="translate(625.6 296.22) rotate(112.81)"/><polygon class="cls-82" points="198.84 332.17 258.22 391.55 211.88 391.55 198.84 332.17"/><rect class="cls-2" x="174.62" y="327.24" width="35.77" height="116.16" rx="11.91" ry="11.91" transform="translate(-63.6 38.99) rotate(-9.94)"/><rect class="cls-2" x="186.58" y="327.76" width="5.96" height="116.16" transform="matrix(0.99, -0.17, 0.17, 0.99, -63.73, 38.5)"/><rect class="cls-5" x="168.75" y="328.27" width="35.77" height="116.16" rx="11.91" ry="11.91" transform="translate(-63.86 38) rotate(-9.94)"/><rect class="cls-83" x="168.75" y="328.27" width="35.77" height="116.16" rx="11.91" ry="11.91" transform="translate(-63.86 38) rotate(-9.94)"/><path class="cls-53" d="M167.07,509.92l78.55-45.53a6.42,6.42,0,0,0,2.33-8.77l-19.42-33.5a8,8,0,0,0-11-2.93l-37.39,21.67a8,8,0,0,0-2.72,2.59l-25.67,39.64a12.14,12.14,0,0,0-.31,12.68l6.85,11.81A6.42,6.42,0,0,0,167.07,509.92Z"/><path class="cls-10" d="M162.31,512.68l78.55-45.53a6.42,6.42,0,0,0,2.33-8.77l-19.42-33.5a8,8,0,0,0-11-2.93l-37.39,21.67a8,8,0,0,0-2.72,2.59L147,485.85a12.14,12.14,0,0,0-.31,12.68l6.85,11.81A6.42,6.42,0,0,0,162.31,512.68Z"/><path class="cls-84" d="M162.31,512.68l78.55-45.53a6.42,6.42,0,0,0,2.33-8.77l-19.42-33.5a8,8,0,0,0-11-2.93l-37.39,21.67a8,8,0,0,0-2.72,2.59L147,485.85a12.14,12.14,0,0,0-.31,12.68l6.85,11.81A6.42,6.42,0,0,0,162.31,512.68Z"/><circle class="cls-2" cx="218.38" cy="455.8" r="11.92" transform="translate(-199.14 170.98) rotate(-30.1)"/><rect class="cls-2" x="214.53" y="444.91" width="4.13" height="23.84" transform="translate(-199.9 170.23) rotate(-30.1)"/><circle class="cls-5" cx="214.81" cy="457.87" r="11.92" transform="matrix(0.87, -0.5, 0.5, 0.87, -200.66, 169.47)"/><circle class="cls-85" cx="214.81" cy="457.87" r="11.92" transform="matrix(0.87, -0.5, 0.5, 0.87, -200.66, 169.47)"/></g></g></g></svg>