<svg xmlns="http://www.w3.org/2000/svg" viewBox="0 0 235.35 119.93"><defs><style>.cls-1{fill:#363a49;}.cls-2{fill:#e16156;}.cls-3{fill:#97cfe3;}.cls-4{fill:#ffd839;}.cls-5{fill:#6dc497;}</style></defs><title>Maker-login</title><g id="Layer_2" data-name="Layer 2"><g id="login-2"><path class="cls-1" d="M11.71,85.83a9.8,9.8,0,0,1,4,.81,10.41,10.41,0,0,1,5.44,5.44,10.15,10.15,0,0,1,0,7.95,10.41,10.41,0,0,1-5.44,5.44,9.8,9.8,0,0,1-4,.81,9.69,9.69,0,0,1-3.36-.58,10.87,10.87,0,0,1-2.89-1.58v15.82h-4V96a10,10,0,0,1,.79-4,10.19,10.19,0,0,1,2.18-3.24,10.4,10.4,0,0,1,3.26-2.2A9.94,9.94,0,0,1,11.71,85.83Zm0,16.47a5.91,5.91,0,0,0,2.41-.5,6.41,6.41,0,0,0,3.34-3.34,6,6,0,0,0,0-4.82,6.41,6.41,0,0,0-3.34-3.34,5.92,5.92,0,0,0-2.41-.5,6,6,0,0,0-2.45.5,6.48,6.48,0,0,0-2,1.35,6.2,6.2,0,0,0-1.33,2A6.11,6.11,0,0,0,5.46,96v0A5.91,5.91,0,0,0,6,98.5a6.45,6.45,0,0,0,1.35,2,6.19,6.19,0,0,0,2,1.33A6.11,6.11,0,0,0,11.71,102.3Z"/><path class="cls-1" d="M28.64,72.36h4V106h-4Z"/><path class="cls-1" d="M49,85.9a9.9,9.9,0,0,1,4,.81,10.62,10.62,0,0,1,3.27,2.2,10.26,10.26,0,0,1,3,7.29v10h-4v-1.87a10.93,10.93,0,0,1-2.89,1.57,10.29,10.29,0,0,1-7.39-.24,10.31,10.31,0,0,1-5.46-5.46,9.94,9.94,0,0,1-.81-4,10.1,10.1,0,0,1,.81-4A10.25,10.25,0,0,1,45,86.71,9.91,9.91,0,0,1,49,85.9Zm0,16.59a6,6,0,0,0,2.45-.5,6.43,6.43,0,0,0,3.34-3.36,6,6,0,0,0,.5-2.43,6.08,6.08,0,0,0-.5-2.46,6.43,6.43,0,0,0-3.34-3.36,6.2,6.2,0,0,0-4.9,0,6.43,6.43,0,0,0-3.34,3.36,6.07,6.07,0,0,0-.5,2.46,6,6,0,0,0,.5,2.43A6.43,6.43,0,0,0,46.56,102,6,6,0,0,0,49,102.49Z"/><path class="cls-1" d="M87,85.94,78,104.5l-2.35,4.9-4.78,10H66.3l7.21-15-8.1-18.44h4.51l5.94,13.54,6.52-13.54Z"/><path class="cls-1" d="M110.35,107a4.66,4.66,0,0,1,3,1.39,5.33,5.33,0,0,1,1.14,1.77,8,8,0,0,1,0,5.3,5.31,5.31,0,0,1-1.16,1.77,4.42,4.42,0,0,1-1.5,1,4.25,4.25,0,0,1-1.5.31h-9.61a12.35,12.35,0,0,1-2.74-.39,7.71,7.71,0,0,1-2.43-1.08,6.05,6.05,0,0,1-1.76-1.81,4.7,4.7,0,0,1-.68-2.55h4a1.15,1.15,0,0,0,.56,1,4.06,4.06,0,0,0,1.24.55,12.67,12.67,0,0,0,1.84.3h9.52q.73-.08.73-1.75a3.9,3.9,0,0,0-.1-1,1.8,1.8,0,0,0-.23-.57.76.76,0,0,0-.25-.25l-.15-.06h-9.53a11,11,0,0,1-2.74-.35,8,8,0,0,1-2.43-1.06,5.84,5.84,0,0,1-1.76-1.79,4.78,4.78,0,0,1-.68-2.58,4.64,4.64,0,0,1,.83-2.78,6.21,6.21,0,0,1,2.1-1.85A8.89,8.89,0,0,1,94.5,98a9,9,0,0,1,.15-6.54,9,9,0,0,1,4.73-4.75,8.58,8.58,0,0,1,3.45-.69H113v4h-2.7a9.43,9.43,0,0,1,1.08,2.33,8.82,8.82,0,0,1,.39,2.6,8.66,8.66,0,0,1-.66,3.36,9,9,0,0,1-7.74,5.52H98.63a3.83,3.83,0,0,0-1.1.54,1.05,1.05,0,0,0-.48.89,1.11,1.11,0,0,0,.56,1,5,5,0,0,0,1.22.54,8.87,8.87,0,0,0,1.82.27ZM102.83,90a4.83,4.83,0,0,0-1.91.39,4.74,4.74,0,0,0-1.56,1.06,5.12,5.12,0,0,0-1,1.58,4.91,4.91,0,0,0,6.44,6.42,5.18,5.18,0,0,0,1.56-1,4.74,4.74,0,0,0,1.06-1.56,4.92,4.92,0,0,0,0-3.82,5,5,0,0,0-1.06-1.58,5,5,0,0,0-1.56-1.06A4.79,4.79,0,0,0,102.83,90Z"/><path class="cls-1" d="M134.7,87.38a8.41,8.41,0,0,1,2.24,2.14L134.7,91.3l-.85.69a4.86,4.86,0,0,0-1.72-1.54,4.83,4.83,0,0,0-4.19-.19,4.89,4.89,0,0,0-2.58,2.58,4.69,4.69,0,0,0-.39,1.89V106.2h-4V85.9h4v1.48a8.79,8.79,0,0,1,2.28-1.09,8.76,8.76,0,0,1,5.17,0A8.81,8.81,0,0,1,134.7,87.38Z"/><path class="cls-1" d="M151,85.86a10,10,0,0,1,4,.79,10.17,10.17,0,0,1,5.42,5.42,10.38,10.38,0,0,1,0,7.95,10.17,10.17,0,0,1-5.42,5.42,10.38,10.38,0,0,1-7.95,0,10.16,10.16,0,0,1-5.42-5.42,10.38,10.38,0,0,1,0-7.95A10.17,10.17,0,0,1,147,86.66,10,10,0,0,1,151,85.86Zm0,16.4a6.07,6.07,0,0,0,2.4-.48,6.22,6.22,0,0,0,0-11.46,6.23,6.23,0,0,0-4.81,0,6.2,6.2,0,0,0-2,1.33,6.48,6.48,0,0,0-1.35,2,6.07,6.07,0,0,0,0,4.82,6.47,6.47,0,0,0,1.35,2,6.17,6.17,0,0,0,2,1.33A6.07,6.07,0,0,0,151,102.26Z"/><path class="cls-1" d="M185,85.94V97.48a8.59,8.59,0,0,1-1.07,4.24,8.75,8.75,0,0,1-2.9,3.13,9.43,9.43,0,0,1-2.31,1.08,8.78,8.78,0,0,1-5.15,0,9.43,9.43,0,0,1-2.31-1.08,9,9,0,0,1-2.88-3.13,8.48,8.48,0,0,1-1.09-4.24V85.94h4V97.48a4.7,4.7,0,0,0,.38,1.89,5,5,0,0,0,1,1.54,4.85,4.85,0,0,0,1.56,1,4.79,4.79,0,0,0,1.9.39A4.65,4.65,0,0,0,178,102a5.15,5.15,0,0,0,1.56-1,4.78,4.78,0,0,0,1.06-1.54,4.7,4.7,0,0,0,.38-1.89V85.94Z"/><path class="cls-1" d="M204.88,87.21a9,9,0,0,1,2.9,3.18,8.71,8.71,0,0,1,1.07,4.26v11.61h-4V94.66a4.82,4.82,0,0,0-.39-1.91,5,5,0,0,0-1.07-1.58,5,5,0,0,0-1.57-1.06,4.73,4.73,0,0,0-1.9-.39,4.87,4.87,0,0,0-1.92.39,4.76,4.76,0,0,0-1.57,1.06,5.13,5.13,0,0,0-1,1.58,4.81,4.81,0,0,0-.39,1.91v11.61h-4V85.75h4l0,1.47a8.92,8.92,0,0,1,9.81,0Z"/><path class="cls-1" d="M235.35,96.09a10,10,0,0,1-.79,4,10.17,10.17,0,0,1-5.42,5.42,10.38,10.38,0,0,1-7.95,0,10.17,10.17,0,0,1-5.42-5.42,10.38,10.38,0,0,1,0-7.95,10.16,10.16,0,0,1,5.42-5.42,10,10,0,0,1,4-.79,9.83,9.83,0,0,1,3.34.56A10.58,10.58,0,0,1,231.38,88V72.28h4v23.8Zm-10.17,6.21a6.07,6.07,0,0,0,2.4-.48,6.2,6.2,0,0,0,3.79-5.73v0a6,6,0,0,0-.48-2.39,6.26,6.26,0,0,0-1.33-2,6.19,6.19,0,0,0-2-1.33,6.23,6.23,0,0,0-4.81,0,6.19,6.19,0,0,0-2,1.33,6.48,6.48,0,0,0-1.35,2,6.07,6.07,0,0,0,0,4.82,6.47,6.47,0,0,0,1.35,2,6.17,6.17,0,0,0,2,1.33A6.07,6.07,0,0,0,225.19,102.3Z"/><path class="cls-2" d="M96.54,31.46a16.93,16.93,0,0,1,6.81,1.39A18.15,18.15,0,0,1,109,36.6a17.54,17.54,0,0,1,5.17,12.47V66.15h-6.79V63a18.69,18.69,0,0,1-4.95,2.68,17.59,17.59,0,0,1-12.63-.41,17.62,17.62,0,0,1-9.33-9.33A17,17,0,0,1,79,49.07a17.26,17.26,0,0,1,1.38-6.86,17.51,17.51,0,0,1,9.32-9.37A16.94,16.94,0,0,1,96.54,31.46Zm0,28.36a10.22,10.22,0,0,0,4.19-.86,11,11,0,0,0,5.71-5.74,10.24,10.24,0,0,0,.86-4.15,10.39,10.39,0,0,0-.86-4.21,11,11,0,0,0-5.71-5.74,10.6,10.6,0,0,0-8.38,0,11,11,0,0,0-5.71,5.74,10.37,10.37,0,0,0-.86,4.21,10.22,10.22,0,0,0,.86,4.15A11,11,0,0,0,92.39,59,10.21,10.21,0,0,0,96.57,59.82Z"/><path class="cls-3" d="M150,66.35h-8.38L131.53,52.5l-.13.13V66.15h-6.79V9.1h6.79V41l.13.13,6.93-9.56h8.38l-11.15,15.3Z"/><path class="cls-4" d="M180.6,51.11H167.35a10.72,10.72,0,0,0,1.35,3.33A10.48,10.48,0,0,0,171,57.11a10.71,10.71,0,0,0,3.1,1.75,10.46,10.46,0,0,0,3.63.63,10.22,10.22,0,0,0,4.32-.92A11,11,0,0,0,185.62,56h8a11.7,11.7,0,0,1-1,1.88q-.56.89-1.22,1.75a17.53,17.53,0,0,1-5.94,4.85,16.76,16.76,0,0,1-7.72,1.81A17.11,17.11,0,0,1,171,64.93a17.38,17.38,0,0,1-9.27-9.27,17.75,17.75,0,0,1,0-13.59A17.38,17.38,0,0,1,171,32.81a17.13,17.13,0,0,1,6.79-1.35,16.76,16.76,0,0,1,7.72,1.81,17.23,17.23,0,0,1,5.94,4.91,17,17,0,0,1,3.76,10.69,12.14,12.14,0,0,1-.2,2.24H180.6Zm-2.84-12.86A10.29,10.29,0,0,0,172,39.91a10.74,10.74,0,0,0-3.86,4.4H187.4c-.22-.35-.43-.69-.63-1a9.15,9.15,0,0,0-4.32-3.95A10.43,10.43,0,0,0,177.77,38.25Z"/><path class="cls-5" d="M229,34a14.37,14.37,0,0,1,3.83,3.66l-3.83,3-1.45,1.19a8.3,8.3,0,0,0-2.93-2.64,8.26,8.26,0,0,0-7.16-.33,8.35,8.35,0,0,0-4.42,4.42,8,8,0,0,0-.66,3.23V66.15H205.6V31.46h6.79V34a15,15,0,0,1,3.89-1.86,15,15,0,0,1,8.84,0A15,15,0,0,1,229,34Z"/><g id="Logo"><polygon class="cls-1" points="0 65.79 0 0 12.77 0 6.2 6.57 12.87 13.23 26.1 0 39.28 0 19.57 19.71 26.23 26.38 52.61 0 65.77 0 0 65.79"/><polygon class="cls-1" points="65.79 9.27 65.79 20.48 60.06 14.74 65.79 9.27"/><path class="cls-1" d="M54.29,20.57s-5.91,5.56-5.74,5.74L65.79,43.55V32.07Z"/><polygon class="cls-1" points="42.91 32.26 37.17 38 65.78 66.61 65.78 55.15 42.91 32.26"/></g></g></g></svg>