<svg xmlns="http://www.w3.org/2000/svg" viewBox="0 0 70.07 26"><defs><style>.cls-1,.cls-4{fill:none;}.cls-2,.cls-3{fill:#fff;}.cls-3{font-size:18px;font-family:AquaGrotesque, Aqua Grotesque;}.cls-4{stroke:#fff;stroke-miterlimit:10;}</style></defs><title>nav-logo</title><g id="Layer_2" data-name="Layer 2"><g id="all_projects" data-name="all projects"><g id="Logo"><path class="cls-1" d="M8.45,8.64l3-3h-3L6.94,7.14Z"/><path class="cls-1" d="M11.47,11.58l5.92-5.92h-3L10,10.1Z"/><polygon class="cls-1" points="12.98 13.04 12.98 13.04 20.36 5.66 20.36 5.66 20.36 5.66 12.98 13.04"/><path class="cls-2" d="M8.43,5.66H5.53c.12.16.66.73,1.42,1.48Z"/><path class="cls-2" d="M10,10.1l4.44-4.44h-3l-3,3Z"/><path class="cls-2" d="M13,13l7.38-7.38h-3l-5.92,5.92Z"/><path class="cls-2" d="M11.48,11.58,10,10.1,8.45,8.63,6.95,7.14c-.75-.75-1.3-1.32-1.42-1.48h0s0,1.2,0,2.91c0,.89,0,1.93,0,3s0,2,0,3v.21c0,1,0,2,0,2.79,0,1.71,0,2.91,0,2.93L13,13Z"/><path class="cls-2" d="M20.36,10.27V7.75c-.14.1-.64.58-1.29,1.23Z"/><path class="cls-2" d="M16.5,11.6l3.87,3.87V12.88l-2.59-2.59Z"/><path class="cls-2" d="M13.94,14.24l6.42,6.42h0V18.08l-5.15-5.15Z"/></g><text class="cls-3" transform="translate(26.53 18.01)">aker</text><path class="cls-4" d="M25.5,18.43v3.79a3.29,3.29,0,0,1-3.29,3.29H3.79A3.29,3.29,0,0,1,.5,22.21V3.79A3.29,3.29,0,0,1,3.79.5H22.21A3.29,3.29,0,0,1,25.5,3.79V8.7"/></g></g></svg>