<svg xmlns="http://www.w3.org/2000/svg" xmlns:xlink="http://www.w3.org/1999/xlink" viewBox="0 0 200.2 239"><defs><style>.cls-1,.cls-21{fill:none;}.cls-2{fill:#313544;}.cls-3{clip-path:url(#clip-path);}.cls-4{fill:#bdd9be;}.cls-5{fill:#e3e9db;}.cls-6{fill:#edeef3;}.cls-7{fill:#454a62;}.cls-8{fill:#575d77;}.cls-9{fill:#ba2741;}.cls-10{fill:#e16156;}.cls-11{fill:#a01d21;}.cls-12{fill:#7c1920;}.cls-13{fill:#661720;}.cls-14{fill:#d18b29;}.cls-15{fill:#d6b837;}.cls-16{fill:#ffd839;}.cls-17{fill:#e16056;}.cls-18{fill:#af722a;}.cls-19{fill:#497ea2;}.cls-20{fill:#97cfe3;}.cls-21{stroke:#313544;stroke-linejoin:bevel;}.cls-22{fill:#1d2028;}</style><clipPath id="clip-path"><rect class="cls-1" x="0.1" y="0.1" width="200" height="150" rx="2.78" ry="2.78"/></clipPath></defs><title>purple-charactor</title><g id="Layer_2" data-name="Layer 2"><g id="all_projects" data-name="all projects"><rect class="cls-2" x="0.05" y="0.05" width="200.1" height="150.1" rx="2.83" ry="2.83"/><path d="M197.32.1a2.78,2.78,0,0,1,2.78,2.78V147.32a2.78,2.78,0,0,1-2.78,2.78H2.88A2.78,2.78,0,0,1,.1,147.32V2.88A2.78,2.78,0,0,1,2.88.1H197.32m0-.1H2.88A2.88,2.88,0,0,0,0,2.88V147.32a2.88,2.88,0,0,0,2.88,2.88H197.32a2.88,2.88,0,0,0,2.88-2.88V2.88A2.88,2.88,0,0,0,197.32,0Z"/><g class="cls-3"><polygon class="cls-4" points="102.25 162.59 115.62 170.28 115.62 231.33 102.25 223.64 102.25 162.59"/><polygon class="cls-5" points="115.62 170.28 120.84 167.56 120.84 228.61 115.62 231.33 115.62 170.28"/><polygon class="cls-6" points="102.25 162.59 107.47 159.87 120.84 167.56 115.62 170.28 102.25 162.59"/><polygon class="cls-4" points="86.4 170.26 99.77 177.94 99.77 239 86.4 231.31 86.4 170.26"/><polygon class="cls-5" points="99.77 177.94 104.99 175.23 104.99 236.28 99.77 239 99.77 177.94"/><polygon class="cls-6" points="86.4 170.26 91.62 167.54 104.99 175.23 99.77 177.94 86.4 170.26"/><polygon class="cls-4" points="122.02 102.03 165.86 127.78 165.86 145.02 122.02 119.27 122.02 102.03"/><polygon class="cls-5" points="165.86 127.78 171.08 125.06 171.08 142.3 165.86 145.02 165.86 127.78"/><polygon class="cls-6" points="122.02 102.03 127.24 99.31 171.08 125.06 165.86 127.78 122.02 102.03"/><polygon class="cls-2" points="130.03 168.17 130.03 96.73 99.3 78.99 68.57 96.73 68.57 168.17 99.3 185.92 130.03 168.17"/><polygon class="cls-7" points="99.3 185.92 99.3 114.48 130.03 96.73 130.03 168.17 99.3 185.92"/><polygon class="cls-8" points="99.3 114.48 68.57 96.73 99.3 78.99 130.03 96.73 99.3 114.48"/><polygon class="cls-4" points="70.94 116.12 84.31 123.8 84.31 184.85 70.94 177.17 70.94 116.12"/><polygon class="cls-5" points="84.31 123.8 89.53 121.09 89.53 182.14 84.31 184.85 84.31 123.8"/><polygon class="cls-6" points="70.94 116.12 76.16 113.4 89.53 121.09 84.31 123.8 70.94 116.12"/><polygon class="cls-9" points="129.06 64.95 129.06 50.91 116.91 43.89 108.3 48.72 108.3 62.76 120.46 69.78 129.06 64.95"/><polygon class="cls-10" points="108.3 48.72 116.91 43.89 129.06 50.91 120.46 55.74 108.3 48.72"/><polygon class="cls-11" points="120.46 55.74 120.46 69.78 108.3 62.76 108.3 48.72 120.46 55.74"/><polygon class="cls-12" points="118.62 56.8 118.62 66.59 110.14 61.7 110.14 51.91 118.62 56.8"/><polygon class="cls-13" points="110.14 61.7 110.14 51.91 118.62 56.8 110.14 61.7"/><polygon class="cls-2" points="130.03 88.46 130.03 52.97 99.3 35.23 68.57 52.97 68.57 88.46 99.3 106.2 130.03 88.46"/><polygon class="cls-7" points="99.3 106.2 99.3 70.72 130.03 52.97 130.03 88.46 99.3 106.2"/><polygon class="cls-8" points="99.3 70.72 68.57 52.97 99.3 35.23 130.03 52.97 99.3 70.72"/><polygon class="cls-9" points="89.99 89.81 89.99 75.77 77.83 68.75 69.23 73.58 69.23 87.62 81.39 94.64 89.99 89.81"/><polygon class="cls-10" points="69.23 73.58 77.83 68.75 89.99 75.77 81.39 80.6 69.23 73.58"/><polygon class="cls-11" points="81.39 80.6 81.39 94.64 69.23 87.62 69.23 73.58 81.39 80.6"/><polygon class="cls-12" points="79.54 81.66 79.54 91.45 71.07 86.56 71.07 76.77 79.54 81.66"/><polygon class="cls-13" points="71.07 86.56 71.07 76.77 79.54 81.66 71.07 86.56"/><polygon class="cls-14" points="109.44 93.01 112.22 94.61 112.22 99.28 109.44 97.69 109.44 93.01"/><polygon class="cls-14" points="113.34 95.44 116.11 97.03 116.13 99.28 113.36 97.69 113.34 95.44"/><polygon class="cls-14" points="119.74 87.33 122.51 88.92 122.51 91.12 119.74 89.53 119.74 87.33"/><polygon class="cls-15" points="109.44 93.01 113.49 90.67 116.27 92.27 112.22 94.6 109.44 93.01"/><polygon class="cls-15" points="119.74 87.33 123.79 84.99 126.56 86.58 122.51 88.92 119.74 87.33"/><polygon class="cls-15" points="113.49 92.93 119.74 89.53 122.51 91.12 116.27 94.52 113.49 92.93"/><polygon class="cls-16" points="126.56 86.58 122.51 88.92 122.51 91.12 116.27 94.52 116.27 92.27 112.22 94.61 112.22 99.28 116.11 97.03 116.11 99.28 123.53 95.24 123.53 93.01 126.56 91.26 126.56 86.58"/><polygon class="cls-4" points="118.68 67.06 118.68 77.78 124.71 81.25 124.71 70.53 118.68 67.06"/><polygon class="cls-5" points="124.71 70.53 133.99 65.17 127.97 61.7 118.68 67.06 124.71 70.53"/><polygon class="cls-6" points="124.71 81.25 124.71 70.53 133.99 65.17 133.99 75.89 124.71 81.25"/><path class="cls-10" d="M131,70.37v3.79l-3.29,1.9V72.26l3.29-1.9m3-5.2-9.29,5.36V81.25L134,75.89V65.17Z"/><path class="cls-17" d="M131.67,70.74v3.79l-3.29,1.9V72.63l3.29-1.9m3-5.2-9.29,5.36V81.62l9.29-5.36V65.54Z"/><polygon class="cls-11" points="125.39 81.62 125.39 70.9 124.71 70.53 124.71 81.25 125.39 81.62"/><polygon class="cls-9" points="125.39 70.9 134.68 65.54 133.99 65.17 124.71 70.53 125.39 70.9"/><polygon class="cls-11" points="133.98 66.75 133.3 67.14 133.31 75.5 133.99 75.89 133.98 66.75"/><polygon class="cls-9" points="133.31 75.5 133.99 75.89 126.08 80.44 126.08 79.67 133.31 75.5"/><polygon class="cls-7" points="126.77 77.68 126.77 71.72 131.93 68.75 131.93 74.7 126.77 77.68"/><polygon class="cls-6" points="129.69 72.59 129.69 70.9 131.15 70.06 131.15 71.75 129.69 72.59"/><polygon class="cls-4" points="102.69 76.65 102.69 87.37 108.72 90.85 108.72 80.13 102.69 76.65"/><polygon class="cls-5" points="108.72 80.13 118 74.77 111.98 71.29 102.69 76.65 108.72 80.13"/><polygon class="cls-6" points="108.72 90.85 108.72 80.13 118 74.77 118 85.49 108.72 90.85"/><path class="cls-10" d="M115,80v3.79l-3.29,1.9V81.86L115,80m3-5.2-9.29,5.36V90.85L118,85.49V74.77Z"/><path class="cls-17" d="M115.68,80.33v3.79L112.4,86V82.23l3.29-1.9m3-5.2-9.29,5.36V91.22l9.29-5.36V75.13Z"/><polygon class="cls-11" points="109.4 91.22 109.4 80.5 108.72 80.13 108.72 90.85 109.4 91.22"/><polygon class="cls-9" points="109.4 80.5 118.68 75.13 118 74.77 108.72 80.13 109.4 80.5"/><polygon class="cls-11" points="117.99 76.35 117.31 76.73 117.32 85.09 118 85.49 117.99 76.35"/><polygon class="cls-9" points="117.32 85.09 118 85.49 110.09 90.03 110.09 89.27 117.32 85.09"/><polygon class="cls-7" points="110.78 87.27 110.78 81.32 115.94 78.34 115.94 84.3 110.78 87.27"/><polygon class="cls-6" points="113.7 82.18 113.7 80.5 115.16 79.65 115.16 81.34 113.7 82.18"/><polygon class="cls-16" points="111.35 33.6 102.06 56.58 102.06 38.96 111.35 33.6"/><polygon class="cls-18" points="102.06 56.58 102.06 38.96 92.78 33.6 92.78 51.22 102.06 56.58"/><polygon class="cls-15" points="92.78 33.6 102.06 28.23 111.35 33.6 102.06 38.96 92.78 33.6"/><polygon class="cls-14" points="96.57 13.87 87.29 36.86 96.57 42.22 105.86 19.23 96.57 13.87"/><polygon class="cls-16" points="96.57 42.22 105.86 36.86 105.86 19.23 96.57 42.22"/><polygon class="cls-19" points="115.62 114.06 115.62 128.07 123.49 132.6 123.49 118.6 115.62 114.06"/><polygon class="cls-20" points="123.49 118.6 135.62 111.6 127.75 107.06 115.62 114.06 123.49 118.6"/><polygon class="cls-6" points="123.49 132.6 123.49 118.6 135.62 111.6 135.62 125.6 123.49 132.6"/><path class="cls-10" d="M132.62,116.79v7.08l-6.13,3.54v-7.08l6.13-3.54m3-5.2-12.13,7v14l12.13-7v-14Z"/><path class="cls-17" d="M133.51,117.27v7.08l-6.13,3.54v-7.08l6.13-3.54m3-5.2-12.13,7v14l12.13-7v-14Z"/><polygon class="cls-11" points="124.38 133.09 124.38 119.08 123.49 118.6 123.49 132.6 124.38 133.09"/><polygon class="cls-9" points="124.38 119.08 136.51 112.08 135.62 111.6 123.49 118.6 124.38 119.08"/><polygon class="cls-11" points="135.6 113.66 134.71 114.16 134.73 125.09 135.62 125.6 135.6 113.66"/><polygon class="cls-9" points="134.73 125.09 135.62 125.6 125.28 131.54 125.28 130.54 134.73 125.09"/><polygon class="cls-21" points="125.97 124.17 125.97 120.03 133.14 115.89 133.14 120.03 125.97 124.17"/><polygon class="cls-2" points="129.58 119.87 129.58 117.95 130.13 117.64 130.13 119.56 129.58 119.87"/><polygon class="cls-17" points="129.58 121.91 129.58 120.28 130.13 119.97 130.13 121.6 129.58 121.91"/><polygon class="cls-2" points="125.97 128.11 125.97 125.84 133.47 121.58 133.47 123.85 125.97 128.11"/><polygon class="cls-17" points="125.97 128.11 125.97 125.84 130.45 123.33 130.45 125.6 125.97 128.11"/><polygon class="cls-11" points="102.6 149.88 102.6 163.89 110.47 168.43 110.47 154.42 102.6 149.88"/><polygon class="cls-9" points="110.47 154.42 134.73 140.89 126.86 136.35 102.6 149.88 110.47 154.42"/><polygon class="cls-6" points="110.47 168.43 110.47 154.42 134.73 140.89 134.73 154.9 110.47 168.43"/><path class="cls-10" d="M131.73,146v7.13l-18.26,10.18v-7.13L131.73,146m3-5.11-24.26,13.53v14l24.26-13.53v-14Z"/><path class="cls-17" d="M132.62,146.48v7.13L114.36,163.8v-7.13l18.26-10.18m3-5.11L111.36,154.9v14l24.26-13.53v-14Z"/><polygon class="cls-11" points="111.36 168.91 111.36 154.9 110.47 154.42 110.47 168.43 111.36 168.91"/><polygon class="cls-9" points="111.36 154.9 135.62 141.37 134.73 140.89 110.47 154.42 111.36 154.9"/><polygon class="cls-11" points="134.72 142.96 133.82 143.46 133.84 154.38 134.73 154.9 134.72 142.96"/><polygon class="cls-9" points="133.84 154.38 134.73 154.9 112.26 167.36 112.26 166.36 133.84 154.38"/><polygon class="cls-21" points="113.9 160.97 113.9 156.83 132.71 146.25 132.71 150.39 113.9 160.97"/><polygon class="cls-2" points="123.52 153.27 123.52 151.35 124.08 151.03 124.08 152.96 123.52 153.27"/><polygon class="cls-17" points="120.68 156.97 120.68 155.35 121.23 155.03 121.23 156.66 120.68 156.97"/><polygon class="cls-2" points="116.4 157.38 116.4 155.45 116.95 155.14 116.95 157.06 116.4 157.38"/><polygon class="cls-2" points="129.92 149.77 129.92 147.84 130.47 147.53 130.47 149.46 129.92 149.77"/><rect class="cls-2" x="112.48" y="158.07" width="21.65" height="0.29" transform="translate(-62.22 81.93) rotate(-29.72)"/><polygon class="cls-14" points="129.56 153.64 130.84 154.38 130.84 155.87 129.56 155.13 129.56 153.64"/><polygon class="cls-15" points="130.84 154.38 132.13 153.64 132.13 155.13 130.84 155.87 130.84 154.38"/><polygon class="cls-16" points="129.56 153.64 130.84 152.89 132.13 153.64 130.84 154.38 129.56 153.64"/><polygon class="cls-2" points="102.69 136.62 102.69 122.01 104.19 121.14 104.19 135.76 102.69 136.62"/><polygon class="cls-22" points="102.69 136.62 104.19 135.76 102.69 134.95 102.69 136.62"/><polygon class="cls-2" points="104.78 135.35 104.78 120.74 106.28 119.87 106.28 134.49 104.78 135.35"/><polygon class="cls-22" points="104.78 135.35 106.28 134.49 104.78 133.68 104.78 135.35"/><polygon class="cls-2" points="106.84 134.23 106.84 119.62 108.34 118.76 108.34 133.37 106.84 134.23"/><polygon class="cls-22" points="106.84 134.23 108.34 133.37 106.84 132.56 106.84 134.23"/><polygon class="cls-2" points="108.86 133.12 108.86 118.5 110.36 117.64 110.36 132.25 108.86 133.12"/><polygon class="cls-22" points="108.86 133.12 110.36 132.25 108.86 131.44 108.86 133.12"/><polygon class="cls-2" points="110.88 131.94 110.88 117.33 112.38 116.46 112.38 131.07 110.88 131.94"/><polygon class="cls-22" points="110.88 131.94 112.38 131.07 110.88 130.26 110.88 131.94"/></g></g></g></svg>