<svg xmlns="http://www.w3.org/2000/svg" xmlns:xlink="http://www.w3.org/1999/xlink" viewBox="0 0 200.2 205.32"><defs><style>.cls-1{fill:none;}.cls-2{fill:#871d26;}.cls-3{clip-path:url(#clip-path);}.cls-4{fill:#edeef3;}.cls-5{fill:#bdd9be;}.cls-6{fill:#e3e9db;}.cls-7{fill:#e16156;}.cls-8{fill:#a01d21;}.cls-9{fill:#ba2741;}.cls-10{fill:#d18b29;}.cls-11{fill:#ffd839;}.cls-12{fill:#d6b837;}.cls-13{fill:#6dc497;}.cls-14{fill:#bc782a;}.cls-15{fill:#a06327;}.cls-16{fill:#454a62;}.cls-17{fill:#4a7ea2;}</style><clipPath id="clip-path"><rect class="cls-1" x="0.1" y="0.1" width="200" height="150" rx="2.78" ry="2.78"/></clipPath></defs><title>redd-charactor</title><g id="Layer_2" data-name="Layer 2"><g id="all_projects" data-name="all projects"><rect class="cls-2" x="0.05" y="0.05" width="200.1" height="150.1" rx="2.83" ry="2.83"/><path d="M197.32.1a2.78,2.78,0,0,1,2.78,2.78V147.32a2.78,2.78,0,0,1-2.78,2.78H2.88A2.78,2.78,0,0,1,.1,147.32V2.88A2.78,2.78,0,0,1,2.88.1H197.32m0-.1H2.88A2.88,2.88,0,0,0,0,2.88V147.32a2.88,2.88,0,0,0,2.88,2.88H197.32a2.88,2.88,0,0,0,2.88-2.88V2.88A2.88,2.88,0,0,0,197.32,0Z"/><g class="cls-3"><polygon class="cls-4" points="87.62 116.81 87.62 101.71 84.14 100.12 46.08 121.79 46.08 136.88 49.56 138.47 87.62 116.81"/><polygon class="cls-5" points="46.08 121.79 49.56 123.38 49.56 138.47 46.08 136.88 46.08 121.79"/><polygon class="cls-6" points="49.56 123.38 87.62 101.71 87.62 116.81 49.56 138.47 49.56 123.38"/><polygon class="cls-7" points="134.36 187.03 134.36 98.55 102.69 80.26 71.01 98.55 71.01 187.03 102.69 205.32 134.36 187.03"/><polygon class="cls-8" points="71.01 98.55 102.69 116.84 102.69 205.32 71.01 187.03 71.01 98.55"/><polygon class="cls-9" points="102.69 116.84 134.36 98.55 134.36 187.03 102.69 205.32 102.69 116.84"/><polygon class="cls-8" points="72.08 54.11 72.08 89.45 102.69 107.11 133.29 89.45 133.29 54.11 102.69 36.44 72.08 54.11"/><polygon class="cls-7" points="72.08 54.11 102.69 36.44 133.29 54.11 102.69 71.78 72.08 54.11"/><polygon class="cls-9" points="102.69 71.78 102.69 107.11 133.29 89.45 133.29 54.11 102.69 71.78"/><polygon class="cls-2" points="77.61 54.11 102.69 39.63 127.76 54.11 102.69 68.59 77.61 54.11"/><polygon class="cls-8" points="102.69 39.63 102.69 68.59 77.61 54.11 102.69 39.63"/><polygon class="cls-4" points="108.53 52.05 108.53 49.2 102.89 45.94 97.24 49.2 97.24 52.05 102.89 55.31 108.53 52.05"/><polygon class="cls-5" points="97.24 49.2 102.89 52.46 102.89 55.31 97.24 52.05 97.24 49.2"/><polygon class="cls-6" points="102.89 55.31 102.89 52.46 108.53 49.2 108.53 52.05 102.89 55.31"/><polygon class="cls-4" points="108.53 48.13 108.53 45.28 102.89 42.02 97.24 45.28 97.24 48.13 102.89 51.39 108.53 48.13"/><polygon class="cls-5" points="97.24 45.28 102.89 48.54 102.89 51.39 97.24 48.13 97.24 45.28"/><polygon class="cls-6" points="102.89 51.39 102.89 48.54 108.53 45.28 108.53 48.13 102.89 51.39"/><polygon class="cls-10" points="115.53 39.3 115.53 24.71 102.89 17.41 90.25 24.71 90.25 39.3 102.89 46.6 115.53 39.3"/><polygon class="cls-11" points="90.25 24.71 102.89 17.41 115.53 24.71 102.89 32.01 90.25 24.71"/><polygon class="cls-12" points="102.89 32.01 102.89 46.6 115.53 39.3 115.53 24.71 102.89 32.01"/><polygon class="cls-4" points="130.86 87.48 130.86 74.99 122.73 70.39 111.91 76.64 111.91 89.13 120.03 93.73 130.86 87.48"/><polygon class="cls-6" points="120.03 93.73 120.03 81.24 130.86 74.99 130.86 87.48 120.03 93.73"/><polygon class="cls-5" points="120.03 81.24 111.91 76.64 111.91 89.13 120.03 93.73 120.03 81.24"/><polygon class="cls-5" points="122.12 90.12 122.12 82.44 128.77 78.6 128.77 86.28 122.12 90.12"/><polygon class="cls-13" points="128.77 86.28 122.12 82.44 128.77 78.6 128.77 86.28"/><polygon class="cls-11" points="98.53 137.41 98.53 123.63 86.6 116.74 80.63 120.19 80.63 133.96 92.56 140.85 98.53 137.41"/><polygon class="cls-10" points="80.63 120.19 80.63 133.96 92.56 140.85 92.56 127.08 80.63 120.19"/><polygon class="cls-12" points="92.56 127.08 98.53 123.63 98.53 137.41 92.56 140.85 92.56 127.08"/><polygon class="cls-14" points="81.98 122.51 81.98 133.19 91.22 138.53 91.22 127.85 81.98 122.51"/><polygon class="cls-15" points="81.98 133.19 91.22 127.85 81.98 122.51 81.98 133.19"/><polygon class="cls-4" points="84.81 124.15 84.81 131.56 91.22 135.26 91.22 127.85 84.81 124.15"/><path class="cls-16" d="M90,131.38,85.91,129l-.07-.13v-2.72l.22-.13,4.06,2.35.07.13v2.72Zm-3.84-2.56L89.9,131v-2.37l-3.77-2.17Z"/><polygon class="cls-16" points="87.74 127.2 87.74 128.19 88.02 128.35 88.02 127.36 87.74 127.2"/><polygon class="cls-7" points="87.74 128.75 87.74 129.75 88.02 129.91 88.02 128.91 87.74 128.75"/><polygon class="cls-16" points="85.83 130 85.83 131.15 90.2 133.69 90.2 132.54 85.83 130"/><polyline class="cls-7" points="85.83 131.15 88.02 132.42 88.02 131.27 85.83 130"/><polygon class="cls-4" points="121.99 137.95 121.99 122.86 118.51 121.27 80.46 142.93 80.46 158.03 83.94 159.62 121.99 137.95"/><polygon class="cls-5" points="80.46 142.93 83.94 144.52 83.94 159.62 80.46 158.03 80.46 142.93"/><polygon class="cls-6" points="83.94 144.52 121.99 122.86 121.99 137.95 83.94 159.62 83.94 144.52"/><polygon class="cls-4" points="83.94 78.75 83.94 68.39 74.96 63.21 69.1 66.63 69.1 76.99 78.07 82.17 83.94 78.75"/><polygon class="cls-5" points="78.07 71.81 69.1 66.63 74.96 63.21 83.94 68.39 78.07 71.81"/><polygon class="cls-6" points="78.07 71.81 78.07 82.17 83.94 78.75 83.94 68.39 78.07 71.81"/><path class="cls-17" d="M72.1,71.82l3,1.72V77l-3-1.72V71.82m-3-5.2V77l9,5.18V71.81l-9-5.18Z"/><path class="cls-7" d="M71.38,72.21l3,1.72v3.44l-3-1.72V72.21m-3-5.2V77.38l9,5.18V72.19l-9-5.18Z"/><polygon class="cls-17" points="69.1 66.63 68.38 67.01 77.35 72.19 77.35 82.56 78.07 82.17 78.07 71.81 69.1 66.63"/><polygon class="cls-16" points="71.69 71.02 71.69 76.39 76.35 79.08 76.35 73.7 71.69 71.02"/><polygon class="cls-4" points="74.96 73.7 74.96 74.89 75.99 75.48 75.99 74.3 74.96 73.7"/><polygon class="cls-4" points="99.5 87.11 99.5 76.75 90.52 71.56 84.66 74.98 84.66 85.35 93.64 90.53 99.5 87.11"/><polygon class="cls-5" points="93.64 80.17 84.66 74.98 90.52 71.56 99.5 76.75 93.64 80.17"/><polygon class="cls-6" points="93.64 80.17 93.64 90.53 99.5 87.11 99.5 76.75 93.64 80.17"/><path class="cls-17" d="M87.66,80.18l3,1.72v3.44l-3-1.72V80.18m-3-5.2V85.35l9,5.18V80.17l-9-5.18Z"/><path class="cls-7" d="M86.94,80.56l3,1.72v3.44l-3-1.72V80.56m-3-5.2V85.73l9,5.18V80.55l-9-5.18Z"/><polygon class="cls-17" points="84.66 74.98 83.94 75.37 92.91 80.55 92.91 90.92 93.64 90.53 93.64 80.17 84.66 74.98"/><polygon class="cls-16" points="87.25 79.37 87.25 84.75 91.91 87.43 91.91 82.06 87.25 79.37"/><polygon class="cls-4" points="90.52 82.06 90.52 83.25 91.55 83.84 91.55 82.65 90.52 82.06"/><polygon class="cls-6" points="78.89 90.2 78.89 87.87 80.91 86.71 80.91 89.03 78.89 90.2"/><polygon class="cls-6" points="92.25 101.56 92.25 95.04 94.26 93.88 94.26 100.4 92.25 101.56"/><polygon class="cls-6" points="86.81 101.3 86.81 98.42 88.82 97.25 88.82 100.14 86.81 101.3"/><polygon class="cls-5" points="73.23 84.6 75.25 83.44 80.91 86.71 78.89 87.87 73.23 84.6"/><polygon class="cls-5" points="78.91 90.21 80.92 89.05 88.61 93.49 86.6 94.65 78.91 90.21"/><polygon class="cls-5" points="86.59 91.77 88.6 90.61 94.26 93.87 92.25 95.04 86.59 91.77"/><polygon class="cls-4" points="92.25 95.03 86.6 91.77 86.6 94.65 78.89 90.18 78.89 87.87 73.23 84.6 73.23 91.13 78.09 93.94 78.09 96.24 86.8 101.3 86.8 98.42 92.25 101.56 92.25 95.03"/></g></g></g></svg>