<svg xmlns="http://www.w3.org/2000/svg" viewBox="0 0 42.01 50"><defs><style>.cls-1{fill:#b0b0b0;}.cls-2{fill:#d8d8d8;}.cls-3{fill:#f4f4f5;}.cls-4{fill:#e16156;}.cls-5{fill:#497ea2;}.cls-6{fill:#f8b0ae;}.cls-7{fill:#bdd9be;}.cls-8{fill:#ffd839;}.cls-9{fill:#97cfe3;}.cls-10{fill:#fff;}</style></defs><title>LED_RGB</title><g id="Layer_2" data-name="Layer 2"><g id="ActionKit"><g id="RBG_on"><rect class="cls-1" y="7.99" width="42.01" height="42.01" rx="10.25" ry="10.25"/><rect class="cls-2" width="42.01" height="42.01" rx="10.25" ry="10.25"/><circle class="cls-3" cx="21" cy="21" r="14.84"/><path class="cls-4" d="M21.34,18.09a6.26,6.26,0,0,1,6.36-.63c0-.17,0-.33,0-.51a6.31,6.31,0,0,0-12.61,0c0,.15,0,.29,0,.43a6.28,6.28,0,0,1,6.21.71Z"/><path class="cls-5" d="M18.75,23.17c0-.17,0-.34,0-.51a6.3,6.3,0,0,1-3.64-5.29,6.3,6.3,0,1,0,6.21,10.88A6.29,6.29,0,0,1,18.75,23.17Z"/><path class="cls-6" d="M18.77,22.67a6.29,6.29,0,0,1,2.56-4.58,6.28,6.28,0,0,0-6.21-.71A6.3,6.3,0,0,0,18.77,22.67Z"/><path class="cls-7" d="M27.69,17.45a6.3,6.3,0,0,1-3.79,5.29c0,.14,0,.29,0,.43a6.29,6.29,0,0,1-2.59,5.09,6.3,6.3,0,1,0,6.36-10.81Z"/><path class="cls-8" d="M21.34,18.09a6.29,6.29,0,0,1,2.57,4.65,6.3,6.3,0,0,0,3.79-5.29,6.26,6.26,0,0,0-6.36.63Z"/><path class="cls-9" d="M23.93,23.17c0-.15,0-.29,0-.43a6.27,6.27,0,0,1-5.13-.07c0,.17,0,.33,0,.51a6.29,6.29,0,0,0,2.59,5.09A6.29,6.29,0,0,0,23.93,23.17Z"/><path class="cls-10" d="M21.34,18.09a6.29,6.29,0,0,0-2.56,4.58,6.27,6.27,0,0,0,5.13.07A6.29,6.29,0,0,0,21.34,18.09Z"/><rect class="cls-2" x="38.84" y="41.16" width="0.67" height="5.26"/></g></g></g></svg>