<svg xmlns="http://www.w3.org/2000/svg" viewBox="0 0 50 47.27"><defs><style>.cls-1{fill:#d18b29;}.cls-2{fill:#ffd839;}.cls-3{fill:#365769;}.cls-4{fill:#497ea2;}.cls-5{fill:#f4f4f5;}.cls-6{fill:#5d5e5e;}.cls-7{fill:#e16156;}</style></defs><title>StepMotor</title><g id="Layer_2" data-name="Layer 2"><g id="ActionKit"><g id="motor"><rect class="cls-1" x="6.07" y="24.69" width="37.85" height="22.59"/><rect class="cls-2" x="6.07" y="14.5" width="37.85" height="22.59"/><path class="cls-1" d="M43.93,21.43V32.3H50V21.43Zm3,9a1.6,1.6,0,1,1,1.6-1.6A1.6,1.6,0,0,1,47,30.45Zm0-4.7a1.6,1.6,0,1,1,1.6-1.6A1.6,1.6,0,0,1,47,25.75Z"/><path class="cls-2" d="M43.93,20.36V31.23H50V20.36Zm3,9a1.6,1.6,0,1,1,1.6-1.6A1.6,1.6,0,0,1,47,29.38Zm0-4.7a1.6,1.6,0,1,1,1.6-1.6A1.6,1.6,0,0,1,47,24.67Z"/><path class="cls-1" d="M0,21.43V32.3H6.07V21.43Zm3,9a1.6,1.6,0,1,1,1.6-1.6A1.6,1.6,0,0,1,3,30.45Zm0-4.7a1.6,1.6,0,1,1,1.6-1.6A1.6,1.6,0,0,1,3,25.75Z"/><path class="cls-2" d="M0,20.36V31.23H6.07V20.36Zm3,9a1.6,1.6,0,1,1,1.6-1.6A1.6,1.6,0,0,1,3,29.38Zm0-4.7a1.6,1.6,0,1,1,1.6-1.6A1.6,1.6,0,0,1,3,24.67Z"/><path class="cls-3" d="M29.62,20H22.53V13A3.93,3.93,0,0,0,18.6,9h0A3.93,3.93,0,0,0,14.66,13V20H7.58A3.93,3.93,0,0,0,3.65,24h0a3.93,3.93,0,0,0,3.93,3.93h7.08V35a3.93,3.93,0,0,0,3.93,3.93h0A3.93,3.93,0,0,0,22.53,35V27.92h7.08A3.93,3.93,0,0,0,33.55,24h0A3.93,3.93,0,0,0,29.62,20Z"/><path class="cls-4" d="M29.62,18.92H22.53V11.84A3.93,3.93,0,0,0,18.6,7.9h0a3.93,3.93,0,0,0-3.93,3.93v7.08H7.58a3.93,3.93,0,0,0-3.93,3.93h0a3.93,3.93,0,0,0,3.93,3.93h7.08v7.08A3.93,3.93,0,0,0,18.6,37.8h0a3.93,3.93,0,0,0,3.93-3.93V26.79h7.08a3.93,3.93,0,0,0,3.93-3.93h0A3.93,3.93,0,0,0,29.62,18.92Z"/><circle class="cls-5" cx="18.6" cy="22.99" r="3.93"/><circle class="cls-6" cx="18.6" cy="22.99" r="2.66"/><path class="cls-5" d="M19.47,22.54h-.56V22a.31.31,0,0,0-.31-.31h0a.31.31,0,0,0-.31.31v.56h-.56a.31.31,0,0,0-.31.31h0a.31.31,0,0,0,.31.31h.56v.56a.31.31,0,0,0,.31.31h0a.31.31,0,0,0,.31-.31v-.56h.56a.31.31,0,0,0,.31-.31h0A.31.31,0,0,0,19.47,22.54Z"/><circle class="cls-3" cx="18.6" cy="29.2" r="0.89"/><circle class="cls-3" cx="18.6" cy="32.36" r="0.89"/><circle class="cls-3" cx="18.6" cy="35.52" r="0.89"/><circle class="cls-3" cx="18.6" cy="10.47" r="0.89"/><circle class="cls-3" cx="18.6" cy="13.63" r="0.89"/><circle class="cls-3" cx="18.6" cy="16.79" r="0.89"/><circle class="cls-3" cx="12.39" cy="22.99" r="0.89"/><circle class="cls-3" cx="9.23" cy="22.99" r="0.89"/><circle class="cls-3" cx="6.07" cy="22.99" r="0.89"/><circle class="cls-3" cx="31.12" cy="22.99" r="0.89"/><circle class="cls-3" cx="27.96" cy="22.99" r="0.89"/><circle class="cls-3" cx="24.8" cy="22.99" r="0.89"/><rect class="cls-7" x="32.02" width="1.53" height="14.55"/><rect class="cls-5" x="34.11" width="1.53" height="14.55"/><rect class="cls-4" x="36.2" width="1.53" height="14.55"/></g></g></g></svg>