<svg xmlns="http://www.w3.org/2000/svg" xmlns:xlink="http://www.w3.org/1999/xlink" viewBox="0 0 200.2 201.99"><defs><style>.cls-1,.cls-18{fill:none;}.cls-2{fill:#ffd839;}.cls-3{clip-path:url(#clip-path);}.cls-4{fill:#e3e9db;}.cls-5{fill:#bdd9be;}.cls-6{fill:#edeef3;}.cls-7{fill:#d18b29;}.cls-8{fill:#d6b837;}.cls-9{fill:#ba2741;}.cls-10{fill:#e16156;}.cls-11{fill:#a01d21;}.cls-12{fill:#7c1920;}.cls-13{fill:#661720;}.cls-14{fill:#e16056;}.cls-15{fill:#313544;}.cls-16{fill:#454a62;}.cls-17{fill:#aa212b;}.cls-18{stroke:#313544;stroke-linejoin:bevel;}</style><clipPath id="clip-path"><rect class="cls-1" x="0.1" y="0.1" width="200" height="150" rx="2.78" ry="2.78"/></clipPath></defs><title>yellow-charactor</title><g id="Layer_2" data-name="Layer 2"><g id="all_projects" data-name="all projects"><rect class="cls-2" x="0.05" y="0.05" width="200.1" height="150.1" rx="2.83" ry="2.83"/><path d="M197.32.1a2.78,2.78,0,0,1,2.78,2.78V147.32a2.78,2.78,0,0,1-2.78,2.78H2.88A2.78,2.78,0,0,1,.1,147.32V2.88A2.78,2.78,0,0,1,2.88.1H197.32m0-.1H2.88A2.88,2.88,0,0,0,0,2.88V147.32a2.88,2.88,0,0,0,2.88,2.88H197.32a2.88,2.88,0,0,0,2.88-2.88V2.88A2.88,2.88,0,0,0,197.32,0Z"/><g class="cls-3"><polygon class="cls-4" points="96.51 136.66 85.08 143.23 85.08 195.43 96.51 188.86 96.51 136.66"/><polygon class="cls-5" points="85.08 143.23 80.62 140.91 80.62 193.11 85.08 195.43 85.08 143.23"/><polygon class="cls-6" points="96.51 136.66 92.05 134.34 80.62 140.91 85.08 143.23 96.51 136.66"/><polygon class="cls-4" points="110.07 143.22 98.64 149.79 98.64 201.99 110.07 195.42 110.07 143.22"/><polygon class="cls-5" points="98.64 149.79 94.17 147.47 94.17 199.67 98.64 201.99 98.64 149.79"/><polygon class="cls-6" points="110.07 143.22 105.6 140.9 94.17 147.47 98.64 149.79 110.07 143.22"/><polygon class="cls-4" points="93.34 93.65 80.17 94.1 55.73 140.23 68.91 139.77 93.34 93.65"/><polygon class="cls-5" points="80.17 94.1 77.31 89.96 52.88 136.09 55.73 140.23 80.17 94.1"/><polygon class="cls-6" points="93.34 93.65 90.49 89.51 77.31 89.96 80.17 94.1 93.34 93.65"/><polygon class="cls-7" points="74.97 121.22 101.57 136.57 101.57 165.32 65.13 144.06 74.97 121.22"/><polygon class="cls-8" points="101.57 136.57 128.17 121.22 136.04 144.06 101.57 165.32 101.57 136.57"/><polygon class="cls-2" points="74.97 121.22 101.57 105.86 128.17 121.22 101.57 136.57 74.97 121.22"/><polygon class="cls-7" points="75.06 87.93 101.66 103.29 101.66 134 75.06 118.64 75.06 87.93"/><polygon class="cls-8" points="101.66 103.29 128.26 87.93 128.26 118.64 101.66 134 101.66 103.29"/><polygon class="cls-2" points="75.06 87.93 101.66 72.57 128.26 87.93 101.66 103.29 75.06 87.93"/><polygon class="cls-9" points="77.59 59.1 77.59 47.09 87.98 41.09 95.34 45.22 95.34 57.22 84.95 63.23 77.59 59.1"/><polygon class="cls-10" points="95.34 45.22 87.98 41.09 77.59 47.09 84.95 51.22 95.34 45.22"/><polygon class="cls-11" points="84.95 51.22 84.95 63.23 95.34 57.22 95.34 45.22 84.95 51.22"/><polygon class="cls-12" points="86.52 52.13 86.52 60.5 93.77 56.31 93.77 47.95 86.52 52.13"/><polygon class="cls-13" points="93.77 56.31 93.77 47.95 86.52 52.13 93.77 56.31"/><polygon class="cls-7" points="75.06 50.05 101.66 65.41 101.66 96.12 75.06 80.76 75.06 50.05"/><polygon class="cls-8" points="101.66 65.41 128.26 50.05 128.26 80.76 101.66 96.12 101.66 65.41"/><polygon class="cls-2" points="75.06 50.05 101.66 34.69 128.26 50.05 101.66 65.41 75.06 50.05"/><polygon class="cls-5" points="85.48 62.42 85.48 71.59 80.33 74.56 80.33 65.39 85.48 62.42"/><polygon class="cls-4" points="80.33 65.39 72.39 60.81 77.55 57.84 85.48 62.42 80.33 65.39"/><polygon class="cls-6" points="80.33 74.56 80.33 65.39 72.39 60.81 72.39 69.97 80.33 74.56"/><path class="cls-10" d="M75.39,66l1.94,1.12v2.24l-1.94-1.12V66m-3-5.2V70l7.94,4.58V65.39l-7.94-4.58Z"/><path class="cls-14" d="M74.81,66.32l1.94,1.12v2.24l-1.94-1.12V66.32m-3-5.2v9.17l7.94,4.58V65.71l-7.94-4.58Z"/><polygon class="cls-15" points="79.75 74.87 79.75 65.7 80.33 65.39 80.33 74.56 79.75 74.87"/><polygon class="cls-16" points="79.75 65.7 71.81 61.12 72.39 60.81 80.33 65.39 79.75 65.7"/><polygon class="cls-15" points="72.41 62.16 72.99 62.49 72.98 69.64 72.39 69.97 72.41 62.16"/><polygon class="cls-16" points="72.98 69.64 72.39 69.97 79.16 73.86 79.16 73.2 72.98 69.64"/><polygon class="cls-16" points="78.57 71.5 78.57 66.41 74.16 63.86 74.16 68.95 78.57 71.5"/><polygon class="cls-6" points="76.07 67.15 76.07 65.71 74.83 64.99 74.83 66.43 76.07 67.15"/><polygon class="cls-5" points="99.16 70.62 99.16 79.79 94.01 82.76 94.01 73.59 99.16 70.62"/><polygon class="cls-4" points="94.01 73.59 86.07 69.01 91.22 66.04 99.16 70.62 94.01 73.59"/><polygon class="cls-6" points="94.01 82.76 94.01 73.59 86.07 69.01 86.07 78.18 94.01 82.76"/><path class="cls-10" d="M89.07,74.21,91,75.33v2.24l-1.94-1.12V74.21m-3-5.2v9.17L94,82.76V73.59L86.07,69Z"/><path class="cls-14" d="M88.49,74.52l1.94,1.12v2.24l-1.94-1.12V74.52m-3-5.2v9.17l7.94,4.58V73.91l-7.94-4.58Z"/><polygon class="cls-15" points="93.42 83.08 93.42 73.91 94.01 73.59 94.01 82.76 93.42 83.08"/><polygon class="cls-16" points="93.42 73.91 85.48 69.33 86.07 69.01 94.01 73.59 93.42 73.91"/><polygon class="cls-15" points="86.08 70.36 86.66 70.69 86.65 77.84 86.07 78.18 86.08 70.36"/><polygon class="cls-16" points="86.65 77.84 86.07 78.18 92.83 82.06 92.83 81.41 86.65 77.84"/><polygon class="cls-16" points="92.24 79.7 92.24 74.61 87.83 72.07 87.83 77.16 92.24 79.7"/><polygon class="cls-6" points="89.75 75.35 89.75 73.91 88.5 73.19 88.5 74.63 89.75 75.35"/><polygon class="cls-10" points="82.13 82.59 82.13 81.06 83.46 80.29 83.46 81.83 82.13 82.59"/><polygon class="cls-10" points="90.94 90.09 90.94 85.79 92.27 85.02 92.27 89.33 90.94 90.09"/><polygon class="cls-10" points="87.35 89.92 87.35 88.02 88.68 87.25 88.68 89.16 87.35 89.92"/><polygon class="cls-9" points="78.39 78.9 79.72 78.14 83.46 80.29 82.13 81.06 78.39 78.9"/><polygon class="cls-9" points="82.14 82.6 83.47 81.84 88.54 84.77 87.21 85.53 82.14 82.6"/><polygon class="cls-9" points="87.21 83.63 88.53 82.86 92.27 85.02 90.94 85.79 87.21 83.63"/><polygon class="cls-11" points="90.94 85.78 87.21 83.63 87.21 85.53 82.13 82.58 82.13 81.06 78.39 78.9 78.39 83.21 81.6 85.06 81.6 86.58 87.35 89.92 87.35 88.02 90.94 90.09 90.94 85.78"/><polygon class="cls-9" points="110.51 80.53 110.51 68.53 120.9 62.53 128.26 66.66 128.26 78.66 117.87 84.66 110.51 80.53"/><polygon class="cls-10" points="128.26 66.66 120.9 62.53 110.51 68.53 117.87 72.66 128.26 66.66"/><polygon class="cls-11" points="117.87 72.66 117.87 84.66 128.26 78.66 128.26 66.66 117.87 72.66"/><polygon class="cls-12" points="119.44 73.57 119.44 81.93 126.69 77.75 126.69 69.38 119.44 73.57"/><polygon class="cls-13" points="126.69 77.75 126.69 69.38 119.44 73.57 126.69 77.75"/><polygon class="cls-9" points="93.59 45.29 101.66 49.95 101.66 54.22 93.59 49.56 93.59 45.29"/><polygon class="cls-11" points="101.66 49.95 109.73 45.29 109.73 49.56 101.66 54.22 101.66 49.95"/><polygon class="cls-10" points="93.59 45.29 101.66 40.63 109.73 45.29 101.66 49.95 93.59 45.29"/><polygon class="cls-9" points="87.45 21.96 99.58 29.2 99.58 35.76 87.45 28.53 87.45 21.96"/><polygon class="cls-11" points="99.58 29.2 105.27 25.91 105.27 32.48 99.58 35.76 99.58 29.2"/><polygon class="cls-10" points="87.45 21.96 93.14 18.68 105.27 25.91 99.58 29.2 87.45 21.96"/><polygon class="cls-9" points="96.36 18.68 101.66 21.74 101.66 48.37 96.36 45.31 96.36 18.68"/><polygon class="cls-11" points="101.66 21.74 106.97 18.68 106.97 45.31 101.66 48.37 101.66 21.74"/><polygon class="cls-17" points="96.36 18.68 101.66 9.67 106.97 18.68 101.66 21.74 96.36 18.68"/><polygon class="cls-10" points="101.66 9.67 101.66 21.74 96.36 18.68 101.66 9.67"/><polygon class="cls-9" points="101.57 30.09 111.47 36 111.47 42.56 101.57 36.65 101.57 30.09"/><polygon class="cls-11" points="111.47 36 117.15 32.71 117.15 39.28 111.47 42.56 111.47 36"/><polygon class="cls-10" points="101.57 30.09 107.25 26.8 117.15 32.71 111.47 36 101.57 30.09"/><polygon class="cls-4" points="125.81 105.28 114.39 111.85 114.39 164.05 125.81 157.47 125.81 105.28"/><polygon class="cls-5" points="114.39 111.85 109.92 109.53 109.92 161.72 114.39 164.05 114.39 111.85"/><polygon class="cls-6" points="125.81 105.28 121.35 102.95 109.92 109.53 114.39 111.85 125.81 105.28"/><polygon class="cls-11" points="98.68 107.29 98.68 119.26 91.94 123.14 91.94 111.17 98.68 107.29"/><polygon class="cls-9" points="91.94 111.17 81.58 105.18 88.31 101.3 98.68 107.29 91.94 111.17"/><polygon class="cls-6" points="91.94 123.14 91.94 111.17 81.58 105.18 81.58 117.16 91.94 123.14"/><path class="cls-10" d="M84.58,110.38l4.37,2.52v5l-4.37-2.52v-5m-3-5.2v12l10.37,6v-12l-10.37-6Z"/><path class="cls-14" d="M83.82,110.79l4.37,2.52v5l-4.37-2.52v-5m-3-5.2v12l10.37,6v-12l-10.37-6Z"/><polygon class="cls-11" points="91.19 123.55 91.19 111.58 91.94 111.17 91.94 123.14 91.19 123.55"/><polygon class="cls-9" points="91.19 111.58 80.82 105.59 81.58 105.18 91.94 111.17 91.19 111.58"/><polygon class="cls-11" points="81.59 106.95 82.35 107.38 82.34 116.72 81.58 117.16 81.59 106.95"/><polygon class="cls-9" points="82.34 116.72 81.58 117.16 90.42 122.23 90.42 121.38 82.34 116.72"/><polygon class="cls-18" points="89.83 115.93 89.83 112.39 83.69 108.85 83.69 112.39 89.83 115.93"/><polygon class="cls-15" points="86.74 112.26 86.74 110.61 86.27 110.35 86.27 111.99 86.74 112.26"/><polygon class="cls-14" points="86.74 114 86.74 112.61 86.27 112.34 86.27 113.73 86.74 114"/><polygon class="cls-15" points="89.83 119.3 89.83 117.36 83.42 113.72 83.42 115.66 89.83 119.3"/><polygon class="cls-14" points="89.83 119.3 89.83 117.36 86 115.22 86 117.16 89.83 119.3"/></g></g></g></svg>