<svg xmlns="http://www.w3.org/2000/svg" viewBox="0 0 32.35 32.35"><defs><style>.cls-1{fill:gray;}</style></defs><title>blueprint</title><g id="Layer_2" data-name="Layer 2"><g id="UX-mock-up"><rect class="cls-1" x="2.55" y="12.44" width="7.51" height="7.51" rx="1" ry="1" transform="translate(13.3 0.29) rotate(45)"/><rect class="cls-1" x="0.33" y="12.7" width="1.61" height="1.61" transform="translate(-9.21 4.76) rotate(-45)"/><rect class="cls-1" x="2.72" y="10.31" width="1.61" height="1.61" transform="translate(-6.83 5.75) rotate(-45)"/><rect class="cls-1" x="8.2" y="20.56" width="1.61" height="1.61" transform="translate(-12.47 12.62) rotate(-45)"/><rect class="cls-1" x="10.58" y="18.18" width="1.61" height="1.61" transform="translate(-10.09 13.61) rotate(-45)"/><rect class="cls-1" x="8.09" y="10.34" width="1.61" height="1.61" transform="translate(-5.27 9.55) rotate(-45)"/><rect class="cls-1" x="10.48" y="12.72" width="1.61" height="1.61" transform="translate(-6.26 11.94) rotate(-45)"/><rect class="cls-1" x="0.45" y="17.98" width="1.61" height="1.61" transform="translate(-12.92 6.39) rotate(-45)"/><rect class="cls-1" x="2.83" y="20.37" width="1.61" height="1.61" transform="translate(-13.91 8.77) rotate(-45)"/><rect class="cls-1" x="12.53" y="2.46" width="7.51" height="7.51" rx="1" ry="1" transform="translate(9.17 -9.69) rotate(45)"/><rect class="cls-1" x="10.31" y="2.72" width="1.61" height="1.61" transform="translate(0.77 8.89) rotate(-45)"/><rect class="cls-1" x="12.7" y="0.33" width="1.61" height="1.61" transform="translate(3.15 9.88) rotate(-45)"/><rect class="cls-1" x="18.18" y="10.58" width="1.61" height="1.61" transform="translate(-2.49 16.76) rotate(-45)"/><rect class="cls-1" x="20.56" y="8.2" width="1.61" height="1.61" transform="translate(-0.11 17.75) rotate(-45)"/><rect class="cls-1" x="18.07" y="0.36" width="1.61" height="1.61" transform="translate(4.71 13.69) rotate(-45)"/><rect class="cls-1" x="20.46" y="2.74" width="1.61" height="1.61" transform="translate(3.72 16.07) rotate(-45)"/><rect class="cls-1" x="10.43" y="8" width="1.61" height="1.61" transform="translate(-2.94 10.52) rotate(-45)"/><rect class="cls-1" x="12.81" y="10.39" width="1.61" height="1.61" transform="translate(-3.93 12.9) rotate(-45)"/><rect class="cls-1" x="12.39" y="22.28" width="7.51" height="7.51" rx="1" ry="1" transform="translate(23.14 -3.79) rotate(45)"/><rect class="cls-1" x="10.17" y="22.54" width="1.61" height="1.61" transform="translate(-13.29 14.6) rotate(-45)"/><rect class="cls-1" x="12.56" y="20.16" width="1.61" height="1.61" transform="translate(-10.91 15.59) rotate(-45)"/><rect class="cls-1" x="18.04" y="30.41" width="1.61" height="1.61" transform="translate(-16.55 22.47) rotate(-45)"/><rect class="cls-1" x="20.43" y="28.02" width="1.61" height="1.61" transform="translate(-14.16 23.45) rotate(-45)"/><rect class="cls-1" x="17.93" y="20.18" width="1.61" height="1.61" transform="translate(-9.35 19.39) rotate(-45)"/><rect class="cls-1" x="20.32" y="22.56" width="1.61" height="1.61" transform="translate(-10.34 21.78) rotate(-45)"/><rect class="cls-1" x="10.29" y="27.83" width="1.61" height="1.61" transform="translate(-17 16.23) rotate(-45)"/><rect class="cls-1" x="12.67" y="30.21" width="1.61" height="1.61" transform="translate(-17.98 18.61) rotate(-45)"/><rect class="cls-1" x="22.37" y="12.3" width="7.51" height="7.51" rx="1" ry="1" transform="translate(19.01 -13.77) rotate(45)"/><rect class="cls-1" x="20.16" y="12.56" width="1.61" height="1.61" transform="translate(-3.31 18.73) rotate(-45)"/><rect class="cls-1" x="22.54" y="10.17" width="1.61" height="1.61" transform="translate(-0.93 19.72) rotate(-45)"/><rect class="cls-1" x="28.02" y="20.43" width="1.61" height="1.61" transform="translate(-6.57 26.6) rotate(-45)"/><rect class="cls-1" x="30.41" y="18.04" width="1.61" height="1.61" transform="translate(-4.18 27.59) rotate(-45)"/><rect class="cls-1" x="27.91" y="10.2" width="1.61" height="1.61" transform="translate(0.63 23.53) rotate(-45)"/><rect class="cls-1" x="30.3" y="12.58" width="1.61" height="1.61" transform="translate(-0.36 25.91) rotate(-45)"/><rect class="cls-1" x="20.27" y="17.85" width="1.61" height="1.61" transform="translate(-7.02 20.36) rotate(-45)"/><rect class="cls-1" x="22.65" y="20.23" width="1.61" height="1.61" transform="translate(-8 22.75) rotate(-45)"/></g></g></svg>