<svg xmlns="http://www.w3.org/2000/svg" viewBox="0 0 25.43 25.7"><defs><style>.cls-1{fill:gray;}.cls-2{fill:gray;}</style></defs><title>canvas</title><g id="Layer_2" data-name="Layer 2"><g id="UX-mock-up"><path class="cls-1" d="M18.29,19.79h-11a1.5,1.5,0,0,1-1.5-1.5v-11a1.5,1.5,0,0,1,1.5-1.5h11a1.5,1.5,0,0,1,1.5,1.5v11A1.5,1.5,0,0,1,18.29,19.79Zm-11-13a.5.5,0,0,0-.5.5v11a.5.5,0,0,0,.5.5h11a.5.5,0,0,0,.5-.5v-11a.5.5,0,0,0-.5-.5Z"/><rect class="cls-2" x="12.4" width="13.03" height="13.03" rx="1" ry="1" transform="translate(25.43 -12.4) rotate(90)"/><rect class="cls-2" y="12.67" width="13.03" height="13.03" rx="1" ry="1" transform="translate(25.7 12.67) rotate(90)"/></g></g></svg>