<svg xmlns="http://www.w3.org/2000/svg" viewBox="0 0 28.09 28.63"><defs><style>.cls-1{fill:#464a62;}</style></defs><title>devices</title><g id="Layer_2" data-name="Layer 2"><g id="UX-mock-up"><path class="cls-1" d="M11.77,11h5.55V5.49a1,1,0,0,0-1-1H5.22a1,1,0,0,0-1,1v11.1a1,1,0,0,0,1,1h5.55V12A1,1,0,0,1,11.77,11Z"/><rect class="cls-1" x="6.34" width="2.79" height="2.79"/><rect class="cls-1" x="12.19" width="2.79" height="2.79"/><rect class="cls-1" x="6.34" y="19.29" width="2.79" height="2.79"/><rect class="cls-1" x="18.75" y="6.62" width="2.79" height="2.79"/><rect class="cls-1" y="6.62" width="2.79" height="2.79"/><rect class="cls-1" y="12.47" width="2.79" height="2.79"/><path class="cls-1" d="M22.87,11H17.32v5.55a1,1,0,0,1-1,1H10.77v5.55a1,1,0,0,0,1,1h11.1a1,1,0,0,0,1-1V12A1,1,0,0,0,22.87,11ZM15,22.08H12.19V19.29H15Zm6.56-6.82H18.75V12.47h2.79Z"/><rect class="cls-1" x="12.89" y="25.84" width="2.79" height="2.79"/><rect class="cls-1" x="18.74" y="25.84" width="2.79" height="2.79"/><rect class="cls-1" x="25.3" y="13.17" width="2.79" height="2.79"/><rect class="cls-1" x="25.3" y="19.02" width="2.79" height="2.79"/></g></g></svg>