<svg xmlns="http://www.w3.org/2000/svg" viewBox="0 0 50 41.93"><defs><style>.cls-1{fill:#313544;}.cls-2{fill:#454a62;}.cls-3{fill:#a11e22;}.cls-4{fill:#e16056;}.cls-5{fill:#d18b29;}.cls-6{fill:#ffd839;}</style></defs><title>AcceleX</title><g id="Layer_2" data-name="Layer 2"><g id="ActionKit-on-list"><polygon class="cls-1" points="2 40.05 1.22 38.59 22.87 26.95 22.87 1.07 24.52 1.07 24.52 27.94 2 40.05"/><polygon class="cls-2" points="0.78 38.98 0 37.52 21.65 25.88 21.65 0 23.3 0 23.3 26.87 0.78 38.98"/><polygon class="cls-3" points="50 41.92 44.95 35.44 43.98 37.72 24.09 27.02 23.3 28.48 43.15 39.16 40.73 41.1 50 41.92"/><polygon class="cls-4" points="50 40.36 44.95 33.87 43.98 36.15 24.52 25.98 23.3 26.91 43.15 37.59 40.73 39.53 50 40.36"/><polygon class="cls-3" points="23.3 28.48 23.3 26.91 43.15 37.59 41.98 38.52 23.3 28.48"/><polygon class="cls-3" points="40.73 39.53 40.73 41.1 50 41.92 50 40.36 40.73 39.53"/><polygon class="cls-1" points="23.3 0 23.3 1.07 24.52 1.07 23.3 0"/><polygon class="cls-1" points="0.78 38.98 1.28 38.71 2 40.05 0.78 38.98"/><path class="cls-5" d="M37.89,23.87l-1-2.48c-.4-1-.66-1.67-1-2.45l0,0a15.47,15.47,0,0,1-.84,1.52l-.9,1.5-2.81-1.46,3.14-3.86-3-6.94,2.82,1.46,1,2.48c.32.83.56,1.49.82,2.23l0,0c.26-.56.47-.93.74-1.42l.92-1.51,2.81,1.46L37.5,18.11l3.22,7.24Z"/><path class="cls-6" d="M37.1,24.67l-1-2.48c-.4-1-.66-1.67-1-2.45l0,0a15.47,15.47,0,0,1-.84,1.52l-.9,1.5-2.81-1.46,3.14-3.86-3-6.94,2.82,1.46,1,2.48c.32.83.56,1.49.82,2.23l0,0c.26-.56.47-.93.74-1.42L37,13.73l2.81,1.46L36.71,18.9l3.22,7.24Z"/><polygon class="cls-5" points="31.47 9.67 30.68 10.47 33.5 11.93 34.3 11.14 31.47 9.67"/><polygon class="cls-5" points="37.76 12.94 36.97 13.73 39.77 15.19 40.57 14.39 37.76 12.94"/><polygon class="cls-5" points="39.93 26.14 40.73 25.34 39.23 24.57 39.93 26.14"/><polygon class="cls-5" points="33.37 22.73 34.17 21.94 33.93 21.81 33.37 22.73"/></g></g></svg>