<svg xmlns="http://www.w3.org/2000/svg" viewBox="0 0 50 41.93"><defs><style>.cls-1{fill:#313544;}.cls-2{fill:#454a62;}.cls-3{fill:#a11e22;}.cls-4{fill:#e16056;}.cls-5{fill:#d18b29;}.cls-6{fill:#ffd839;}</style></defs><title>AcceleY</title><g id="Layer_2" data-name="Layer 2"><g id="ActionKit-on-list"><polygon class="cls-1" points="48 40.05 48.78 38.59 27.13 26.95 27.13 1.07 25.48 1.07 25.48 27.94 48 40.05"/><polygon class="cls-2" points="49.22 38.98 50 37.52 28.35 25.88 28.35 0 26.7 0 26.7 26.87 49.22 38.98"/><polygon class="cls-3" points="0 41.92 5.05 35.44 6.02 37.72 25.91 27.02 26.7 28.48 6.85 39.16 9.27 41.1 0 41.92"/><polygon class="cls-4" points="0 40.36 5.05 33.87 6.02 36.15 25.48 25.98 26.7 26.91 6.85 37.59 9.27 39.53 0 40.36"/><polygon class="cls-3" points="26.7 28.48 26.7 26.91 6.85 37.59 8.02 38.52 26.7 28.48"/><polygon class="cls-3" points="9.27 39.53 9.27 41.1 0 41.92 0 40.36 9.27 39.53"/><polygon class="cls-1" points="26.7 0 26.7 1.07 25.48 1.07 26.7 0"/><polygon class="cls-1" points="49.22 38.98 48.72 38.71 48 40.05 49.22 38.98"/><path class="cls-5" d="M13.66,28.23V22.87L9.52,17.18l3.38-1.67L14.24,18c.41.75.68,1.32,1,2l0,0c.29-1,.6-1.87,1-3l1.32-3.8,3.32-1.64-4.31,9.77v5.46Z"/><path class="cls-6" d="M14.93,28.9V23.54l-4.14-5.69,3.38-1.67,1.34,2.49c.41.75.68,1.32,1,2l0,0c.29-1,.6-1.87,1-3l1.32-3.8,3.32-1.64L17.88,22v5.46Z"/><polygon class="cls-5" points="9.52 17.18 10.79 17.85 14.17 16.18 12.9 15.51 9.52 17.18"/><polygon class="cls-5" points="17.6 13.18 18.87 13.85 22.2 12.21 20.93 11.54 17.6 13.18"/><polygon class="cls-5" points="13.66 28.23 14.93 28.9 14.93 27.6 13.66 28.23"/></g></g></svg>