<svg xmlns="http://www.w3.org/2000/svg" viewBox="0 0 29.86 50"><defs><style>.cls-1{fill:#d18b29;}.cls-2{fill:#313544;}.cls-3{fill:#ffd839;}.cls-4{fill:#454a62;}.cls-5{fill:#575d77;}.cls-6{fill:#f4f4f5;}</style></defs><title>Accele_fall</title><g id="Layer_2" data-name="Layer 2"><g id="ActionKit-on-list"><path class="cls-1" d="M28.56,5.09H1.29A1.29,1.29,0,0,0,0,6.38V33.66a1.29,1.29,0,0,0,1.29,1.29H12.34V20h5.17V34.95H28.56a1.29,1.29,0,0,0,1.29-1.29V6.38A1.29,1.29,0,0,0,28.56,5.09Z"/><rect class="cls-1" x="12.34" y="34.95" width="5.17" height="5.09"/><rect class="cls-2" x="12.34" y="20.02" width="5.17" height="14.93"/><path class="cls-3" d="M28.56,0H1.29A1.29,1.29,0,0,0,0,1.29V28.56a1.29,1.29,0,0,0,1.29,1.29H12.34V14.93h5.17V29.86H28.56a1.29,1.29,0,0,0,1.29-1.29V1.29A1.29,1.29,0,0,0,28.56,0Z"/><rect class="cls-4" x="12.34" y="29.86" width="5.17" height="5.09"/><polygon class="cls-2" points="14.93 50 21.42 38.75 8.43 38.75 14.93 50"/><rect class="cls-2" x="8.43" y="33.66" width="12.99" height="5.09"/><polygon class="cls-4" points="14.93 44.91 21.42 33.66 8.43 33.66 14.93 44.91"/><polygon class="cls-5" points="14.93 44.91 14.93 50 8.43 38.75 8.43 33.66 14.93 44.91"/><rect class="cls-6" x="0.79" y="1.99" width="0.43" height="25.91"/><rect class="cls-3" x="0.79" y="30.62" width="0.43" height="3.26"/></g></g></svg>