<svg xmlns="http://www.w3.org/2000/svg" viewBox="0 0 35.76 50.5"><defs><style>.cls-1{fill:#454a62;}.cls-2{fill:none;stroke:#454a62;stroke-miterlimit:10;}.cls-3{fill:#d18b29;}.cls-4{fill:#ffd839;}.cls-5{fill:#f4f4f5;}</style></defs><title>Accele_Tap</title><g id="Layer_2" data-name="Layer 2"><g id="ActionKit-on-list"><circle class="cls-1" cx="12.69" cy="8.53" r="6.46"/><circle class="cls-2" cx="12.69" cy="8.53" r="8.03"/><path class="cls-3" d="M30.48,50.5a5.28,5.28,0,0,0,5.28-5.28V27.27A5.28,5.28,0,0,0,30.48,22H16.15V11.61a1.06,1.06,0,0,0-1.06-1.06H10.67a1.06,1.06,0,0,0-1.06,1.06v26.5L4.93,33.43a1.06,1.06,0,0,0-1.49,0L.31,36.56a1.06,1.06,0,0,0,0,1.49L10.93,48.67a5.28,5.28,0,0,0,.51.51l.09.09h0a5.23,5.23,0,0,0,3.36,1.24Z"/><polygon class="cls-3" points="0 37.31 0 32.3 2.58 34.8 0 37.31"/><path class="cls-4" d="M30.48,45.5a5.28,5.28,0,0,0,5.28-5.28V22.27A5.28,5.28,0,0,0,30.48,17H16.15V6.61A1.06,1.06,0,0,0,15.1,5.55H10.67A1.06,1.06,0,0,0,9.61,6.61v26.5L4.93,28.43a1.06,1.06,0,0,0-1.49,0L.31,31.56a1.06,1.06,0,0,0,0,1.49L10.93,43.67a5.28,5.28,0,0,0,.51.51l.09.09h0a5.23,5.23,0,0,0,3.36,1.24Z"/><rect class="cls-5" x="22.69" y="16.99" width="1.06" height="13.72"/><rect class="cls-5" x="29.22" y="16.99" width="1.06" height="13.72"/><rect class="cls-5" x="16.15" y="16.99" width="1.06" height="13.72"/></g></g></svg>