<svg xmlns="http://www.w3.org/2000/svg" viewBox="0 0 46.26 50"><defs><style>.cls-1{fill:#454a62;}.cls-2{fill:#313544;}.cls-3{fill:#a11e22;}.cls-4{fill:#e16056;}.cls-5{fill:#d18b29;}.cls-6{fill:#ffd839;}</style></defs><title>AcceleZ</title><g id="Layer_2" data-name="Layer 2"><g id="ActionKit-on-list"><polygon class="cls-1" points="46.26 43.8 45.35 45.22 24.29 31.61 1.17 44.35 0.35 42.88 24.36 29.65 46.26 43.8"/><polygon class="cls-2" points="45.91 45.42 44.99 46.84 23.93 33.23 0.81 45.97 0 44.49 24 31.26 45.91 45.42"/><polygon class="cls-3" points="24.31 0 21 7.7 23.52 7.45 23.76 30.49 25.44 30.47 25.21 7.48 28.14 8.69 24.31 0"/><polygon class="cls-4" points="22.91 0.77 19.6 8.48 22.12 8.22 22.61 30.61 24.04 31.24 23.8 8.25 26.73 9.46 22.91 0.77"/><polygon class="cls-3" points="25.44 30.47 24.04 31.24 23.8 8.25 25.22 8.84 25.44 30.47"/><polygon class="cls-1" points="0 44.49 0.95 43.96 0.35 42.88 0 44.49"/><polygon class="cls-1" points="45.91 45.42 45.42 45.1 46.26 43.8 45.91 45.42"/><polygon class="cls-3" points="22.91 0.77 24.31 0 28.14 8.69 26.73 9.46 22.91 0.77"/><path class="cls-5" d="M12.24,42.76l14.7-1.29.08,0L21.73,37.9l2.42-1.41L33,42.4l-1.69,1L16.89,44.69l-.08,0,5.8,3.85L20.2,50l-9.53-6.33Z"/><polygon class="cls-5" points="10.67 43.67 10.58 41.85 20.11 48.18 22.52 46.77 22.62 48.59 20.2 50 10.67 43.67"/><polygon class="cls-5" points="32.94 40.58 33.04 42.4 31.35 43.38 31.26 41.56 32.94 40.58"/><polygon class="cls-5" points="21.63 36.09 21.73 37.91 23.14 37.08 21.63 36.09"/><path class="cls-6" d="M12.15,40.94l14.7-1.29.08,0-5.29-3.51L24,34.68l8.89,5.9-1.69,1L16.8,42.87l-.08,0,5.8,3.85-2.42,1.41-9.53-6.33Z"/></g></g></svg>