<svg xmlns="http://www.w3.org/2000/svg" viewBox="0 0 26.18 50"><defs><style>.cls-1{fill:#313544;}.cls-2{fill:#454a62;}.cls-3{fill:#92967b;}.cls-4{fill:#bdd9be;}.cls-5{fill:#575d77;}.cls-6{fill:#d18b29;}.cls-7{fill:#ffd839;}.cls-8{fill:#b0b0b0;}.cls-9{fill:#d8d8d8;}.cls-10{fill:#a11e22;}.cls-11{fill:#e16056;}</style></defs><title>Barometer_Altitude</title><g id="Layer_2" data-name="Layer 2"><g id="ActionKit-on-list"><rect class="cls-1" y="23.82" width="26.18" height="26.18" rx="5" ry="5"/><rect class="cls-2" y="18.62" width="26.18" height="26.18" rx="5" ry="5"/><path class="cls-3" d="M3.4,24.46s-.84-.33-1.08,0-1,.38-.78.68.6-.17.72.37.2,1.26.2,1.26-.62-.08-.74.35-.84,1.17-.21,1a1.22,1.22,0,0,1,1.05.2l.6-.2.78.41a.55.55,0,0,1,.48.51,1.18,1.18,0,0,1-.42.89s-.48-.37-.66,0a2.7,2.7,0,0,1-.5.68s.62,1,1.1.64,1.08-.53,1.14-.35-.18,1,0,1.23l.18.21H4.13l-.48-.21L3,32.53s-1,.25-.84.49a2.12,2.12,0,0,1,.12.72,3.23,3.23,0,0,0,.24.9c.18.36.36,0,.48.72s.28,1.9.28,1.9v1s-.16.6.5.3.36-.14.78-.61L5,37.48l1-.2s.42.07.3-.56.3-.08-.12-.62.06-.06-.42-.54S5,34.77,5,34.77L4.79,34v-.7l.36-.42a.46.46,0,0,1,.36-.06,2.39,2.39,0,0,1,.54.42l.9-.73.63-.38S8.76,32,9,32.28s.12.45.54.93l.42.48,1-.42s-.42-.5,0-.73a7.86,7.86,0,0,0,1-.67l.6,0,.84.7s.24.79.3,1-.48.25.12.52.36,0,.6.26.12.24,0,.72-.36.81,0,1.13.48.06.72.58.54.58.66.88l.42,1v.52h.36s.78.36.3-.42,0-.72-.48-.78-.3-.68-.3-.68h1.2s.06.07.66-.56.54-.14.6-.62.12-.18.06-.48-.13-.06,0-.66A2.87,2.87,0,0,1,19,34l.78-.64s.18.3.66-.18l.66-.67a.86.86,0,0,0,1-.38l.28-.57.36-1V29.33l.24-.4.54-.8.36-.1a9.2,9.2,0,0,0,.72-.91A10.53,10.53,0,0,0,25,25.89c-.84-.86-.72-.27-1.08-.75a4.07,4.07,0,0,0-.9-.83s-.48-.76-1.08-.6a4,4,0,0,0-1.08.28,16.18,16.18,0,0,0-2.23,1.14,1.55,1.55,0,0,1-1,0c-.48-.18-1.08-.71-1.32-.68A12.09,12.09,0,0,1,14.89,24a8.46,8.46,0,0,1-.9-.28h-.86l-.82.74H8.24a7,7,0,0,0-1-.46c-.42-.12-1-.3-1.26-.42s-.18-.42-.78-.36A3.65,3.65,0,0,0,3.71,24Z"/><polygon class="cls-3" points="20.72 34.02 19.82 34.59 19.7 35.07 20.21 35.07 20.72 34.55 20.72 34.02"/><path class="cls-3" d="M24.27,29.95s-.12.38-.24.68l-.12.3.66-.39C24.75,30.14,24.27,29.95,24.27,29.95Z"/><path class="cls-3" d="M24.26,31.54l-.35.32-.24.67a.79.79,0,0,1,0,.85,1.11,1.11,0,0,0-.3.64h.89s.39-.46.35-.64a2.85,2.85,0,0,1,0-.6s.56-.82.38-.92S24.26,31.54,24.26,31.54Z"/><polygon class="cls-3" points="23.37 34.55 22.53 35.07 22.95 35.49 23.67 35.49 23.91 35.02 23.37 34.55"/><path class="cls-3" d="M17.18,40.36l-.78-.52a3.08,3.08,0,0,0-.6,0c-.18,0-.72.4-.54.52s.24-.48.48,0a3.36,3.36,0,0,0,.46.72l.44.54.54.18.3-.54Z"/><polygon class="cls-3" points="19.7 35.07 19.7 34.37 20.21 34.37 20.72 33.85 20.72 33.32 20.72 34.02 20.72 34.55 19.7 35.07"/><polygon class="cls-3" points="22.53 35.07 22.53 34.37 23.91 34.32 23.91 35.02 22.53 35.07"/><rect class="cls-3" x="23.37" y="33.32" width="0.89" height="0.7"/><polygon class="cls-3" points="23.67 32.53 23.67 31.83 24.99 31.16 25.03 31.97 23.67 32.53"/><path class="cls-3" d="M23.91,30.22v.7l.66-.39a.56.56,0,0,0,0-.2c0-.06,0-.68,0-.68l0,.18Z"/><path class="cls-3" d="M18.64,35.07v.7l-.13-.14.05-.24S18.59,35.1,18.64,35.07Z"/><polygon class="cls-3" points="24.99 25.89 24.99 25.19 24.85 25.75 24.99 25.89"/><polygon class="cls-3" points="15.21 39.6 15.21 40.31 15.87 39.91 15.87 39.29 15.21 39.6"/><polygon class="cls-3" points="17.48 40.56 17.48 41.26 17.33 40.83 17.48 40.56"/><polygon class="cls-3" points="17.03 38.43 17.03 39.13 16.21 39.16 16.21 38.46 17.03 38.43"/><polygon class="cls-3" points="16.04 37.51 16.21 37.94 16.21 38.64 15.88 37.82 16.04 37.51"/><polygon class="cls-3" points="14.22 35.11 14.22 35.79 14.65 35.59 14.22 35.11"/><polygon class="cls-3" points="13.52 33.8 13.52 33.1 14.22 33.32 14.15 34.1 13.52 33.8"/><polygon class="cls-3" points="10.98 32.56 10.98 33.27 9.96 33.69 9.96 32.99 10.98 32.56"/><path class="cls-3" d="M6.05,33.27V32H4.77v1.34s.2-.55.62-.52A.86.86,0,0,1,6.05,33.27Z"/><polygon class="cls-3" points="2.84 30.62 2.84 29.92 3.18 30.34 2.84 30.62"/><polygon class="cls-3" points="1.26 27.35 1.26 28.08 1.97 27.4 1.26 27.35"/><polygon class="cls-3" points="1.51 24.35 1.51 25.06 2.29 24.94 2.29 24.38 1.51 24.35"/><polygon class="cls-3" points="2.14 32.25 2.14 32.95 2.61 32.8 2.14 32.25"/><path class="cls-4" d="M3.4,23.76s-.84-.33-1.08,0-1,.38-.78.68.6-.17.72.37.2,1.26.2,1.26-.62-.08-.74.35-.84,1.17-.21,1a1.22,1.22,0,0,1,1.05.2l.6-.2.78.41a.55.55,0,0,1,.48.51,1.18,1.18,0,0,1-.42.89s-.48-.37-.66,0a2.7,2.7,0,0,1-.5.68s.62,1,1.1.64S5,30,5.09,30.22s-.18,1,0,1.23l.18.21H4.13l-.48-.21L3,31.83s-1,.25-.84.49a2.12,2.12,0,0,1,.12.72,3.23,3.23,0,0,0,.24.9c.18.36.36,0,.48.72s.28,1.9.28,1.9v1s-.16.6.5.3.36-.14.78-.61L5,36.77l1-.2s.42.07.3-.56.3-.08-.12-.62.06-.06-.42-.54S5,34.07,5,34.07l-.24-.74v-.7l.36-.42a.46.46,0,0,1,.36-.06,2.39,2.39,0,0,1,.54.42l.9-.73.63-.38s1.17-.14,1.41.13.12.45.54.93L10,33l1-.42s-.42-.5,0-.73a7.86,7.86,0,0,0,1-.67l.6,0,.84.7s.24.79.3,1-.48.25.12.52.36,0,.6.26.12.24,0,.72-.36.81,0,1.13.48.06.72.58.54.58.66.88l.42,1v.52h.36s.78.36.3-.42,0-.72-.48-.78-.3-.68-.3-.68h1.2s.06.07.66-.56.54-.14.6-.62.12-.18.06-.48-.13-.06,0-.66a2.87,2.87,0,0,1,.4-.93l.78-.64s.18.3.66-.18l.66-.67a.86.86,0,0,0,1-.38l.28-.57.36-1V28.63l.24-.4.54-.8.36-.1a9.2,9.2,0,0,0,.72-.91A10.53,10.53,0,0,0,25,25.19c-.84-.86-.72-.27-1.08-.75a4.07,4.07,0,0,0-.9-.83s-.48-.76-1.08-.6a4,4,0,0,0-1.08.28,16.18,16.18,0,0,0-2.23,1.14,1.55,1.55,0,0,1-1,0c-.48-.18-1.08-.71-1.32-.68a12.09,12.09,0,0,1-1.44-.46A8.46,8.46,0,0,1,14,23h-.86l-.82.74H8.24a7,7,0,0,0-1-.46c-.42-.12-1-.3-1.26-.42s-.18-.42-.78-.36a3.65,3.65,0,0,0-1.44.78Z"/><polygon class="cls-4" points="20.72 33.32 19.82 33.89 19.7 34.37 20.21 34.37 20.72 33.85 20.72 33.32"/><path class="cls-4" d="M24.27,29.25s-.12.38-.24.68l-.12.3.66-.39C24.75,29.44,24.27,29.25,24.27,29.25Z"/><path class="cls-4" d="M24.26,30.84l-.35.32-.24.67a.79.79,0,0,1,0,.85,1.11,1.11,0,0,0-.3.64h.89s.39-.46.35-.64a2.85,2.85,0,0,1,0-.6s.56-.82.38-.92S24.26,30.84,24.26,30.84Z"/><polygon class="cls-4" points="23.37 33.85 22.53 34.37 22.95 34.79 23.67 34.79 23.91 34.32 23.37 33.85"/><path class="cls-4" d="M17.18,39.66l-.78-.52a3.08,3.08,0,0,0-.6,0c-.18,0-.72.4-.54.52s.24-.48.48,0a3.36,3.36,0,0,0,.46.72l.44.54.54.18.3-.54Z"/><rect class="cls-5" x="21.88" y="45.24" width="0.65" height="4.09"/><rect class="cls-6" x="11.53" y="9.19" width="3.12" height="20.74"/><rect class="cls-7" x="10.98" y="9.19" width="3.12" height="20.74"/><rect class="cls-1" x="11.31" y="9.76" width="1.23" height="0.2"/><rect class="cls-1" x="11.31" y="10.33" width="0.62" height="0.2"/><rect class="cls-1" x="11.31" y="11.46" width="0.62" height="0.2"/><rect class="cls-1" x="11.31" y="12.59" width="0.62" height="0.2"/><rect class="cls-1" x="11.31" y="13.72" width="0.62" height="0.2"/><rect class="cls-1" x="11.31" y="14.85" width="0.62" height="0.2"/><rect class="cls-1" x="11.31" y="15.99" width="0.62" height="0.2"/><rect class="cls-1" x="11.31" y="17.12" width="0.62" height="0.2"/><rect class="cls-1" x="11.31" y="18.25" width="0.62" height="0.2"/><rect class="cls-1" x="11.31" y="19.38" width="0.62" height="0.2"/><rect class="cls-1" x="11.31" y="20.51" width="0.62" height="0.2"/><rect class="cls-1" x="11.31" y="21.64" width="0.62" height="0.2"/><rect class="cls-1" x="11.31" y="22.77" width="0.62" height="0.2"/><rect class="cls-1" x="11.31" y="23.9" width="0.62" height="0.2"/><rect class="cls-1" x="11.31" y="25.04" width="0.62" height="0.2"/><rect class="cls-1" x="11.31" y="26.17" width="0.62" height="0.2"/><rect class="cls-1" x="11.31" y="27.3" width="0.62" height="0.2"/><rect class="cls-1" x="11.31" y="28.43" width="0.62" height="0.2"/><rect class="cls-1" x="11.31" y="10.89" width="1.23" height="0.2"/><rect class="cls-1" x="11.31" y="12.03" width="1.23" height="0.2"/><rect class="cls-1" x="11.31" y="13.16" width="1.23" height="0.2"/><rect class="cls-1" x="11.31" y="14.29" width="1.23" height="0.2"/><rect class="cls-1" x="11.31" y="15.42" width="1.23" height="0.2"/><rect class="cls-1" x="11.31" y="16.55" width="1.23" height="0.2"/><rect class="cls-1" x="11.31" y="17.68" width="1.23" height="0.2"/><rect class="cls-1" x="11.31" y="18.81" width="1.23" height="0.2"/><rect class="cls-1" x="11.31" y="19.95" width="1.23" height="0.2"/><rect class="cls-1" x="11.31" y="21.08" width="1.23" height="0.2"/><rect class="cls-1" x="11.31" y="22.21" width="1.23" height="0.2"/><rect class="cls-1" x="11.31" y="23.34" width="1.23" height="0.2"/><rect class="cls-1" x="11.31" y="24.47" width="1.23" height="0.2"/><rect class="cls-1" x="11.31" y="25.6" width="1.23" height="0.2"/><rect class="cls-1" x="11.31" y="26.73" width="1.23" height="0.2"/><rect class="cls-1" x="11.31" y="27.86" width="1.23" height="0.2"/><rect class="cls-1" x="11.31" y="29" width="1.23" height="0.2"/><path class="cls-8" d="M7.59,7a6.91,6.91,0,0,0-6.47,4.49H.68v2.34s0,0,0,.07,0,0,0,0v.09h0a2.9,2.9,0,0,0,2.9,2.79H18.71A5.33,5.33,0,0,0,24,11.54h0V7Z"/><path class="cls-9" d="M7.59,5H22.74A1.3,1.3,0,0,1,24,6.34V8.65a6.21,6.21,0,0,1-6.21,6.21H3.59A2.91,2.91,0,0,1,.68,12v0A6.91,6.91,0,0,1,7.59,5Z"/><path class="cls-2" d="M4.51,7.71h0a1,1,0,0,1,1,1v2.24a1,1,0,0,1-1,1H.68a0,0,0,0,1,0,0v-.36A3.82,3.82,0,0,1,4.51,7.71Z"/><rect class="cls-2" x="6.2" y="8.08" width="1.35" height="2.13" rx="0.25" ry="0.25"/><rect class="cls-2" x="8.16" y="8.08" width="1.35" height="2.13" rx="0.25" ry="0.25"/><rect class="cls-2" x="10.12" y="8.08" width="1.35" height="2.13" rx="0.25" ry="0.25"/><rect class="cls-2" x="12.09" y="8.08" width="1.35" height="2.13" rx="0.25" ry="0.25"/><rect class="cls-2" x="14.05" y="8.08" width="1.35" height="2.13" rx="0.25" ry="0.25"/><rect class="cls-2" x="16.02" y="8.08" width="1.35" height="2.13" rx="0.25" ry="0.25"/><rect class="cls-2" x="17.98" y="8.08" width="1.35" height="2.13" rx="0.25" ry="0.25"/><rect class="cls-2" x="19.95" y="8.08" width="1.35" height="2.13" rx="0.25" ry="0.25"/><path class="cls-10" d="M19.12,18.09H17.19a.44.44,0,0,1-.34-.16L13.2,14.29a.44.44,0,0,1,.34-.72H17a.44.44,0,0,1,.38.23l2.14,3.65A.44.44,0,0,1,19.12,18.09Z"/><path class="cls-11" d="M18.39,17H16.14a.52.52,0,0,1-.39-.18L11.4,12.45a.52.52,0,0,1,.39-.85h4a.52.52,0,0,1,.45.26l2.58,4.41A.52.52,0,0,1,18.39,17Z"/><polygon class="cls-11" points="19.18 17.95 19.02 17.95 18.49 17.18 18.64 17.18 19.18 17.95"/><rect class="cls-9" x="20.84" y="14.5" width="0.18" height="1.41"/><path class="cls-10" d="M23.89,6.3H19.67a.48.48,0,0,1-.43-.71L21.64,1a.48.48,0,0,1,.43-.26h1.82a.48.48,0,0,1,.48.48V5.81A.48.48,0,0,1,23.89,6.3Z"/><rect class="cls-10" x="19.19" y="5.04" width="0.58" height="0.84"/><path class="cls-11" d="M23.89,5.51H19.67a.48.48,0,0,1-.43-.71L21.64.26A.48.48,0,0,1,22.07,0h1.82a.48.48,0,0,1,.48.48V5A.48.48,0,0,1,23.89,5.51Z"/><rect class="cls-11" x="23.75" y="5.57" width="0.08" height="0.65"/><path class="cls-10" d="M25.27,8.18h-1l-.1,0L22.1,7.07a.23.23,0,0,1,.18-.38H24.1a.23.23,0,0,1,.2.12l1.16,1A.23.23,0,0,1,25.27,8.18Z"/><polygon class="cls-10" points="22.05 6.92 22.05 6.54 22.25 6.65 22.25 7.04 22.05 6.92"/><polygon class="cls-10" points="25.5 7.57 25.5 7.98 25.31 8.13 25.31 7.78 25.5 7.57"/><path class="cls-11" d="M25.27,7.79h-1l-.1,0L22.1,6.68a.23.23,0,0,1,.18-.38H24.1a.23.23,0,0,1,.2.12l1.16,1A.23.23,0,0,1,25.27,7.79Z"/><rect class="cls-11" x="25.22" y="7.83" width="0.03" height="0.32"/></g></g></svg>