<svg xmlns="http://www.w3.org/2000/svg" viewBox="0 0 49.38 50"><defs><style>.cls-1{fill:#313544;}.cls-2{fill:#454a62;}.cls-3{fill:#b0b0b0;}.cls-4{fill:#f4f4f5;}.cls-5{fill:#a11e22;}.cls-6{fill:#e16056;}.cls-7{fill:#575d77;}.cls-8{fill:#497ea2;}.cls-9{fill:#97cfe3;}</style></defs><title>Button_press</title><g id="Layer_2" data-name="Layer 2"><g id="ActionKit-on-list"><rect class="cls-1" y="17.73" width="32.27" height="32.27" rx="3" ry="3"/><rect class="cls-2" y="11.55" width="32.27" height="32.27" rx="3" ry="3"/><path class="cls-3" d="M16.13,14.24A13.45,13.45,0,1,0,29.58,27.68,13.45,13.45,0,0,0,16.13,14.24Zm0,23.13a9.68,9.68,0,1,1,9.68-9.68A9.68,9.68,0,0,1,16.13,37.36Z"/><rect class="cls-3" x="2.69" y="24.99" width="3.76" height="2.69"/><rect class="cls-3" x="25.82" y="24.99" width="3.76" height="2.69"/><path class="cls-4" d="M16.13,11.55A13.45,13.45,0,1,0,29.58,25,13.45,13.45,0,0,0,16.13,11.55Zm0,23.13A9.68,9.68,0,1,1,25.82,25,9.68,9.68,0,0,1,16.13,34.67Z"/><circle class="cls-5" cx="16.13" cy="24.99" r="9.68"/><rect class="cls-5" x="6.45" y="22.87" width="19.36" height="2.13"/><circle class="cls-6" cx="16.13" cy="22.87" r="9.68"/><rect class="cls-7" x="27.7" y="44.49" width="0.93" height="4.57"/><path class="cls-8" d="M49.38,6.85a4.69,4.69,0,0,0-4.69-4.69H28.76a4.69,4.69,0,0,0-4.69,4.69V19.58H14.85a.94.94,0,0,0-.94.94v3.93a.94.94,0,0,0,.94.94H38.38L35.77,28H34v2.17h0a.93.93,0,0,0,.27.7L37,33.64a.94.94,0,0,0,1.33,0l9.43-9.43a4.69,4.69,0,0,0,.46-.46l.08-.08h0a4.64,4.64,0,0,0,1.1-3Z"/><path class="cls-9" d="M49.38,4.69A4.69,4.69,0,0,0,44.69,0H28.76a4.69,4.69,0,0,0-4.69,4.69V17.41H14.85a.94.94,0,0,0-.94.94v3.93a.94.94,0,0,0,.94.94H38.38l-4.16,4.16a.94.94,0,0,0,0,1.33L37,31.48a.94.94,0,0,0,1.33,0L47.75,22a4.69,4.69,0,0,0,.46-.46l.08-.08h0a4.64,4.64,0,0,0,1.1-3Z"/><rect class="cls-4" x="24.07" y="10.67" width="12.19" height="0.94"/><rect class="cls-4" x="24.07" y="4.87" width="12.19" height="0.94"/><rect class="cls-4" x="24.07" y="16.47" width="12.19" height="0.94"/></g></g></svg>