<svg xmlns="http://www.w3.org/2000/svg" viewBox="0 0 45.29 50"><defs><style>.cls-1{fill:#313544;}.cls-2{fill:#454a62;}.cls-3{fill:#b0b0b0;}.cls-4{fill:#f4f4f5;}.cls-5{fill:#a11e22;}.cls-6{fill:#e16056;}.cls-7{fill:#575d77;}.cls-8{fill:#497ea2;}.cls-9{fill:#97cfe3;}.cls-10{fill:#d18b29;}.cls-11{fill:#ffd839;}</style></defs><title>Button_doublePress</title><g id="Layer_2" data-name="Layer 2"><g id="ActionKit-on-list"><rect class="cls-1" x="4.39" y="23.27" width="26.73" height="26.73" rx="3" ry="3"/><rect class="cls-2" x="4.39" y="18.15" width="26.73" height="26.73" rx="3" ry="3"/><path class="cls-3" d="M17.75,20.38A11.14,11.14,0,1,0,28.89,31.52,11.14,11.14,0,0,0,17.75,20.38Zm0,19.15a8,8,0,1,1,8-8A8,8,0,0,1,17.75,39.53Z"/><rect class="cls-3" x="6.62" y="29.29" width="3.12" height="2.23"/><rect class="cls-3" x="25.77" y="29.29" width="3.12" height="2.23"/><path class="cls-4" d="M17.75,18.15A11.14,11.14,0,1,0,28.89,29.29,11.14,11.14,0,0,0,17.75,18.15Zm0,19.15a8,8,0,1,1,8-8A8,8,0,0,1,17.75,37.31Z"/><circle class="cls-5" cx="17.75" cy="29.29" r="8.02"/><rect class="cls-5" x="9.74" y="27.53" width="16.04" height="1.76"/><circle class="cls-6" cx="17.75" cy="27.53" r="8.02"/><rect class="cls-7" x="27.33" y="45.43" width="0.77" height="3.79"/><path class="cls-8" d="M45.29,14.27a3.88,3.88,0,0,0-3.88-3.88H28.21a3.88,3.88,0,0,0-3.88,3.88V24.8H16.69a.78.78,0,0,0-.78.78v3.25a.78.78,0,0,0,.78.78H36.18L34,31.78h-1.5v1.8h0a.77.77,0,0,0,.22.58l2.3,2.3a.78.78,0,0,0,1.1,0l7.81-7.81a3.88,3.88,0,0,0,.38-.38l.06-.06h0a3.85,3.85,0,0,0,.91-2.47Z"/><path class="cls-9" d="M45.29,12.47a3.88,3.88,0,0,0-3.88-3.88H28.21a3.88,3.88,0,0,0-3.88,3.88V23H16.69a.78.78,0,0,0-.78.78V27a.78.78,0,0,0,.78.78H36.18l-3.44,3.44a.78.78,0,0,0,0,1.1l2.3,2.3a.78.78,0,0,0,1.1,0l7.81-7.81a3.88,3.88,0,0,0,.38-.38l.06-.06h0a3.85,3.85,0,0,0,.91-2.47Z"/><rect class="cls-4" x="24.33" y="17.43" width="10.09" height="0.78"/><rect class="cls-4" x="24.33" y="12.62" width="10.09" height="0.78"/><rect class="cls-4" x="24.33" y="22.23" width="10.09" height="0.78"/><path class="cls-10" d="M3.67,5.22l1,1.71c.29.53.57,1.05.84,1.54h0c.27-.55.53-1.07.8-1.58l.91-1.66h3.48L7.35,10.13l3.43,5.39H7.16l-1-1.85c-.29-.51-.55-1-.8-1.56H5.27c-.25.55-.53,1.05-.78,1.56l-1,1.85H0l3.5-5.25L.08,5.22Z"/><path class="cls-10" d="M11.75,15.52V13.58L13.52,12C16.51,9.3,18,7.77,18,6.17c0-1.12-.67-2-2.25-2A5,5,0,0,0,12.82,5.3L11.92,3A7.58,7.58,0,0,1,16.4,1.59c3.1,0,4.8,1.81,4.8,4.3,0,2.3-1.66,4.13-3.64,5.9L16.3,12.84v0h5.16v2.63Z"/><rect class="cls-10" y="13.92" width="3.52" height="1.59"/><rect class="cls-10" x="7.16" y="13.92" width="3.62" height="1.59"/><rect class="cls-10" x="0.08" y="3.62" width="3.58" height="1.59"/><rect class="cls-10" x="7.27" y="3.62" width="3.48" height="1.59"/><polygon class="cls-10" points="11.92 1.41 11.92 3.01 12.82 5.3 12.82 3.71 11.92 1.41"/><polygon class="cls-10" points="21.21 5.89 21.21 4.3 21.14 5.09 21.21 5.89"/><path class="cls-11" d="M3.67,3.62l1,1.71c.29.53.57,1.05.84,1.54h0c.27-.55.53-1.07.8-1.58l.91-1.66h3.48L7.35,8.53l3.43,5.39H7.16l-1-1.85c-.29-.51-.55-1-.8-1.56H5.27c-.25.55-.53,1.05-.78,1.56l-1,1.85H0L3.5,8.68.08,3.62Z"/><path class="cls-11" d="M11.75,13.92V12l1.77-1.6C16.51,7.71,18,6.17,18,4.57c0-1.12-.67-2-2.25-2a5,5,0,0,0-2.93,1.14l-.91-2.3A7.58,7.58,0,0,1,16.4,0c3.1,0,4.8,1.81,4.8,4.3,0,2.3-1.66,4.13-3.64,5.9L16.3,11.25v0h5.16v2.63Z"/></g></g></svg>