<svg xmlns="http://www.w3.org/2000/svg" viewBox="0 0 36.96 50"><defs><style>.cls-1{fill:#313544;}.cls-2{fill:#454a62;}.cls-3{fill:#b0b0b0;}.cls-4{fill:#f4f4f5;}.cls-5{fill:#a11e22;}.cls-6{fill:#e16056;}.cls-7{fill:#575d77;}.cls-8{fill:#497ea2;}.cls-9{fill:#97cfe3;}</style></defs><title>Button_Release</title><g id="Layer_2" data-name="Layer 2"><g id="ActionKit-on-list"><rect class="cls-1" y="25.85" width="24.15" height="24.15" rx="3" ry="3"/><rect class="cls-2" y="21.22" width="24.15" height="24.15" rx="3" ry="3"/><path class="cls-3" d="M12.08,23.23A10.06,10.06,0,1,0,22.14,33.3,10.06,10.06,0,0,0,12.08,23.23Zm0,17.31a7.25,7.25,0,1,1,7.25-7.25A7.25,7.25,0,0,1,12.08,40.54Z"/><rect class="cls-3" x="2.01" y="31.28" width="2.82" height="2.01"/><rect class="cls-3" x="19.32" y="31.28" width="2.82" height="2.01"/><path class="cls-4" d="M12.08,21.22A10.06,10.06,0,1,0,22.14,31.28,10.06,10.06,0,0,0,12.08,21.22Zm0,17.31a7.25,7.25,0,1,1,7.25-7.25A7.25,7.25,0,0,1,12.08,38.53Z"/><circle class="cls-5" cx="12.08" cy="31.28" r="7.25"/><rect class="cls-5" x="4.83" y="27.38" width="14.49" height="3.91"/><circle class="cls-6" cx="12.08" cy="27.38" r="7.25"/><rect class="cls-7" x="20.73" y="29.77" width="0.7" height="3.42"/><path class="cls-8" d="M37,5.13a3.51,3.51,0,0,0-3.51-3.51H21.52A3.51,3.51,0,0,0,18,5.13v9.52h-6.9a.7.7,0,0,0-.7.7V18.3a.7.7,0,0,0,.7.7H28.73l-2,2H25.41v1.62h0a.69.69,0,0,0,.2.52l2.08,2.08a.7.7,0,0,0,1,0l7.06-7.06a3.51,3.51,0,0,0,.34-.34l.06-.06h0A3.48,3.48,0,0,0,37,15.49Z"/><path class="cls-9" d="M37,3.51A3.51,3.51,0,0,0,33.45,0H21.52A3.51,3.51,0,0,0,18,3.51V13h-6.9a.7.7,0,0,0-.7.7v2.94a.7.7,0,0,0,.7.7H28.73l-3.11,3.11a.7.7,0,0,0,0,1l2.08,2.08a.7.7,0,0,0,1,0l7.06-7.06a3.51,3.51,0,0,0,.34-.34l.06-.06h0A3.48,3.48,0,0,0,37,13.87Z"/><rect class="cls-4" x="18.01" y="7.99" width="9.12" height="0.7"/><rect class="cls-4" x="18.01" y="3.64" width="9.12" height="0.7"/><rect class="cls-4" x="18.01" y="12.33" width="9.12" height="0.7"/></g></g></svg>