<svg xmlns="http://www.w3.org/2000/svg" viewBox="0 0 48.42 50"><defs><style>.cls-1{fill:#d18b29;}.cls-2{fill:#ffd839;}.cls-3{fill:#375869;}.cls-4{fill:#92967b;}.cls-5{fill:#bdd9be;}.cls-6{fill:#fff;}</style></defs><title>Distance</title><g id="Layer_2" data-name="Layer 2"><g id="ActionKit-on-list"><path class="cls-1" d="M0,12.11V50H37.89ZM5.52,24.68l20,20h-20ZM37.89,50V48h-2V50Z"/><path class="cls-2" d="M0,10.14V48H37.89ZM5.52,22.71l20,20h-20Z"/><rect class="cls-3" x="5.45" y="17.45" width="0.59" height="1.72" transform="translate(14.63 1.3) rotate(45)"/><rect class="cls-3" x="8" y="20" width="0.59" height="1.72" transform="translate(17.18 0.25) rotate(45)"/><rect class="cls-3" x="10.55" y="22.55" width="0.59" height="1.72" transform="translate(19.72 -0.81) rotate(45)"/><rect class="cls-3" x="13.09" y="25.09" width="0.59" height="1.72" transform="translate(22.27 -1.86) rotate(45)"/><rect class="cls-3" x="15.64" y="27.64" width="0.59" height="1.72" transform="translate(24.82 -2.92) rotate(45)"/><rect class="cls-3" x="18.19" y="30.19" width="0.59" height="1.72" transform="translate(27.36 -3.97) rotate(45)"/><rect class="cls-3" x="20.73" y="32.73" width="0.59" height="1.72" transform="translate(29.91 -5.03) rotate(45)"/><rect class="cls-3" x="23.28" y="35.28" width="0.59" height="1.72" transform="translate(32.46 -6.08) rotate(45)"/><rect class="cls-3" x="25.83" y="37.83" width="0.59" height="1.72" transform="translate(35 -7.14) rotate(45)"/><rect class="cls-3" x="28.37" y="40.37" width="0.59" height="1.72" transform="translate(37.55 -8.19) rotate(45)"/><rect class="cls-3" x="30.92" y="42.92" width="0.59" height="1.72" transform="translate(40.1 -9.25) rotate(45)"/><polygon class="cls-4" points="10.41 0 2.39 8.02 2.39 10.43 40.41 48.44 48.42 40.42 48.42 38.01 10.41 0"/><rect class="cls-5" x="19.74" y="-3.87" width="11.33" height="53.76" transform="translate(59.65 21.32) rotate(135)"/><rect class="cls-6" x="41.92" y="38.19" width="3.96" height="1.17" transform="translate(102.36 35.14) rotate(135)"/><rect class="cls-6" x="42.12" y="36.29" width="1.98" height="0.58" transform="translate(99.45 31.96) rotate(135)"/><rect class="cls-6" x="40.83" y="35" width="1.98" height="0.58" transform="translate(96.35 30.67) rotate(135)"/><rect class="cls-6" x="39.54" y="33.71" width="1.98" height="0.58" transform="translate(93.24 29.38) rotate(135)"/><rect class="cls-6" x="38.26" y="32.42" width="1.98" height="0.58" transform="translate(90.13 28.1) rotate(135)"/><rect class="cls-6" x="35.07" y="31.34" width="3.96" height="1.17" transform="translate(85.82 28.29) rotate(135)"/><rect class="cls-6" x="35.27" y="29.43" width="1.98" height="0.58" transform="translate(82.92 25.11) rotate(135)"/><rect class="cls-6" x="33.98" y="28.15" width="1.98" height="0.58" transform="translate(79.81 23.82) rotate(135)"/><rect class="cls-6" x="32.69" y="26.86" width="1.98" height="0.58" transform="translate(76.7 22.53) rotate(135)"/><rect class="cls-6" x="31.41" y="25.57" width="1.98" height="0.58" transform="translate(73.59 21.25) rotate(135)"/><rect class="cls-6" x="28.22" y="24.49" width="3.96" height="1.17" transform="translate(69.28 21.44) rotate(135)"/><rect class="cls-6" x="28.42" y="22.58" width="1.98" height="0.58" transform="translate(66.38 18.26) rotate(135)"/><rect class="cls-6" x="27.13" y="21.3" width="1.98" height="0.58" transform="translate(63.27 16.97) rotate(135)"/><rect class="cls-6" x="25.84" y="20.01" width="1.98" height="0.58" transform="translate(60.16 15.68) rotate(135)"/><rect class="cls-6" x="24.55" y="18.72" width="1.98" height="0.58" transform="translate(57.05 14.4) rotate(135)"/><rect class="cls-6" x="21.37" y="17.64" width="3.96" height="1.17" transform="translate(52.75 14.59) rotate(135)"/><rect class="cls-6" x="21.57" y="15.73" width="1.98" height="0.58" transform="translate(49.84 11.41) rotate(135)"/><rect class="cls-6" x="20.28" y="14.45" width="1.98" height="0.58" transform="translate(46.73 10.12) rotate(135)"/><rect class="cls-6" x="18.99" y="13.16" width="1.98" height="0.58" transform="translate(43.62 8.83) rotate(135)"/><rect class="cls-6" x="17.7" y="11.87" width="1.98" height="0.58" transform="translate(40.51 7.55) rotate(135)"/><rect class="cls-6" x="14.52" y="10.78" width="3.96" height="1.17" transform="translate(36.21 7.74) rotate(135)"/><rect class="cls-6" x="7.67" y="3.93" width="3.96" height="1.17" transform="translate(19.67 0.89) rotate(135)"/><rect class="cls-6" x="14.72" y="8.88" width="1.98" height="0.58" transform="translate(33.3 4.56) rotate(135)"/><rect class="cls-6" x="13.43" y="7.6" width="1.98" height="0.58" transform="translate(30.19 3.27) rotate(135)"/><rect class="cls-6" x="12.14" y="6.31" width="1.98" height="0.58" transform="translate(27.08 1.98) rotate(135)"/><rect class="cls-6" x="10.85" y="5.02" width="1.98" height="0.58" transform="translate(23.97 0.69) rotate(135)"/></g></g></svg>