<svg xmlns="http://www.w3.org/2000/svg" viewBox="0 0 46.49 53.54"><defs><style>.cls-1{fill:#a11e22;}.cls-2{fill:#e16056;}.cls-3{fill:#454a62;}.cls-4{fill:none;stroke:#454a62;stroke-miterlimit:10;}.cls-5{fill:#d18b29;}.cls-6{fill:#ffd839;}.cls-7{fill:#f4f4f5;}</style></defs><title>DoubleTab</title><g id="Layer_2" data-name="Layer 2"><g id="ActionKit-on-list"><path class="cls-1" d="M28.7,5.22l1,1.71c.29.53.57,1.05.84,1.54h0c.27-.55.53-1.07.8-1.58l.91-1.66h3.48l-3.39,4.91,3.43,5.39H32.19l-1-1.85c-.29-.51-.55-1-.8-1.56H30.3c-.25.55-.53,1.05-.78,1.56l-1,1.85H25l3.5-5.25L25.11,5.22Z"/><path class="cls-1" d="M36.78,15.52V13.58L38.55,12C41.54,9.3,43,7.77,43,6.17c0-1.12-.67-2-2.25-2A5,5,0,0,0,37.85,5.3L36.95,3a7.58,7.58,0,0,1,4.49-1.41c3.1,0,4.8,1.81,4.8,4.3,0,2.3-1.66,4.13-3.64,5.9l-1.26,1.05v0h5.16v2.63Z"/><rect class="cls-1" x="25.03" y="13.92" width="3.52" height="1.59"/><rect class="cls-1" x="32.19" y="13.92" width="3.62" height="1.59"/><rect class="cls-1" x="25.11" y="3.62" width="3.58" height="1.59"/><rect class="cls-1" x="32.3" y="3.62" width="3.48" height="1.59"/><polygon class="cls-1" points="36.95 1.41 36.95 3.01 37.85 5.3 37.85 3.71 36.95 1.41"/><polygon class="cls-1" points="46.24 5.89 46.24 4.3 46.17 5.09 46.24 5.89"/><path class="cls-2" d="M28.7,3.62l1,1.71c.29.53.57,1.05.84,1.54h0c.27-.55.53-1.07.8-1.58l.91-1.66h3.48L32.38,8.53l3.43,5.39H32.19l-1-1.85c-.29-.51-.55-1-.8-1.56H30.3c-.25.55-.53,1.05-.78,1.56l-1,1.85H25l3.5-5.25L25.11,3.62Z"/><path class="cls-2" d="M36.78,13.92V12l1.77-1.6C41.54,7.71,43,6.17,43,4.57c0-1.12-.67-2-2.25-2a5,5,0,0,0-2.93,1.14l-.91-2.3A7.58,7.58,0,0,1,41.43,0c3.1,0,4.8,1.81,4.8,4.3,0,2.3-1.66,4.13-3.64,5.9l-1.26,1.05v0h5.16v2.63Z"/><circle class="cls-3" cx="12.69" cy="11.57" r="6.46"/><circle class="cls-4" cx="12.69" cy="11.57" r="8.03"/><path class="cls-5" d="M30.48,53.54a5.28,5.28,0,0,0,5.28-5.28V30.32A5.28,5.28,0,0,0,30.48,25H16.15V14.66A1.06,1.06,0,0,0,15.1,13.6H10.67a1.06,1.06,0,0,0-1.06,1.06v26.5L4.93,36.47a1.06,1.06,0,0,0-1.49,0L.31,39.6a1.06,1.06,0,0,0,0,1.49L10.93,51.72a5.28,5.28,0,0,0,.51.51l.09.09h0a5.23,5.23,0,0,0,3.36,1.24Z"/><polygon class="cls-5" points="0 40.35 0 35.35 2.58 37.85 0 40.35"/><path class="cls-6" d="M30.48,48.54a5.28,5.28,0,0,0,5.28-5.28V25.31A5.28,5.28,0,0,0,30.48,20H16.15V9.65A1.06,1.06,0,0,0,15.1,8.6H10.67A1.06,1.06,0,0,0,9.61,9.65v26.5L4.93,31.47a1.06,1.06,0,0,0-1.49,0L.31,34.6a1.06,1.06,0,0,0,0,1.49L10.93,46.71a5.28,5.28,0,0,0,.51.51l.09.09h0a5.23,5.23,0,0,0,3.36,1.24Z"/><rect class="cls-7" x="22.69" y="20.03" width="1.06" height="13.72"/><rect class="cls-7" x="29.22" y="20.03" width="1.06" height="13.72"/><rect class="cls-7" x="16.15" y="20.03" width="1.06" height="13.72"/></g></g></svg>