<svg xmlns="http://www.w3.org/2000/svg" viewBox="0 0 50 44.39"><defs><style>.cls-1{fill:#b0b0b0;}.cls-2{fill:#d8d8d8;}.cls-3,.cls-4{fill:#454a62;}.cls-3{stroke:#f4f4f5;stroke-miterlimit:10;}.cls-5{fill:#a11e22;}.cls-6{fill:#e16056;}.cls-7{fill:#d18b29;}.cls-8{fill:#ffd839;}</style></defs><title>Gyro_roll</title><g id="Layer_2" data-name="Layer 2"><g id="ActionKit-on-list"><path class="cls-1" d="M19.53,15.69A9.2,9.2,0,0,0,9.27,17.87l-.54-.23L7.52,20.52l0,.09v0l0,.11h0a3.87,3.87,0,0,0,2.12,4.92l18.58,7.81a7.1,7.1,0,0,0,9.29-3.79h0l2.32-5.52Z"/><path class="cls-2" d="M16.71,15.18H36.23a3.23,3.23,0,0,1,3.23,3.23v2.12a7.73,7.73,0,0,1-7.73,7.73H13a4.7,4.7,0,0,1-4.7-4.7v0A8.38,8.38,0,0,1,16.71,15.18Z" transform="translate(10.28 -7.56) rotate(22.8)"/><path class="cls-3" d="M14.07,14.07h0a2,2,0,0,1,2,2v1.64a2,2,0,0,1-2,2H10.71a1.06,1.06,0,0,1-1.06-1.06V18.5a4.42,4.42,0,0,1,4.42-4.42Z" transform="translate(7.54 -3.66) rotate(22.8)"/><rect class="cls-4" x="19.08" y="17.5" width="1.8" height="2.84" rx="0.25" ry="0.25" transform="translate(8.89 -6.26) rotate(22.8)"/><rect class="cls-4" x="21.49" y="18.51" width="1.8" height="2.84" rx="0.25" ry="0.25" transform="translate(9.47 -7.12) rotate(22.8)"/><rect class="cls-4" x="23.9" y="19.52" width="1.8" height="2.84" rx="0.25" ry="0.25" transform="translate(10.05 -7.97) rotate(22.8)"/><rect class="cls-4" x="26.31" y="20.54" width="1.8" height="2.84" rx="0.25" ry="0.25" transform="translate(10.63 -8.83) rotate(22.8)"/><rect class="cls-4" x="28.73" y="21.55" width="1.8" height="2.84" rx="0.25" ry="0.25" transform="translate(11.22 -9.68) rotate(22.8)"/><rect class="cls-4" x="31.14" y="22.57" width="1.8" height="2.84" rx="0.25" ry="0.25" transform="translate(11.8 -10.54) rotate(22.8)"/><rect class="cls-4" x="33.55" y="23.58" width="1.8" height="2.84" rx="0.25" ry="0.25" transform="translate(12.38 -11.4) rotate(22.8)"/><path class="cls-5" d="M28,35.21l-2.37-1a.59.59,0,0,1-.33-.37l-2.61-6.37a.59.59,0,0,1,.79-.71l4.23,1.78a.59.59,0,0,1,.36.48l.75,5.59A.59.59,0,0,1,28,35.21Z"/><path class="cls-6" d="M27.64,33.55l-2.77-1.16a.69.69,0,0,1-.39-.43l-3.06-7.67a.69.69,0,0,1,.92-.83l4.94,2.08a.69.69,0,0,1,.42.56l.89,6.75A.69.69,0,0,1,27.64,33.55Z"/><polygon class="cls-6" points="28.14 35.06 27.95 34.98 27.69 33.77 27.87 33.84 28.14 35.06"/><rect class="cls-2" x="31.58" y="31.66" width="0.24" height="1.88" transform="translate(15.11 -9.74) rotate(22.8)"/><path class="cls-5" d="M39.94,23.18,34.76,21a.65.65,0,0,1-.16-1.09l5.29-4.34a.65.65,0,0,1,.66-.1l2.24.94a.65.65,0,0,1,.35.85l-2.34,5.57A.65.65,0,0,1,39.94,23.18Z"/><rect class="cls-5" x="34.4" y="19.49" width="1.11" height="0.78" transform="translate(3.09 44.4) rotate(-67.2)"/><path class="cls-6" d="M40.35,22.22,35.17,20A.65.65,0,0,1,35,18.94l5.29-4.34a.65.65,0,0,1,.66-.1l2.24.94a.65.65,0,0,1,.35.85L41.2,21.87A.65.65,0,0,1,40.35,22.22Z"/><rect class="cls-6" x="39.97" y="22.2" width="0.11" height="0.87" transform="translate(11.9 -13.74) rotate(22.8)"/><path class="cls-5" d="M40.94,26.34l-1-.42a1.22,1.22,0,0,1-.47-.35l-1.85-2.23A.31.31,0,0,1,38,23l2.23.94a.31.31,0,0,1,.19.25l.9,1.86A.31.31,0,0,1,40.94,26.34Z"/><polygon class="cls-5" points="37.64 23.13 37.84 22.66 38.03 22.9 37.82 23.38 37.64 23.13"/><polygon class="cls-5" points="41.54 25.71 41.33 26.22 41.02 26.29 41.2 25.87 41.54 25.71"/><path class="cls-6" d="M41.14,25.86l-1.09-.46a.81.81,0,0,1-.31-.23l-1.91-2.31a.31.31,0,0,1,.42-.38l2.23.94a.31.31,0,0,1,.19.25l.9,1.86A.31.31,0,0,1,41.14,25.86Z"/><rect class="cls-6" x="40.98" y="25.88" width="0.05" height="0.43" transform="translate(13.31 -13.85) rotate(22.8)"/><path class="cls-7" d="M7.31,41.19a25,25,0,0,1,0-35.36L9.92,8.44a21.34,21.34,0,0,0,0,30.14Z"/><polygon class="cls-7" points="13.57 2.48 5.98 4.52 11.54 10.07 13.57 2.48"/><path class="cls-8" d="M7.31,38.7a25,25,0,0,1,0-35.36L9.92,6a21.34,21.34,0,0,0,0,30.14Z"/><polygon class="cls-8" points="13.57 0 5.98 2.03 11.54 7.58 13.57 0"/><polygon class="cls-7" points="7.31 41.19 7.31 38.7 9.92 36.09 9.92 38.58 7.31 41.19"/><polygon class="cls-7" points="5.98 2.03 5.98 4.52 6.28 4.44 7.31 3.34 5.98 2.03"/><polygon class="cls-7" points="13.57 0 13.57 2.48 12.85 2.68 13.57 0"/><path class="cls-7" d="M42.68,41.19l-2.61-2.61a21.31,21.31,0,0,0,0-30.14l2.61-2.61a25,25,0,0,1,0,35.36Z"/><polygon class="cls-7" points="36.29 44.39 43.88 42.36 38.32 36.81 36.29 44.39"/><path class="cls-8" d="M42.68,38.7l-2.61-2.61A21.31,21.31,0,0,0,40.06,6l2.61-2.61a25,25,0,0,1,0,35.36Z"/><polygon class="cls-8" points="36.29 41.91 43.88 39.88 38.32 34.33 36.29 41.91"/><polygon class="cls-7" points="40.06 5.95 40.06 8.44 41.26 7.25 40.06 5.95"/><polygon class="cls-7" points="36.29 41.91 36.29 44.39 43.88 42.36 43.88 39.88 36.29 41.91"/></g></g></svg>