<svg xmlns="http://www.w3.org/2000/svg" viewBox="0 0 50 42.77"><defs><style>.cls-1{fill:#d18b29;}.cls-2{fill:#ffd839;}.cls-3{fill:#a11e22;}.cls-4{fill:#e16056;}.cls-5{fill:#d8d8d8;}.cls-6{fill:#454a62;}.cls-6,.cls-7{stroke:#f4f4f5;stroke-miterlimit:10;}.cls-7{fill:none;}</style></defs><title>Gyro_Yaw</title><g id="Layer_2" data-name="Layer 2"><g id="ActionKit-on-list"><path class="cls-1" d="M9.5,42.77A24.83,24.83,0,0,1,5.74,7.89l2.85,2.3A21.17,21.17,0,0,0,11.8,39.92Z"/><polygon class="cls-1" points="11.55 3.93 4.29 6.74 10.36 11.63 11.55 3.93"/><path class="cls-2" d="M9.24,40.32A24.83,24.83,0,0,1,5.47,5.44l2.85,2.3a21.17,21.17,0,0,0,3.21,29.73Z"/><polygon class="cls-2" points="11.29 1.48 4.03 4.29 10.09 9.18 11.29 1.48"/><polygon class="cls-1" points="9.5 42.77 9.24 40.32 11.54 37.47 11.8 39.92 9.5 42.77"/><polygon class="cls-1" points="4.03 4.29 4.29 6.74 4.57 6.63 5.47 5.44 4.03 4.29"/><polygon class="cls-1" points="11.29 1.48 11.55 3.93 10.87 4.2 11.29 1.48"/><path class="cls-1" d="M44.51,37.33,41.66,35A21.14,21.14,0,0,0,38.45,5.3l2.3-2.85a24.8,24.8,0,0,1,3.76,34.88Z"/><polygon class="cls-1" points="38.56 41.17 45.82 38.36 39.75 33.47 38.56 41.17"/><path class="cls-2" d="M44.25,34.88l-2.85-2.3A21.14,21.14,0,0,0,38.19,2.85L40.48,0a24.8,24.8,0,0,1,3.76,34.88Z"/><polygon class="cls-2" points="38.29 38.72 45.55 35.91 39.49 31.02 38.29 38.72"/><polygon class="cls-1" points="38.19 2.85 38.45 5.3 39.5 4 38.19 2.85"/><polygon class="cls-1" points="38.29 38.72 38.56 41.17 45.82 38.36 45.55 35.91 38.29 38.72"/><path class="cls-3" d="M42.07,22.17l-10.58-.54a1.64,1.64,0,0,0-1.65,2.11l.27.88a1.64,1.64,0,0,0,1.77,1.15L43.8,24.27l-.22-.87A1.64,1.64,0,0,0,42.07,22.17Z"/><path class="cls-4" d="M41.81,21.13l-10.58-.54a1.64,1.64,0,0,0-1.65,2.11l.27.88a1.64,1.64,0,0,0,1.77,1.15l11.92-1.49-.22-.87A1.64,1.64,0,0,0,41.81,21.13Z"/><rect class="cls-4" x="31.53" y="24.83" width="0.12" height="0.82" transform="translate(68.38 42) rotate(165.88)"/><path class="cls-3" d="M10.29,30.16l9.07-5.48a1.64,1.64,0,0,1,2.45,1.08l.18.9a1.64,1.64,0,0,1-1,1.85L9.77,32.83,9.55,32A1.64,1.64,0,0,1,10.29,30.16Z"/><path class="cls-4" d="M10,29.12l9.07-5.48a1.64,1.64,0,0,1,2.45,1.08l.18.9a1.64,1.64,0,0,1-1,1.85L9.51,31.8l-.22-.87A1.64,1.64,0,0,1,10,29.12Z"/><rect class="cls-4" x="20.92" y="27.5" width="0.12" height="0.82" transform="translate(-6.17 5.96) rotate(-14.12)"/><path class="cls-5" d="M14.93,16.89c-1.32-5.23.56-10.21,5.79-11.52s9.23,2.18,10.55,7.41,2.55,22.56-2.68,23.87S16.24,22.12,14.93,16.89Z"/><path class="cls-6" d="M16.75,15.36c-1-3.89.41-7.6,4.31-8.58s6.88,1.63,7.86,5.52-3-2.8-6.93-1.82S17.73,19.25,16.75,15.36Z"/><path class="cls-3" d="M27.46,35.55l1.58-.4a.49.49,0,0,1,.6.39l1,5.51a.49.49,0,0,1-.36.56l-.78.2a.49.49,0,0,1-.58-.32l-1.76-5.31A.49.49,0,0,1,27.46,35.55Z"/><path class="cls-4" d="M27.9,36.95l1.4-.35a.49.49,0,0,1,.6.39l.69,4.07a.49.49,0,0,1-.36.56l-.78.2a.49.49,0,0,1-.58-.32l-1.32-3.91A.49.49,0,0,1,27.9,36.95Z"/><rect class="cls-4" x="29.2" y="35.3" width="0.06" height="1.21" transform="translate(66.34 63.58) rotate(165.88)"/><rect class="cls-4" x="27.67" y="35.68" width="0.06" height="1.21" transform="translate(63.41 64.72) rotate(165.88)"/><path class="cls-3" d="M33.07,34.4,30.37,36a.49.49,0,0,1-.73-.32l-.05-.27a.49.49,0,0,1,.3-.55l3.33-1.29.07.26A.49.49,0,0,1,33.07,34.4Z"/><path class="cls-4" d="M33.15,34.7l-2.7,1.63a.49.49,0,0,1-.73-.32l-.05-.27a.49.49,0,0,1,.3-.55l3.33-1.29.07.26A.49.49,0,0,1,33.15,34.7Z"/><rect class="cls-4" x="29.87" y="34.94" width="0.03" height="0.24" transform="translate(67.44 61.78) rotate(165.88)"/><path class="cls-3" d="M23.56,36.81l3.15.16a.49.49,0,0,0,.49-.63l-.08-.26a.49.49,0,0,0-.53-.34L23,36.18l.07.26A.49.49,0,0,0,23.56,36.81Z"/><path class="cls-4" d="M23.64,37.12l3.15.16a.49.49,0,0,0,.49-.63l-.08-.26a.49.49,0,0,0-.53-.34l-3.55.44.07.26A.49.49,0,0,0,23.64,37.12Z"/><rect class="cls-4" x="26.66" y="35.78" width="0.03" height="0.24" transform="translate(-7.95 7.59) rotate(-14.12)"/><line class="cls-7" x1="21.06" y1="6.78" x2="21.99" y2="10.48"/></g></g></svg>