<svg xmlns="http://www.w3.org/2000/svg" viewBox="0 0 50 41.48"><defs><style>.cls-1{fill:#d18b29;}.cls-2{fill:#ffd839;}.cls-3{fill:#a11e22;}.cls-4{fill:#e16056;}.cls-5{fill:#d8d8d8;}.cls-6{fill:#454a62;}.cls-6,.cls-7{stroke:#f4f4f5;stroke-miterlimit:10;}.cls-7{fill:none;}.cls-8{fill:#b0b0b0;}</style></defs><title>Gyro_pitch</title><g id="Layer_2" data-name="Layer 2"><g id="ActionKit-on-list"><path class="cls-1" d="M9.53,41.4a24.9,24.9,0,0,1-3.77-35l2.86,2.3a21.22,21.22,0,0,0,3.22,29.81Z"/><polygon class="cls-1" points="11.58 2.46 4.3 5.28 10.38 10.17 11.58 2.46"/><path class="cls-2" d="M9.26,38.94A24.9,24.9,0,0,1,5.49,4l2.86,2.3a21.22,21.22,0,0,0,3.22,29.81Z"/><polygon class="cls-2" points="11.32 0 4.04 2.82 10.12 7.72 11.32 0"/><polygon class="cls-1" points="9.53 41.4 9.26 38.94 11.56 36.08 11.83 38.54 9.53 41.4"/><polygon class="cls-1" points="4.04 2.82 4.3 5.28 4.58 5.17 5.49 3.97 4.04 2.82"/><polygon class="cls-1" points="11.32 0 11.58 2.46 10.89 2.72 11.32 0"/><path class="cls-1" d="M44.5,37.63l-2.86-2.3A21.2,21.2,0,0,0,38.42,5.52l2.3-2.86a24.87,24.87,0,0,1,3.77,35Z"/><polygon class="cls-1" points="38.53 41.48 45.81 38.66 39.73 33.76 38.53 41.48"/><path class="cls-2" d="M44.23,35.17l-2.86-2.3A21.2,21.2,0,0,0,38.16,3.06L40.46.2a24.87,24.87,0,0,1,3.77,35Z"/><polygon class="cls-2" points="38.26 39.02 45.54 36.2 39.46 31.3 38.26 39.02"/><polygon class="cls-1" points="38.16 3.06 38.42 5.52 39.47 4.21 38.16 3.06"/><polygon class="cls-1" points="38.26 39.02 38.53 41.48 45.81 38.66 45.54 36.2 38.26 39.02"/><path class="cls-3" d="M41.23,28.75l-8.84-6.87a1.73,1.73,0,0,0-2.7.83l-.3.92a1.73,1.73,0,0,0,.84,2.07l11.22,5.92.34-.89A1.73,1.73,0,0,0,41.23,28.75Z"/><path class="cls-4" d="M41.63,27.69l-8.84-6.87a1.73,1.73,0,0,0-2.7.83l-.3.92a1.73,1.73,0,0,0,.84,2.07l11.22,5.92.34-.89A1.73,1.73,0,0,0,41.63,27.69Z"/><rect class="cls-4" x="30.24" y="24.64" width="0.12" height="0.87" transform="translate(49.72 59.27) rotate(-159.2)"/><path class="cls-3" d="M7.54,16l11.17.73a1.73,1.73,0,0,1,1.47,2.41L19.8,20a1.73,1.73,0,0,1-2,1L5.48,18l.34-.89A1.73,1.73,0,0,1,7.54,16Z"/><path class="cls-4" d="M7.94,14.9l11.17.73A1.73,1.73,0,0,1,20.58,18l-.39.89a1.73,1.73,0,0,1-2,1l-12.32-3L6.21,16A1.73,1.73,0,0,1,7.94,14.9Z"/><rect class="cls-4" x="18.1" y="20.03" width="0.12" height="0.87" transform="translate(8.45 -5.11) rotate(20.8)"/><path class="cls-3" d="M28.22,14.89l-2-.76a.64.64,0,0,1-.35-.87L29,6.56a.64.64,0,0,1,.81-.33l1,.38a.64.64,0,0,1,.39.78l-2.11,7.09A.64.64,0,0,1,28.22,14.89Z"/><path class="cls-4" d="M28.79,13,27,12.37a.64.64,0,0,1-.35-.87L29,6.56a.64.64,0,0,1,.81-.33l1,.38a.64.64,0,0,1,.39.78l-1.54,5.24A.64.64,0,0,1,28.79,13Z"/><rect class="cls-4" x="26.52" y="12.37" width="0.08" height="1.6" transform="translate(6.41 -8.57) rotate(20.8)"/><rect class="cls-4" x="28.48" y="13.11" width="0.08" height="1.6" transform="translate(6.8 -9.22) rotate(20.8)"/><path class="cls-3" d="M21.26,11.9l4.16.27a.64.64,0,0,1,.55.9l-.14.33a.64.64,0,0,1-.74.37l-4.59-1.12.13-.33A.64.64,0,0,1,21.26,11.9Z"/><path class="cls-4" d="M21.41,11.51l4.16.27a.64.64,0,0,1,.55.9L26,13a.64.64,0,0,1-.74.37l-4.59-1.12.13-.33A.64.64,0,0,1,21.41,11.51Z"/><rect class="cls-4" x="25.19" y="13.42" width="0.05" height="0.32" transform="translate(6.46 -8.07) rotate(20.8)"/><path class="cls-3" d="M33.4,16.48l-3.29-2.56a.64.64,0,0,0-1,.31l-.11.34a.64.64,0,0,0,.31.77l4.18,2.2.13-.33A.64.64,0,0,0,33.4,16.48Z"/><path class="cls-4" d="M33.55,16.08l-3.29-2.56a.64.64,0,0,0-1,.31l-.11.34a.64.64,0,0,0,.31.77l4.18,2.2.13-.33A.64.64,0,0,0,33.55,16.08Z"/><rect class="cls-4" x="29.31" y="14.95" width="0.05" height="0.32" transform="translate(51.38 39.64) rotate(-159.2)"/><path class="cls-5" d="M31.68,27c-1.69,4.44-5.82,4.48-10.26,2.79s-7.51-4.46-5.82-8.9,7.69-9.41,12.13-7.73S33.36,22.54,31.68,27Z"/><path class="cls-6" d="M30.75,21.71c-.63,1.67-3.66,2.24-6.68,1.09s-4.91-3.58-4.27-5.25.93-1.11,6,.8C30.64,20.21,31.38,20,30.75,21.71Z"/><line class="cls-7" x1="25.76" y1="18.35" x2="24.07" y2="22.8"/><path class="cls-8" d="M31.68,27c-1.69,4.44-5.82,4.48-10.26,2.79s-7.51-4.46-5.82-8.9,3.36,2,7.8,3.7S33.36,22.54,31.68,27Z"/><rect class="cls-5" x="19.58" y="26.95" width="5.69" height="0.32" transform="translate(-10.88 38.45) rotate(-69.2)"/></g></g></svg>