<svg xmlns="http://www.w3.org/2000/svg" viewBox="0 0 52 35.68"><defs><style>.cls-1,.cls-2,.cls-3{fill:none;stroke-miterlimit:10;}.cls-1,.cls-2{stroke:#454a62;stroke-width:2px;}.cls-2{stroke-dasharray:0.51 2.03;}.cls-3{stroke:#e16056;stroke-width:0.5px;}.cls-4{fill:#b0b0b0;}.cls-5{fill:#f4f4f5;}.cls-6{fill:#97cfe3;}</style></defs><title>Humidity</title><g id="Layer_2" data-name="Layer 2"><g id="ActionKit-on-list"><path class="cls-1" d="M1,26q0-.13,0-.25"/><path class="cls-2" d="M1.1,23.73a25,25,0,0,1,49.87,1"/><path class="cls-1" d="M51,25.75q0,.12,0,.25"/><line class="cls-3" x1="26.95" y1="26.17" x2="14.8" y2="6.28"/><g id="SensorHumid"><path class="cls-4" d="M25.12,29.73h.07L25,29.44a4.29,4.29,0,0,0-.74-1.27L21,22.45l-3.3,5.71A4.3,4.3,0,0,0,17,29.44l-.17.29h.07a4.3,4.3,0,1,0,8.26,0Z"/><path class="cls-4" d="M33.33,27.2h.11l-.26-.45a6.63,6.63,0,0,0-1.14-2L27,16l-5.09,8.81a6.63,6.63,0,0,0-1.14,2l-.26.45h.11a6.64,6.64,0,1,0,12.75,0Z"/><polygon class="cls-4" points="16.68 30.93 16.68 28.45 33.59 26.57 33.59 29.05 16.68 30.93"/><path class="cls-5" d="M33.33,24.72h.11l-.26-.45a6.63,6.63,0,0,0-1.14-2L27,13.5l-5.09,8.81a6.63,6.63,0,0,0-1.14,2l-.26.45h.11a6.64,6.64,0,1,0,12.75,0Z"/><path class="cls-5" d="M25.12,27.26h.07L25,27a4.29,4.29,0,0,0-.74-1.27L21,20l-3.3,5.71A4.3,4.3,0,0,0,17,27l-.17.29h.07a4.3,4.3,0,1,0,8.26,0Z"/><path class="cls-6" d="M27,31.91a5.54,5.54,0,0,1-5.53-5.53,5.39,5.39,0,0,1,.08-.9h-.24l.35-.75.2-.34a5.2,5.2,0,0,1,.91-1.56L27,15.48l4.29,7.43a5.19,5.19,0,0,1,.9,1.57l.16.26.43.75h-.32A5.52,5.52,0,0,1,27,31.91Z"/><path class="cls-5" d="M27,16.48l3.85,6.68a5,5,0,0,1,.86,1.49l.2.34h-.08a5,5,0,1,1-9.66,0H22l.2-.34a5,5,0,0,1,.86-1.49L27,16.48m0-2L26.09,16l-3.81,6.6a6,6,0,0,0-.94,1.63l-.15.27L20.31,26h.63q0,.2,0,.4a6,6,0,0,0,12.06,0q0-.2,0-.4h.63l-.87-1.5-.15-.27a6,6,0,0,0-.94-1.63L27.82,16,27,14.48Z"/><path class="cls-6" d="M21,31.52a3.41,3.41,0,0,1-3.4-3.4q0-.15,0-.31h-.27l.39-.75.11-.2a3.07,3.07,0,0,1,.55-.93L21,21.4,23.64,26a3.07,3.07,0,0,1,.53.94l.08.12.43.75h-.31q0,.15,0,.31A3.41,3.41,0,0,1,21,31.52Z"/><path class="cls-5" d="M21,22.4l2.23,3.85a2.9,2.9,0,0,1,.5.86l.11.2h0a2.9,2.9,0,1,1-5.57,0h0l.11-.2a2.9,2.9,0,0,1,.5-.86L21,22.4m0-2-.87,1.5-2.18,3.78a3.89,3.89,0,0,0-.58,1l-.07.13-.87,1.5h.67a3.9,3.9,0,0,0,7.8,0h.62l-.82-1.5-.07-.13a3.89,3.89,0,0,0-.58-1L21.85,21.9,21,20.4Z"/><path class="cls-5" d="M29.61,25.24a2.4,2.4,0,1,1-3.39,3.39c-.94-.94,1.44-.08,2.37-1S28.67,24.3,29.61,25.24Z"/><path class="cls-5" d="M22.48,26.87A1.73,1.73,0,1,1,20,29.31c-.68-.68,1-.06,1.71-.73S21.8,26.19,22.48,26.87Z"/></g><rect class="cls-5" x="30.77" y="32.31" width="0.26" height="1.77"/><rect class="cls-5" x="21.79" y="32.96" width="0.26" height="1.77"/></g></g></svg>