<svg xmlns="http://www.w3.org/2000/svg" viewBox="0 0 38.11 50"><defs><style>.cls-1{fill:#b0b0b0;}.cls-2{fill:#f4f4f5;}.cls-3{fill:#97cfe3;}</style></defs><title>Humidity</title><g id="Layer_2" data-name="Layer 2"><g id="ActionKit-on-list"><g id="SensorHumid"><path class="cls-1" d="M19,36.58h.16l-.38-.65a9.68,9.68,0,0,0-1.66-2.87L9.7,20.18,2.27,33.05A9.68,9.68,0,0,0,.61,35.92l-.38.65H.39a9.7,9.7,0,1,0,18.61,0Z"/><path class="cls-1" d="M37.51,30.87h.24l-.58-1a14.93,14.93,0,0,0-2.56-4.43L23.14,5.57,11.68,25.43a14.94,14.94,0,0,0-2.56,4.43l-.58,1h.24a15,15,0,1,0,28.73,0Z"/><polygon class="cls-1" points="0 39.28 0 33.71 38.11 29.47 38.11 35.04 0 39.28"/><path class="cls-2" d="M37.51,25.3h.24l-.58-1a14.93,14.93,0,0,0-2.56-4.43L23.14,0,11.68,19.86a14.94,14.94,0,0,0-2.56,4.43l-.58,1h.24a15,15,0,1,0,28.73,0Z"/><path class="cls-2" d="M19,31h.16l-.38-.65a9.68,9.68,0,0,0-1.66-2.87L9.7,14.61,2.27,27.48A9.68,9.68,0,0,0,.61,30.35L.23,31H.39A9.7,9.7,0,1,0,19,31Z"/><path class="cls-3" d="M23.14,40.88A11.81,11.81,0,0,1,11.62,26.39h-.4l.87-1.51a11.47,11.47,0,0,1,2-3.43L23.14,5.72l9.12,15.79a11.47,11.47,0,0,1,2,3.43l.4.69.43.75h-.4A11.81,11.81,0,0,1,23.14,40.88Z"/><path class="cls-2" d="M23.14,6.72l8.69,15a11.31,11.31,0,0,1,1.94,3.36l.44.76H34a11.33,11.33,0,1,1-21.76,0h-.18l.44-.76a11.31,11.31,0,0,1,1.94-3.36l8.69-15m0-2-.87,1.5-8.64,15a12.28,12.28,0,0,0-2,3.5l-.4.69-.87,1.5H11A12.16,12.16,0,0,0,10.81,29a12.33,12.33,0,0,0,24.67,0,12.16,12.16,0,0,0-.19-2.16h.66l-.87-1.5-.4-.69a12.28,12.28,0,0,0-2-3.5L24,6.22l-.87-1.5Z"/><path class="cls-3" d="M9.7,40a7.05,7.05,0,0,1-7-7,7,7,0,0,1,.13-1.32H2.44l.69-1.19a6.7,6.7,0,0,1,1.17-2l5.4-9.36,5.45,9.44a6.71,6.71,0,0,1,1.15,2l.22.36.43.75h-.34A7,7,0,0,1,16.74,33,7.05,7.05,0,0,1,9.7,40Z"/><path class="cls-2" d="M9.7,20.07l5,8.69a6.53,6.53,0,0,1,1.12,1.94l.25.44H16a6.54,6.54,0,1,1-12.56,0H3.31l.25-.44a6.53,6.53,0,0,1,1.12-1.94l5-8.69m0-2-.87,1.5-5,8.61a7.51,7.51,0,0,0-1.2,2.08l-.21.37-.87,1.5H2.2a7.38,7.38,0,0,0,0,.82,7.54,7.54,0,0,0,15.09,0,7.38,7.38,0,0,0,0-.82h.62l-.87-1.5-.21-.37a7.51,7.51,0,0,0-1.2-2.08l-5-8.61-.87-1.5Z"/><path class="cls-2" d="M29.12,26.46a5.4,5.4,0,0,1-7.64,7.64c-2.11-2.11,3.24-.18,5.35-2.29S27,24.35,29.12,26.46Z"/><path class="cls-2" d="M13.05,30.13a3.9,3.9,0,1,1-5.51,5.51C6,34.12,9.87,35.51,11.4,34S11.53,28.61,13.05,30.13Z"/></g><rect class="cls-2" x="31.74" y="42.38" width="0.59" height="4"/><rect class="cls-2" x="11.51" y="43.87" width="0.59" height="4"/></g></g></svg>