<svg xmlns="http://www.w3.org/2000/svg" viewBox="0 0 33.62 43.15"><defs><style>.cls-1{fill:#b0b0b0;}.cls-2{fill:#d18b29;}.cls-3{fill:#ffd839;}.cls-4{fill:none;stroke:#d18b29;stroke-linecap:round;stroke-miterlimit:10;}</style></defs><title>Light</title><g id="Layer_2" data-name="Layer 2"><g id="ActionKit-on-list"><rect class="cls-1" x="11.21" y="25.52" width="2.78" height="17.63"/><rect class="cls-1" x="19.87" y="25.52" width="2.78" height="17.63"/><rect class="cls-2" y="4.69" width="33.62" height="26.07" rx="12" ry="12"/><rect class="cls-3" width="33.62" height="26.07" rx="12" ry="12"/><path class="cls-4" d="M3.58,13c0-3.28,0-8.33,1.91-8.33s1.91,5,1.91,8.33"/><path class="cls-4" d="M11.21,13c0-3.28,0-8.33,1.91-8.33S15,9.74,15,13"/><path class="cls-4" d="M11.21,13c0,3.28,0,8.33-1.91,8.33S7.39,16.3,7.39,13"/><path class="cls-4" d="M26.47,13c0,3.28,0,8.33-1.91,8.33s-1.91-5-1.91-8.33"/><path class="cls-4" d="M18.84,13c0,3.28,0,8.33-1.91,8.33S15,16.3,15,13"/><path class="cls-4" d="M18.84,13c0-3.28,0-8.33,1.91-8.33s1.91,5,1.91,8.33"/><path class="cls-4" d="M26.47,13c0-3.28,0-8.33,1.91-8.33s1.91,5,1.91,8.33"/></g></g></svg>