<svg xmlns="http://www.w3.org/2000/svg" viewBox="0 0 39.98 46.98"><defs><style>.cls-1{fill:#d18b29;}.cls-2{fill:#ffd839;}.cls-3{fill:#313544;}</style></defs><title>Motion</title><g id="Layer_2" data-name="Layer 2"><g id="ActionKit-on-list"><rect class="cls-1" y="6.99" width="39.98" height="39.98" rx="5" ry="5"/><rect class="cls-2" width="39.98" height="39.98" rx="5" ry="5"/><circle class="cls-3" cx="16.58" cy="8.11" r="5.38"/><path class="cls-3" d="M27.32,30.7a10.91,10.91,0,0,1-3-.44c-8.37-2.37-8.9-14.88-8.92-15.41l3-.11c0,.11.47,10.85,6.74,12.63a5.83,5.83,0,0,0,4.59-.29,6.14,6.14,0,0,0,2.35-2.67,1.51,1.51,0,0,1,1.72-.81h0a1.5,1.5,0,0,1,1,2.1,9.15,9.15,0,0,1-3.54,4A7.79,7.79,0,0,1,27.32,30.7Z"/><path class="cls-3" d="M15.83,36.38A1.51,1.51,0,0,1,14,35.19a10.16,10.16,0,0,1,1-7.09A8.72,8.72,0,0,1,20,24.27l.7,2.92a5.74,5.74,0,0,0-3.21,2.48,7.3,7.3,0,0,0-.64,5,1.5,1.5,0,0,1-1.08,1.71Z"/><path class="cls-3" d="M6.53,13.2A1.5,1.5,0,0,1,8.38,13a13,13,0,0,0,8.19,1.74A18.74,18.74,0,0,0,26.64,10.5a1.49,1.49,0,0,1,2,.09h0a1.5,1.5,0,0,1-.08,2.24,21.59,21.59,0,0,1-11.75,4.95c-.54,0-1.06.06-1.56.06a15.4,15.4,0,0,1-8.49-2.28,1.5,1.5,0,0,1-.2-2.36"/><rect class="cls-2" x="34.33" y="41.15" width="0.63" height="4.88"/></g></g></svg>