<svg xmlns="http://www.w3.org/2000/svg" viewBox="0 0 16.69 50"><defs><style>.cls-1{fill:#313544;}.cls-2{fill:#454a62;}.cls-3{fill:#e16056;}.cls-4{fill:#575d77;}</style></defs><title>Templature</title><g id="Layer_2" data-name="Layer 2"><g id="ActionKit-on-list"><g id="SensorTemp"><rect class="cls-1" y="33.31" width="16.69" height="16.69" rx="8.35" ry="8.35"/><path class="cls-1" d="M7.23,4.17H9.46a2,2,0,0,1,2,2V41.65a0,0,0,0,1,0,0H5.23a0,0,0,0,1,0,0V6.17A2,2,0,0,1,7.23,4.17Z"/><rect class="cls-1" y="37.48" width="16.69" height="4.17"/><rect class="cls-2" y="29.13" width="16.69" height="16.69" rx="8.35" ry="8.35"/><path class="cls-2" d="M7.23,0H9.46a2,2,0,0,1,2,2V37.48a0,0,0,0,1,0,0H5.23a0,0,0,0,1,0,0V2a2,2,0,0,1,2-2Z"/><circle class="cls-1" cx="8.35" cy="37.48" r="5.75"/><path class="cls-1" d="M7.74,1.4H9a1,1,0,0,1,1,1V33.46a0,0,0,0,1,0,0H6.74a0,0,0,0,1,0,0V2.4A1,1,0,0,1,7.74,1.4Z"/><circle class="cls-3" cx="8.35" cy="37.48" r="4.96"/><path class="cls-3" d="M8.32,15.57h.05a1,1,0,0,1,1,1V37.41a0,0,0,0,1,0,0H7.32a0,0,0,0,1,0,0V16.57a1,1,0,0,1,1-1Z"/><rect class="cls-4" x="14.1" y="43.68" width="0.5" height="3.21"/></g></g></g></svg>