<svg xmlns="http://www.w3.org/2000/svg" viewBox="0 0 50.25 42.43"><defs><style>.cls-1,.cls-4,.cls-5,.cls-6{fill:none;}.cls-1{stroke:#454a62;}.cls-1,.cls-5,.cls-6{stroke-linejoin:bevel;}.cls-2{fill:#d18b29;}.cls-3{fill:#ffd839;}.cls-4,.cls-5,.cls-6{stroke:#f4f4f5;stroke-width:0.25px;}.cls-4{stroke-miterlimit:10;}.cls-6{stroke-linecap:square;}</style></defs><title>Audio_playTone</title><g id="Layer_2" data-name="Layer 2"><g id="ActionKit-on-list"><line class="cls-1" x1="50" y1="2.64" x2="29.93" y2="14.23"/><line class="cls-1" x1="50" y1="14.23" x2="29.93" y2="25.82"/><line class="cls-1" x1="50" y1="8.43" x2="29.93" y2="20.02"/><line class="cls-1" x1="50" y1="25.82" x2="29.93" y2="37.41"/><line class="cls-1" x1="50" y1="20.02" x2="29.93" y2="31.61"/><line class="cls-1" x1="30.06" y1="37.41" x2="9.99" y2="25.82"/><line class="cls-1" x1="30.06" y1="25.82" x2="9.99" y2="14.23"/><line class="cls-1" x1="30.06" y1="31.61" x2="9.99" y2="20.02"/><line class="cls-1" x1="30.06" y1="14.23" x2="9.99" y2="2.64"/><line class="cls-1" x1="30.06" y1="20.02" x2="9.99" y2="8.43"/><path class="cls-2" d="M30.38,36.23V13.68L30,13,10.08,1.42l-1.16.67V21.92a5.22,5.22,0,1,0,1.52,3.69s0-.06,0-.1h0V10.6a.77.77,0,0,1,1.16-.67l16.82,9.8a.77.77,0,0,1,.38.67v13a5.22,5.22,0,1,0-3.55,9A5.34,5.34,0,0,0,30,39.31,4.87,4.87,0,0,0,30.38,36.23Z"/><path class="cls-3" d="M30.38,34.81V12.27L30,11.6,10.08,0,8.92.67V20.5a5.22,5.22,0,1,0,1.52,3.69s0-.06,0-.1h0V9.19a.77.77,0,0,1,1.16-.67l16.82,9.8a.77.77,0,0,1,.38.67V32a5.22,5.22,0,1,0-3.55,9A5.34,5.34,0,0,0,30,37.9,4.87,4.87,0,0,0,30.38,34.81Z"/><circle class="cls-2" cx="5.32" cy="24.2" r="4.13"/><circle class="cls-2" cx="25.28" cy="35.74" r="4.13"/><polyline class="cls-4" points="9.46 20.51 9.46 1.58 9.46 1.13 10.43 0.56"/><line class="cls-5" x1="24.74" y1="10.02" x2="28.76" y2="12.35"/><line class="cls-6" x1="9.46" y1="1.13" x2="22.71" y2="8.83"/></g></g></svg>