<svg xmlns="http://www.w3.org/2000/svg" viewBox="0 0 50 39.93"><defs><style>.cls-1{fill:#92967b;}.cls-2{fill:#bdd9be;}.cls-3{fill:#82a69e;stroke:#5e5f5f;stroke-miterlimit:10;stroke-width:2px;}.cls-4{fill:#5d5e5e;}.cls-5{fill:#e16156;}.cls-6{fill:#497ea2;}.cls-7{fill:#f8b0ae;}.cls-8{fill:#ffd839;}.cls-9{fill:#97cfe3;}.cls-10{fill:#fff;}</style></defs><title>backlight_color</title><g id="Layer_2" data-name="Layer 2"><g id="ActionKit-on-list"><g id="LCD_normal"><rect class="cls-1" y="6" width="50" height="25" rx="3.74" ry="3.74"/><rect class="cls-2" width="50" height="25" rx="4.99" ry="4.99"/><rect class="cls-3" x="4.17" y="4.17" width="41.67" height="16.67" rx="1.95" ry="1.95"/><rect class="cls-4" x="25.56" y="31.08" width="0.73" height="8.85"/><rect class="cls-4" x="27.2" y="31.08" width="0.73" height="8.85"/><rect class="cls-4" x="28.83" y="31.08" width="0.73" height="8.85"/><rect class="cls-4" x="30.47" y="31.08" width="0.73" height="8.85"/><rect class="cls-4" x="32.1" y="31.08" width="0.73" height="8.85"/><rect class="cls-4" x="33.74" y="31.08" width="0.73" height="8.85"/><rect class="cls-4" x="35.37" y="31.08" width="0.73" height="8.85"/><rect class="cls-2" x="48.05" y="24.88" width="0.44" height="4.56"/><path class="cls-5" d="M25,11.24a4,4,0,0,1,4.05-.4c0-.11,0-.21,0-.32a4,4,0,0,0-8,0c0,.09,0,.18,0,.28a4,4,0,0,1,4,.45Z"/><path class="cls-6" d="M23.35,14.48c0-.11,0-.22,0-.32A4,4,0,0,1,21,10.79a4,4,0,1,0,4,6.93A4,4,0,0,1,23.35,14.48Z"/><path class="cls-7" d="M23.37,14.16A4,4,0,0,1,25,11.24a4,4,0,0,0-4-.45A4,4,0,0,0,23.37,14.16Z"/><path class="cls-2" d="M29.05,10.84a4,4,0,0,1-2.41,3.37c0,.09,0,.18,0,.28A4,4,0,0,1,25,17.73a4,4,0,1,0,4.05-6.89Z"/><path class="cls-8" d="M25,11.24a4,4,0,0,1,1.64,3,4,4,0,0,0,2.41-3.37,4,4,0,0,0-4.05.4Z"/><path class="cls-9" d="M26.65,14.48c0-.09,0-.18,0-.28a4,4,0,0,1-3.27,0c0,.11,0,.21,0,.32A4,4,0,0,0,25,17.73,4,4,0,0,0,26.65,14.48Z"/><path class="cls-10" d="M25,11.24a4,4,0,0,0-1.63,2.92,4,4,0,0,0,3.27,0A4,4,0,0,0,25,11.24Z"/></g></g></g></svg>