<svg xmlns="http://www.w3.org/2000/svg" viewBox="0 0 70.7 53.72"><defs><style>.cls-1{fill:#d8d8d8;}.cls-2{fill:#f4f4f5;}.cls-3{fill:#497ea2;}.cls-4{fill:#97cfe3;}.cls-5{fill:#313544;}.cls-6{fill:#454a62;}</style></defs><title>Cloud_AzureUp</title><g id="Layer_2" data-name="Layer 2"><g id="ActionKit-on-list"><polyline class="cls-1" points="0 40.98 0 31.98 70.7 28.36 70.7 37.36 0 40.98"/><path class="cls-1" d="M54.34,21c-.2,0-.4,0-.6,0A16.34,16.34,0,0,0,22,21.7l-.43,0a10.41,10.41,0,0,0-9.69,6.61,12.73,12.73,0,0,0,.8,25.43H52.89v-.07c.48,0,1,.07,1.45.07a16.36,16.36,0,0,0,0-32.72Z"/><path class="cls-2" d="M54.34,12c-.2,0-.4,0-.6,0A16.34,16.34,0,0,0,22,12.7l-.43,0a10.41,10.41,0,0,0-9.69,6.61,12.73,12.73,0,0,0,.8,25.43H52.89v-.07c.48,0,1,.07,1.45.07a16.36,16.36,0,0,0,0-32.72Z"/><rect class="cls-3" x="24.92" y="26.48" width="11.91" height="11.91"/><rect class="cls-3" x="38" y="26.48" width="11.91" height="11.91"/><rect class="cls-3" x="24.92" y="13.65" width="11.91" height="11.91"/><rect class="cls-3" x="38" y="13.65" width="11.91" height="11.91"/><rect class="cls-4" x="24.92" y="24.43" width="11.91" height="11.91"/><rect class="cls-4" x="38" y="24.43" width="11.91" height="11.91"/><rect class="cls-4" x="24.92" y="11.59" width="11.91" height="11.91"/><rect class="cls-4" x="38" y="11.59" width="11.91" height="11.91"/><polyline class="cls-5" points="31.23 39.73 31.23 42.69 43.69 42.69 43.69 39.73 31.23 39.73"/><rect class="cls-5" x="32.96" y="44.72" width="9" height="9"/><polygon class="cls-5" points="37.45 31.9 31.23 42.69 43.69 42.69 37.45 31.9"/><polygon class="cls-6" points="37.45 31.94 31.23 39.73 43.69 39.73 37.45 31.94"/><rect class="cls-6" x="32.96" y="39.73" width="9" height="4.99"/></g></g></svg>