<svg xmlns="http://www.w3.org/2000/svg" viewBox="0 0 70.7 55.23"><defs><style>.cls-1{fill:#d8d8d8;}.cls-2{fill:#f4f4f5;}.cls-3{fill:#497ea2;}.cls-4{fill:#97cfe3;}.cls-5{fill:#313544;}.cls-6{fill:#454a62;}</style></defs><title>Cloud_AzureDownload</title><g id="Layer_2" data-name="Layer 2"><g id="ActionKit-on-list"><polyline class="cls-1" points="0 42.5 0 33.5 70.7 29.88 70.7 38.88 0 42.5"/><path class="cls-1" d="M54.34,22.52c-.2,0-.4,0-.6,0A16.34,16.34,0,0,0,22,23.22l-.43,0a10.41,10.41,0,0,0-9.69,6.61,12.73,12.73,0,0,0,.8,25.43H52.89v-.07c.48,0,1,.07,1.45.07a16.36,16.36,0,0,0,0-32.72Z"/><path class="cls-2" d="M54.34,13.52c-.2,0-.4,0-.6,0A16.34,16.34,0,0,0,22,14.22l-.43,0a10.41,10.41,0,0,0-9.69,6.61,12.73,12.73,0,0,0,.8,25.43H52.89v-.07c.48,0,1,.07,1.45.07a16.36,16.36,0,0,0,0-32.72Z"/><rect class="cls-3" x="24.92" y="29.49" width="11.91" height="11.91"/><rect class="cls-3" x="38" y="29.49" width="11.91" height="11.91"/><rect class="cls-3" x="24.92" y="16.65" width="11.91" height="11.91"/><rect class="cls-3" x="38" y="16.65" width="11.91" height="11.91"/><rect class="cls-4" x="24.92" y="27.43" width="11.91" height="11.91"/><rect class="cls-4" x="38" y="27.43" width="11.91" height="11.91"/><rect class="cls-4" x="24.92" y="14.6" width="11.91" height="11.91"/><rect class="cls-4" x="38" y="14.6" width="11.91" height="11.91"/><polyline class="cls-5" points="43.64 12.61 43.64 9.65 31.18 9.65 31.18 12.61 43.64 12.61"/><polygon class="cls-5" points="37.41 20.4 43.64 12.61 31.18 12.61 37.41 20.4"/><polygon class="cls-6" points="37.41 17.44 43.64 9.65 31.18 9.65 37.41 17.44"/><rect class="cls-6" x="32.91" width="9" height="9.65"/></g></g></svg>