<svg xmlns="http://www.w3.org/2000/svg" viewBox="0 0 70.7 53.72"><defs><style>.cls-1{fill:#d8d8d8;}.cls-2{fill:#f4f4f5;}.cls-3{fill:#497ea2;}.cls-4{fill:#97cfe3;}</style></defs><title>Cloud_twitter</title><g id="Layer_2" data-name="Layer 2"><g id="ActionKit-on-list"><polyline class="cls-1" points="0 40.98 0 31.98 70.7 28.36 70.7 37.36 0 40.98"/><path class="cls-1" d="M54.34,21c-.2,0-.4,0-.6,0A16.34,16.34,0,0,0,22,21.7l-.43,0a10.41,10.41,0,0,0-9.69,6.61,12.73,12.73,0,0,0,.8,25.43H52.89v-.07c.48,0,1,.07,1.45.07a16.36,16.36,0,0,0,0-32.72Z"/><path class="cls-2" d="M54.34,12c-.2,0-.4,0-.6,0A16.34,16.34,0,0,0,22,12.7l-.43,0a10.41,10.41,0,0,0-9.69,6.61,12.73,12.73,0,0,0,.8,25.43H52.89v-.07c.48,0,1,.07,1.45.07a16.36,16.36,0,0,0,0-32.72Z"/><polyline class="cls-3" points="51.5 14.02 51.5 17.75 48.23 20.86 48.66 16.97 51.5 14.02"/><polyline class="cls-3" points="50.73 11.77 50.73 15.49 48.66 16.97 48.23 14.92 50.73 11.77"/><polyline class="cls-3" points="24.89 15.26 24.89 18.98 27.42 20 24.89 15.26"/><path class="cls-3" d="M24.84,19.36v3.73a5.27,5.27,0,0,0,4,.86,30.5,30.5,0,0,1-4-4.58"/><path class="cls-3" d="M26.84,25v3.73a6.59,6.59,0,0,0,5.32.23h0a30.16,30.16,0,0,1-5.32-4"/><path class="cls-3" d="M23.73,35.08V31.36l6.79,2.44a5.6,5.6,0,0,1-6.79,1.28"/><path class="cls-3" d="M51.5,17.75a11.39,11.39,0,0,1-3.27.9,5.72,5.72,0,0,0,2.51-3.15,11.41,11.41,0,0,1-3.62,1.38,5.7,5.7,0,0,0-9.71,5.2,16.18,16.18,0,0,1-11.74-6,5.7,5.7,0,0,0,1.76,7.61A5.67,5.67,0,0,1,24.84,23s0,0,0,.07a5.7,5.7,0,0,0,4.57,5.59,5.7,5.7,0,0,1-2.57.1,5.7,5.7,0,0,0,5.32,4,11.5,11.5,0,0,1-8.44,2.36,16.13,16.13,0,0,0,8.73,2.56c10.48,0,16.21-8.68,16.21-16.21q0-.37,0-.74A11.58,11.58,0,0,0,51.5,17.75Z"/><path class="cls-4" d="M51.5,14a11.39,11.39,0,0,1-3.27.9,5.72,5.72,0,0,0,2.51-3.15,11.41,11.41,0,0,1-3.62,1.38,5.7,5.7,0,0,0-9.71,5.2,16.18,16.18,0,0,1-11.74-6A5.7,5.7,0,0,0,27.42,20a5.67,5.67,0,0,1-2.58-.71s0,0,0,.07a5.7,5.7,0,0,0,4.57,5.59,5.7,5.7,0,0,1-2.57.1,5.7,5.7,0,0,0,5.32,4,11.5,11.5,0,0,1-8.44,2.36,16.13,16.13,0,0,0,8.73,2.56c10.48,0,16.21-8.68,16.21-16.21q0-.37,0-.74A11.58,11.58,0,0,0,51.5,14Z"/></g></g></svg>