<svg xmlns="http://www.w3.org/2000/svg" viewBox="0 0 50 19.49"><defs><style>.cls-1{fill:#b0b0b0;}.cls-2{fill:#d8d8d8;}.cls-3{fill:#d18b29;}.cls-4{fill:#ffd839;}.cls-5{fill:#313544;}.cls-6{fill:#454a62;}.cls-7{fill:#575d77;}.cls-8{fill:#f4f4f5;}.cls-9{fill:#bfdbc0;}.cls-10{fill:#bdd9be;}.cls-11{fill:#e16156;}</style></defs><title>DC_reverse</title><g id="Layer_2" data-name="Layer 2"><g id="ActionKit-on-list"><rect class="cls-1" y="8.12" width="8.01" height="0.84"/><rect class="cls-2" y="7.8" width="8.01" height="0.84"/><rect class="cls-3" y="7.6" width="4.8" height="0.64"/><rect class="cls-4" y="7.24" width="4.8" height="0.64"/><rect class="cls-3" y="6.69" width="4.8" height="0.38"/><rect class="cls-4" y="6.48" width="4.8" height="0.38"/><rect class="cls-3" y="9.64" width="4.8" height="0.38" transform="translate(4.8 19.66) rotate(180)"/><rect class="cls-4" y="9.85" width="4.8" height="0.38" transform="translate(4.8 20.09) rotate(180)"/><rect class="cls-3" y="8.44" width="4.8" height="0.64" transform="translate(4.8 17.52) rotate(180)"/><rect class="cls-4" y="8.8" width="4.8" height="0.64" transform="translate(4.8 18.24) rotate(180)"/><rect class="cls-1" x="33.69" y="7.76" width="8.01" height="0.84" transform="translate(75.38 16.35) rotate(180)"/><rect class="cls-2" x="33.69" y="8.08" width="8.01" height="0.84" transform="translate(75.38 16.99) rotate(180)"/><rect class="cls-3" x="36.89" y="8.48" width="4.8" height="0.64" transform="translate(78.58 17.6) rotate(180)"/><rect class="cls-4" x="36.89" y="8.84" width="4.8" height="0.64" transform="translate(78.58 18.32) rotate(180)"/><rect class="cls-3" x="36.89" y="9.64" width="4.8" height="0.38" transform="translate(78.58 19.66) rotate(180)"/><rect class="cls-4" x="36.89" y="9.85" width="4.8" height="0.38" transform="translate(78.58 20.09) rotate(180)"/><rect class="cls-3" x="36.89" y="6.69" width="4.8" height="0.38"/><rect class="cls-4" x="36.89" y="6.48" width="4.8" height="0.38"/><rect class="cls-3" x="36.89" y="7.64" width="4.8" height="0.64"/><rect class="cls-4" x="36.89" y="7.28" width="4.8" height="0.64"/><path class="cls-1" d="M12,5.05H27.27a0,0,0,0,1,0,0V19.49a0,0,0,0,1,0,0H12a4,4,0,0,1-4-4V9.05A4,4,0,0,1,12,5.05Z"/><path class="cls-2" d="M12,0H27.27a0,0,0,0,1,0,0V14.44a0,0,0,0,1,0,0H12a4,4,0,0,1-4-4V4A4,4,0,0,1,12,0Z"/><path class="cls-5" d="M30.77,5.05h3a0,0,0,0,1,0,0V19.49a0,0,0,0,1,0,0h-3a4,4,0,0,1-4-4V9.05A4,4,0,0,1,30.77,5.05Z" transform="translate(60.54 24.55) rotate(-180)"/><path class="cls-6" d="M30.77,0h3a0,0,0,0,1,0,0V14.44a0,0,0,0,1,0,0h-3a4,4,0,0,1-4-4V4a4,4,0,0,1,4-4Z" transform="translate(60.54 14.44) rotate(-180)"/><rect class="cls-7" x="30.46" y="15.22" width="0.29" height="3.31"/><rect class="cls-8" x="9.94" y="15.22" width="0.29" height="3.31"/><rect class="cls-1" x="10.23" y="1.86" width="1.26" height="2.29"/><rect class="cls-9" x="10.23" y="2.44" width="1.26" height="1.71"/><rect class="cls-1" x="10.23" y="10.35" width="1.26" height="2.29"/><rect class="cls-9" x="10.23" y="10.92" width="1.26" height="1.71"/><rect class="cls-1" x="22.67" y="4.06" width="1.98" height="1.98"/><rect class="cls-9" x="22.67" y="4.66" width="1.98" height="1.38"/><rect class="cls-1" x="22.67" y="8.15" width="1.98" height="1.98"/><rect class="cls-9" x="22.67" y="8.74" width="1.98" height="1.38"/><path class="cls-3" d="M27.2,1.38h-.77a.72.72,0,0,0-.72.72v9.81a.72.72,0,0,0,.72.72h.77a.72.72,0,0,0,.72-.72V2.11A.72.72,0,0,0,27.2,1.38Zm.32,10.34a.36.36,0,0,1-.36.36h-.69a.36.36,0,0,1-.36-.36V11a.36.36,0,0,1,.36-.36h.69a.36.36,0,0,1,.36.36Zm0-8.79a.36.36,0,0,1-.36.36h-.69a.36.36,0,0,1-.36-.36V2.24a.36.36,0,0,1,.36-.36h.69a.36.36,0,0,1,.36.36Z"/><path class="cls-4" d="M27.2,1.08h-.77a.72.72,0,0,0-.72.72v9.81a.72.72,0,0,0,.72.72h.77a.72.72,0,0,0,.72-.72V1.81A.72.72,0,0,0,27.2,1.08Zm.32,10.34a.36.36,0,0,1-.36.36h-.69a.36.36,0,0,1-.36-.36v-.69a.36.36,0,0,1,.36-.36h.69a.36.36,0,0,1,.36.36Zm0-8.79a.36.36,0,0,1-.36.36h-.69a.36.36,0,0,1-.36-.36V1.94a.36.36,0,0,1,.36-.36h.69a.36.36,0,0,1,.36.36Z"/><path class="cls-10" d="M41.77,13.42a5.15,5.15,0,0,1-3.5-1.86L38.9,11a4.35,4.35,0,1,0,.58-6.12L39,4.26a5.18,5.18,0,1,1,2.81,9.16Z"/><polygon class="cls-10" points="38.41 4.99 40.6 4.99 39.51 3.08 38.41 4.99"/><polygon class="cls-11" points="36.33 12.76 37.35 14.94 38.73 12.96 36.33 12.76"/><path class="cls-11" d="M42.34,15.8a7.6,7.6,0,0,1-5.41-2.24l.59-.59a6.82,6.82,0,1,0,0-9.65l-.59-.59A7.66,7.66,0,1,1,42.34,15.8Z"/></g></g></svg>