<svg xmlns="http://www.w3.org/2000/svg" viewBox="0 0 21.33 50"><defs><style>.cls-1{fill:#5d5e5e;}.cls-2{fill:#bdd9be;}.cls-3{fill:#7d7d7d;}.cls-4{fill:#82a69e;}</style></defs><title>LED_Blink</title><g id="Layer_2" data-name="Layer 2"><g id="ActionKit-on-list"><g id="GreenLed"><rect class="cls-1" x="5.78" y="32.56" width="1.11" height="17.44"/><rect class="cls-1" x="14.44" y="32.56" width="1.11" height="17.44"/><path class="cls-2" d="M3.23,31.78V22.67l7.44,7.44V24.34L9,22.67h1.67V0A10.67,10.67,0,0,0,0,10.67c0,.11,0,.21,0,.32H0V32.32H10.67v-.54Z"/><path class="cls-3" d="M21.33,10.67A10.67,10.67,0,0,0,10.67,0V22.67H18.1v9.11l-7.44-7.44V30.1l1.67,1.67H10.67v.54H21.33V11h0C21.33,10.88,21.33,10.77,21.33,10.67Z"/><polygon class="cls-1" points="12.34 31.78 10.67 30.1 10.67 31.78 12.34 31.78"/><polygon class="cls-4" points="3.23 31.78 10.67 31.78 10.67 30.1 3.23 22.67 3.23 31.78"/><polygon class="cls-1" points="18.1 31.78 18.1 22.67 10.67 22.67 10.67 24.34 18.1 31.78"/><polygon class="cls-4" points="10.67 24.34 10.67 22.67 8.99 22.67 10.67 24.34"/></g></g></g></svg>