<svg xmlns="http://www.w3.org/2000/svg" viewBox="0 0 50 41.28"><defs><style>.cls-1{fill:#92967b;}.cls-2{fill:#b0b0b0;}.cls-3{fill:#d8d8d8;}.cls-4{fill:#313544;}.cls-5{fill:#454a62;}.cls-6{fill:#a11e22;}.cls-7{fill:#e16056;}.cls-8{fill:#d18b29;}.cls-9{fill:#ffd839;}.cls-10{fill:#bdd9be;}</style></defs><title>Relay_ON</title><g id="Layer_2" data-name="Layer 2"><g id="ActionKit-on-list"><line class="cls-1" x1="23.8" y1="15.58" x2="23.8" y2="14.58"/><rect class="cls-2" x="8.39" y="8.06" width="33.22" height="33.22"/><rect class="cls-3" x="8.39" y="0.05" width="33.22" height="33.22"/><path class="cls-4" d="M5,8.06H8.39a0,0,0,0,1,0,0V41.28a0,0,0,0,1,0,0H5a5,5,0,0,1-5-5V13.06A5,5,0,0,1,5,8.06Z"/><path class="cls-5" d="M5,.05H8.39a0,0,0,0,1,0,0V33.27a0,0,0,0,1,0,0H5a5,5,0,0,1-5-5V5.05A5,5,0,0,1,5,.05Z"/><path class="cls-6" d="M46.61,8H50a0,0,0,0,1,0,0V41.22a0,0,0,0,1,0,0H46.61a5,5,0,0,1-5-5V13a5,5,0,0,1,5-5Z" transform="translate(91.61 49.23) rotate(-180)"/><path class="cls-7" d="M46.61,0H50a0,0,0,0,1,0,0V33.22a0,0,0,0,1,0,0H46.61a5,5,0,0,1-5-5V5a5,5,0,0,1,5-5Z" transform="translate(91.61 33.22) rotate(-180)"/><polygon class="cls-8" points="19.63 27.31 13.46 27.31 11.4 25.77 21.69 25.77 19.63 27.31"/><polygon class="cls-9" points="13.46 24.24 19.63 24.24 21.69 25.77 11.4 25.77 13.46 24.24"/><polygon class="cls-8" points="19.63 24.24 13.46 24.24 11.4 22.7 21.69 22.7 19.63 24.24"/><polygon class="cls-9" points="13.46 21.16 19.63 21.16 21.69 22.7 11.4 22.7 13.46 21.16"/><polygon class="cls-8" points="19.63 21.16 13.46 21.16 11.4 19.63 21.69 19.63 19.63 21.16"/><polygon class="cls-9" points="13.46 18.09 19.63 18.09 21.69 19.63 11.4 19.63 13.46 18.09"/><polygon class="cls-8" points="19.63 18.09 13.46 18.09 11.4 16.56 21.69 16.56 19.63 18.09"/><polygon class="cls-9" points="13.46 15.02 19.63 15.02 21.69 16.56 11.4 16.56 13.46 15.02"/><polygon class="cls-8" points="19.63 15.02 13.46 15.02 11.4 13.49 21.69 13.49 19.63 15.02"/><polygon class="cls-9" points="13.46 11.95 19.63 11.95 21.69 13.49 11.4 13.49 13.46 11.95"/><polygon class="cls-8" points="19.63 11.95 13.46 11.95 11.4 10.42 21.69 10.42 19.63 11.95"/><polygon class="cls-9" points="13.46 8.88 19.63 8.88 21.69 10.42 11.4 10.42 13.46 8.88"/><polygon class="cls-8" points="19.63 8.88 13.46 8.88 11.4 7.34 21.69 7.34 19.63 8.88"/><polygon class="cls-9" points="13.46 5.81 19.63 5.81 21.69 7.34 11.4 7.34 13.46 5.81"/><polygon class="cls-1" points="17.36 5.81 15.72 5.81 15.72 3.13 8.39 3.13 8.39 1.49 17.36 1.49 17.36 5.81"/><polygon class="cls-10" points="17.36 4.88 15.72 4.88 15.72 2.2 8.39 2.2 8.39 0.56 17.36 0.56 17.36 4.88"/><polygon class="cls-1" points="17.36 27.31 15.72 27.31 15.72 29.98 8.39 29.98 8.39 31.63 17.36 31.63 17.36 27.31"/><polygon class="cls-10" points="17.36 28.23 15.72 28.23 15.72 30.91 8.39 30.91 8.39 32.55 17.36 32.55 17.36 28.23"/><polygon class="cls-1" points="41.61 31.45 33.96 31.45 33.96 18.63 35.6 18.63 35.6 29.81 41.61 29.81 41.61 31.45"/><path class="cls-1" d="M34.78,19.77a3,3,0,1,1,3-3A3,3,0,0,1,34.78,19.77Zm0-4.36a1.36,1.36,0,1,0,1.36,1.36A1.36,1.36,0,0,0,34.78,15.41Z"/><polygon class="cls-10" points="41.61 32.45 33.96 32.45 33.96 19.63 35.6 19.63 35.6 30.81 41.61 30.81 41.61 32.45"/><path class="cls-10" d="M34.78,20.77a3,3,0,1,1,3-3A3,3,0,0,1,34.78,20.77Zm0-4.36a1.36,1.36,0,1,0,1.36,1.36A1.36,1.36,0,0,0,34.78,16.4Z"/><rect class="cls-10" x="31.78" y="16.77" width="1.64" height="1"/><rect class="cls-10" x="36.14" y="16.77" width="1.64" height="1"/><polygon class="cls-1" points="41.61 2.02 33.96 2.02 33.96 14.84 35.6 14.84 35.6 3.66 41.61 3.66 41.61 2.02"/><path class="cls-1" d="M37.79,16.7a3,3,0,1,1-3-3A3,3,0,0,1,37.79,16.7Zm-1.64,0a1.36,1.36,0,1,0-1.36,1.36A1.36,1.36,0,0,0,36.14,16.7Z"/><rect class="cls-1" x="31.78" y="16.7" width="1.64" height="1"/><rect class="cls-1" x="36.14" y="16.7" width="1.64" height="1"/><polygon class="cls-10" points="41.61 3.02 33.96 3.02 33.96 15.84 35.6 15.84 35.6 4.66 41.61 4.66 41.61 3.02"/><path class="cls-10" d="M37.79,17.7a3,3,0,1,1-3-3A3,3,0,0,1,37.79,17.7Zm-1.64,0a1.36,1.36,0,1,0-1.36,1.36A1.36,1.36,0,0,0,36.14,17.7Z"/></g></g></svg>